<mxfile host="app.diagrams.net" agent="Mozilla/5.0 (Windows NT 10.0; Win64; x64) AppleWebKit/537.36 (KHTML, like Gecko) Chrome/130.0.0.0 Safari/537.36" version="24.8.4">
  <diagram id="_6nWQq9N5iGgDKLpjV2x" name="페이지-1">
    <mxGraphModel dx="4319" dy="2941" grid="1" gridSize="10" guides="1" tooltips="1" connect="1" arrows="1" fold="1" page="1" pageScale="1" pageWidth="827" pageHeight="1169" math="0" shadow="0">
      <root>
        <mxCell id="0" />
        <mxCell id="1" parent="0" />
        <mxCell id="WYmIHeGtq4Grt4gA2TI7-1" value="Member" style="swimlane;fontStyle=1;align=center;verticalAlign=top;childLayout=stackLayout;horizontal=1;startSize=26;horizontalStack=0;resizeParent=1;resizeParentMax=0;resizeLast=0;collapsible=1;marginBottom=0;whiteSpace=wrap;html=1;" vertex="1" parent="1">
          <mxGeometry x="310" y="740" width="270" height="210" as="geometry" />
        </mxCell>
        <mxCell id="WYmIHeGtq4Grt4gA2TI7-2" value="- id : String&lt;div&gt;- password : String&lt;/div&gt;&lt;div&gt;- name : String&lt;/div&gt;&lt;div&gt;- gender : String&lt;/div&gt;&lt;div&gt;- birth : String&lt;/div&gt;&lt;div&gt;- mail : String&lt;/div&gt;&lt;div&gt;- phone : String&lt;/div&gt;&lt;div&gt;- address : String&lt;/div&gt;&lt;div&gt;- regist_day : Timestamp&lt;/div&gt;" style="text;strokeColor=none;fillColor=none;align=left;verticalAlign=top;spacingLeft=4;spacingRight=4;overflow=hidden;rotatable=0;points=[[0,0.5],[1,0.5]];portConstraint=eastwest;whiteSpace=wrap;html=1;" vertex="1" parent="WYmIHeGtq4Grt4gA2TI7-1">
          <mxGeometry y="26" width="270" height="144" as="geometry" />
        </mxCell>
        <mxCell id="WYmIHeGtq4Grt4gA2TI7-3" value="" style="line;strokeWidth=1;fillColor=none;align=left;verticalAlign=middle;spacingTop=-1;spacingLeft=3;spacingRight=3;rotatable=0;labelPosition=right;points=[];portConstraint=eastwest;strokeColor=inherit;" vertex="1" parent="WYmIHeGtq4Grt4gA2TI7-1">
          <mxGeometry y="170" width="270" height="8" as="geometry" />
        </mxCell>
        <mxCell id="WYmIHeGtq4Grt4gA2TI7-4" value="+ getter/setter 생략" style="text;strokeColor=none;fillColor=none;align=left;verticalAlign=top;spacingLeft=4;spacingRight=4;overflow=hidden;rotatable=0;points=[[0,0.5],[1,0.5]];portConstraint=eastwest;whiteSpace=wrap;html=1;" vertex="1" parent="WYmIHeGtq4Grt4gA2TI7-1">
          <mxGeometry y="178" width="270" height="32" as="geometry" />
        </mxCell>
        <mxCell id="WYmIHeGtq4Grt4gA2TI7-6" value="Timestamp" style="swimlane;fontStyle=0;childLayout=stackLayout;horizontal=1;startSize=26;fillColor=none;horizontalStack=0;resizeParent=1;resizeParentMax=0;resizeLast=0;collapsible=1;marginBottom=0;whiteSpace=wrap;html=1;" vertex="1" parent="1">
          <mxGeometry x="760" y="819" width="140" height="52" as="geometry" />
        </mxCell>
        <mxCell id="WYmIHeGtq4Grt4gA2TI7-10" style="edgeStyle=orthogonalEdgeStyle;rounded=0;orthogonalLoop=1;jettySize=auto;html=1;entryX=0;entryY=0.5;entryDx=0;entryDy=0;endArrow=open;endFill=0;" edge="1" parent="1" source="WYmIHeGtq4Grt4gA2TI7-1" target="WYmIHeGtq4Grt4gA2TI7-6">
          <mxGeometry relative="1" as="geometry" />
        </mxCell>
        <mxCell id="WYmIHeGtq4Grt4gA2TI7-24" style="edgeStyle=orthogonalEdgeStyle;rounded=0;orthogonalLoop=1;jettySize=auto;html=1;entryX=0.5;entryY=0;entryDx=0;entryDy=0;dashed=1;endArrow=open;endFill=0;" edge="1" parent="1" source="WYmIHeGtq4Grt4gA2TI7-18" target="WYmIHeGtq4Grt4gA2TI7-6">
          <mxGeometry relative="1" as="geometry" />
        </mxCell>
        <mxCell id="WYmIHeGtq4Grt4gA2TI7-29" style="edgeStyle=orthogonalEdgeStyle;rounded=0;orthogonalLoop=1;jettySize=auto;html=1;entryX=0.5;entryY=0;entryDx=0;entryDy=0;dashed=1;endArrow=open;endFill=0;" edge="1" parent="1" source="WYmIHeGtq4Grt4gA2TI7-18" target="WYmIHeGtq4Grt4gA2TI7-25">
          <mxGeometry relative="1" as="geometry" />
        </mxCell>
        <mxCell id="WYmIHeGtq4Grt4gA2TI7-44" style="edgeStyle=orthogonalEdgeStyle;rounded=0;orthogonalLoop=1;jettySize=auto;html=1;entryX=0.5;entryY=0;entryDx=0;entryDy=0;dashed=1;endArrow=open;endFill=0;" edge="1" parent="1" source="WYmIHeGtq4Grt4gA2TI7-18" target="WYmIHeGtq4Grt4gA2TI7-40">
          <mxGeometry relative="1" as="geometry" />
        </mxCell>
        <mxCell id="WYmIHeGtq4Grt4gA2TI7-55" style="edgeStyle=orthogonalEdgeStyle;rounded=0;orthogonalLoop=1;jettySize=auto;html=1;endArrow=block;endFill=0;" edge="1" parent="1" source="WYmIHeGtq4Grt4gA2TI7-18" target="WYmIHeGtq4Grt4gA2TI7-51">
          <mxGeometry relative="1" as="geometry" />
        </mxCell>
        <mxCell id="WYmIHeGtq4Grt4gA2TI7-18" value="&lt;span style=&quot;font-weight: 400;&quot;&gt;AddMember_Controller&lt;/span&gt;" style="swimlane;fontStyle=1;align=center;verticalAlign=top;childLayout=stackLayout;horizontal=1;startSize=26;horizontalStack=0;resizeParent=1;resizeParentMax=0;resizeLast=0;collapsible=1;marginBottom=0;whiteSpace=wrap;html=1;" vertex="1" parent="1">
          <mxGeometry x="310" y="550" width="620" height="106" as="geometry" />
        </mxCell>
        <mxCell id="WYmIHeGtq4Grt4gA2TI7-20" value="" style="line;strokeWidth=1;fillColor=none;align=left;verticalAlign=middle;spacingTop=-1;spacingLeft=3;spacingRight=3;rotatable=0;labelPosition=right;points=[];portConstraint=eastwest;strokeColor=inherit;" vertex="1" parent="WYmIHeGtq4Grt4gA2TI7-18">
          <mxGeometry y="26" width="620" height="8" as="geometry" />
        </mxCell>
        <mxCell id="WYmIHeGtq4Grt4gA2TI7-21" value="# doGet(req : HttpServletRequest , resp : HttpServletResponse) : void&lt;div&gt;&lt;br&gt;&lt;/div&gt;&lt;div&gt;&lt;div&gt;# doPost(request : HttpServletRequest, response : HttpServletResponse) : void&lt;/div&gt;&lt;/div&gt;" style="text;strokeColor=none;fillColor=none;align=left;verticalAlign=top;spacingLeft=4;spacingRight=4;overflow=hidden;rotatable=0;points=[[0,0.5],[1,0.5]];portConstraint=eastwest;whiteSpace=wrap;html=1;" vertex="1" parent="WYmIHeGtq4Grt4gA2TI7-18">
          <mxGeometry y="34" width="620" height="72" as="geometry" />
        </mxCell>
        <mxCell id="WYmIHeGtq4Grt4gA2TI7-25" value="HttpServletRequest" style="swimlane;fontStyle=1;align=center;verticalAlign=top;childLayout=stackLayout;horizontal=1;startSize=26;horizontalStack=0;resizeParent=1;resizeParentMax=0;resizeLast=0;collapsible=1;marginBottom=0;whiteSpace=wrap;html=1;" vertex="1" parent="1">
          <mxGeometry x="1010" y="688" width="200" height="80" as="geometry" />
        </mxCell>
        <mxCell id="WYmIHeGtq4Grt4gA2TI7-28" value="getParameter() : String&amp;nbsp;&lt;div&gt;getParameterValues() : String&lt;/div&gt;&lt;div&gt;setAttribute(String, Object) : void&lt;/div&gt;" style="text;strokeColor=none;fillColor=none;align=left;verticalAlign=top;spacingLeft=4;spacingRight=4;overflow=hidden;rotatable=0;points=[[0,0.5],[1,0.5]];portConstraint=eastwest;whiteSpace=wrap;html=1;" vertex="1" parent="WYmIHeGtq4Grt4gA2TI7-25">
          <mxGeometry y="26" width="200" height="54" as="geometry" />
        </mxCell>
        <mxCell id="WYmIHeGtq4Grt4gA2TI7-38" style="edgeStyle=orthogonalEdgeStyle;rounded=0;orthogonalLoop=1;jettySize=auto;html=1;dashed=1;endArrow=open;endFill=0;" edge="1" parent="1" source="WYmIHeGtq4Grt4gA2TI7-18" target="WYmIHeGtq4Grt4gA2TI7-1">
          <mxGeometry relative="1" as="geometry">
            <mxPoint x="450" y="800" as="targetPoint" />
          </mxGeometry>
        </mxCell>
        <mxCell id="WYmIHeGtq4Grt4gA2TI7-39" style="edgeStyle=orthogonalEdgeStyle;rounded=0;orthogonalLoop=1;jettySize=auto;html=1;entryX=0.5;entryY=0;entryDx=0;entryDy=0;dashed=1;endArrow=open;endFill=0;" edge="1" parent="1" source="WYmIHeGtq4Grt4gA2TI7-18">
          <mxGeometry relative="1" as="geometry">
            <mxPoint x="1340" y="688" as="targetPoint" />
          </mxGeometry>
        </mxCell>
        <mxCell id="WYmIHeGtq4Grt4gA2TI7-40" value="RequestDispatcher" style="swimlane;fontStyle=1;align=center;verticalAlign=top;childLayout=stackLayout;horizontal=1;startSize=26;horizontalStack=0;resizeParent=1;resizeParentMax=0;resizeLast=0;collapsible=1;marginBottom=0;whiteSpace=wrap;html=1;" vertex="1" parent="1">
          <mxGeometry x="1464" y="688" width="320" height="70" as="geometry" />
        </mxCell>
        <mxCell id="WYmIHeGtq4Grt4gA2TI7-43" value="forward(HttpServletRequest, HttpServletResponse) : void&lt;div&gt;getRequestDispatcher() : RequestDispatcher&lt;/div&gt;" style="text;strokeColor=none;fillColor=none;align=left;verticalAlign=top;spacingLeft=4;spacingRight=4;overflow=hidden;rotatable=0;points=[[0,0.5],[1,0.5]];portConstraint=eastwest;whiteSpace=wrap;html=1;" vertex="1" parent="WYmIHeGtq4Grt4gA2TI7-40">
          <mxGeometry y="26" width="320" height="44" as="geometry" />
        </mxCell>
        <mxCell id="WYmIHeGtq4Grt4gA2TI7-80" style="edgeStyle=orthogonalEdgeStyle;rounded=0;orthogonalLoop=1;jettySize=auto;html=1;dashed=1;endArrow=open;endFill=0;" edge="1" parent="1" source="WYmIHeGtq4Grt4gA2TI7-46" target="WYmIHeGtq4Grt4gA2TI7-61">
          <mxGeometry relative="1" as="geometry" />
        </mxCell>
        <mxCell id="WYmIHeGtq4Grt4gA2TI7-81" style="edgeStyle=orthogonalEdgeStyle;rounded=0;orthogonalLoop=1;jettySize=auto;html=1;dashed=1;endArrow=open;endFill=0;" edge="1" parent="1" source="WYmIHeGtq4Grt4gA2TI7-46" target="WYmIHeGtq4Grt4gA2TI7-76">
          <mxGeometry relative="1" as="geometry" />
        </mxCell>
        <mxCell id="WYmIHeGtq4Grt4gA2TI7-82" style="edgeStyle=orthogonalEdgeStyle;rounded=0;orthogonalLoop=1;jettySize=auto;html=1;dashed=1;endArrow=open;endFill=0;" edge="1" parent="1" source="WYmIHeGtq4Grt4gA2TI7-46" target="WYmIHeGtq4Grt4gA2TI7-68">
          <mxGeometry relative="1" as="geometry" />
        </mxCell>
        <mxCell id="WYmIHeGtq4Grt4gA2TI7-46" value="MemberRepository" style="swimlane;fontStyle=1;align=center;verticalAlign=top;childLayout=stackLayout;horizontal=1;startSize=26;horizontalStack=0;resizeParent=1;resizeParentMax=0;resizeLast=0;collapsible=1;marginBottom=0;whiteSpace=wrap;html=1;" vertex="1" parent="1">
          <mxGeometry x="310" y="1030" width="370" height="210" as="geometry" />
        </mxCell>
        <mxCell id="WYmIHeGtq4Grt4gA2TI7-47" value="&lt;u&gt;- mr : MemberRepository&lt;/u&gt;&lt;div&gt;conn : Connection&lt;/div&gt;&lt;div&gt;pstmt ; PreparedStatement&lt;/div&gt;&lt;div&gt;rs : ResultSet&lt;/div&gt;" style="text;strokeColor=none;fillColor=none;align=left;verticalAlign=top;spacingLeft=4;spacingRight=4;overflow=hidden;rotatable=0;points=[[0,0.5],[1,0.5]];portConstraint=eastwest;whiteSpace=wrap;html=1;" vertex="1" parent="WYmIHeGtq4Grt4gA2TI7-46">
          <mxGeometry y="26" width="370" height="74" as="geometry" />
        </mxCell>
        <mxCell id="WYmIHeGtq4Grt4gA2TI7-48" value="" style="line;strokeWidth=1;fillColor=none;align=left;verticalAlign=middle;spacingTop=-1;spacingLeft=3;spacingRight=3;rotatable=0;labelPosition=right;points=[];portConstraint=eastwest;strokeColor=inherit;" vertex="1" parent="WYmIHeGtq4Grt4gA2TI7-46">
          <mxGeometry y="100" width="370" height="8" as="geometry" />
        </mxCell>
        <mxCell id="WYmIHeGtq4Grt4gA2TI7-49" value="&lt;div&gt;&lt;div&gt;&lt;u&gt;+ getInstance() : MemberRepository&lt;/u&gt;&lt;/div&gt;&lt;/div&gt;&lt;div&gt;+ addMember(mb : Member)&lt;/div&gt;&lt;div&gt;+ getOneObject(id : String, password : String) : Member&lt;/div&gt;&lt;div&gt;+ updateMember(Member mb) : void&lt;/div&gt;&lt;div&gt;+ deleteMember(id : String) : void&lt;/div&gt;" style="text;strokeColor=none;fillColor=none;align=left;verticalAlign=top;spacingLeft=4;spacingRight=4;overflow=hidden;rotatable=0;points=[[0,0.5],[1,0.5]];portConstraint=eastwest;whiteSpace=wrap;html=1;" vertex="1" parent="WYmIHeGtq4Grt4gA2TI7-46">
          <mxGeometry y="108" width="370" height="102" as="geometry" />
        </mxCell>
        <mxCell id="WYmIHeGtq4Grt4gA2TI7-50" style="edgeStyle=orthogonalEdgeStyle;rounded=0;orthogonalLoop=1;jettySize=auto;html=1;dashed=1;endArrow=open;endFill=0;" edge="1" parent="1" source="WYmIHeGtq4Grt4gA2TI7-46" target="WYmIHeGtq4Grt4gA2TI7-1">
          <mxGeometry relative="1" as="geometry" />
        </mxCell>
        <mxCell id="WYmIHeGtq4Grt4gA2TI7-51" value="HttpServlet" style="swimlane;fontStyle=0;childLayout=stackLayout;horizontal=1;startSize=26;fillColor=none;horizontalStack=0;resizeParent=1;resizeParentMax=0;resizeLast=0;collapsible=1;marginBottom=0;whiteSpace=wrap;html=1;" vertex="1" parent="1">
          <mxGeometry x="-300" y="564" width="330" height="78" as="geometry" />
        </mxCell>
        <mxCell id="WYmIHeGtq4Grt4gA2TI7-52" value="doGet(HttpServletRequest, HttpServletResponse)" style="text;strokeColor=none;fillColor=none;align=left;verticalAlign=top;spacingLeft=4;spacingRight=4;overflow=hidden;rotatable=0;points=[[0,0.5],[1,0.5]];portConstraint=eastwest;whiteSpace=wrap;html=1;" vertex="1" parent="WYmIHeGtq4Grt4gA2TI7-51">
          <mxGeometry y="26" width="330" height="26" as="geometry" />
        </mxCell>
        <mxCell id="WYmIHeGtq4Grt4gA2TI7-53" value="doPost(HttpServletRequest, HttpServletResponse)" style="text;strokeColor=none;fillColor=none;align=left;verticalAlign=top;spacingLeft=4;spacingRight=4;overflow=hidden;rotatable=0;points=[[0,0.5],[1,0.5]];portConstraint=eastwest;whiteSpace=wrap;html=1;" vertex="1" parent="WYmIHeGtq4Grt4gA2TI7-51">
          <mxGeometry y="52" width="330" height="26" as="geometry" />
        </mxCell>
        <mxCell id="WYmIHeGtq4Grt4gA2TI7-216" style="edgeStyle=orthogonalEdgeStyle;rounded=0;orthogonalLoop=1;jettySize=auto;html=1;entryX=0;entryY=0.5;entryDx=0;entryDy=0;dashed=1;endArrow=open;endFill=0;" edge="1" parent="1" source="WYmIHeGtq4Grt4gA2TI7-61" target="WYmIHeGtq4Grt4gA2TI7-213">
          <mxGeometry relative="1" as="geometry" />
        </mxCell>
        <mxCell id="WYmIHeGtq4Grt4gA2TI7-61" value="DBConnection" style="swimlane;fontStyle=1;align=center;verticalAlign=top;childLayout=stackLayout;horizontal=1;startSize=26;horizontalStack=0;resizeParent=1;resizeParentMax=0;resizeLast=0;collapsible=1;marginBottom=0;whiteSpace=wrap;html=1;" vertex="1" parent="1">
          <mxGeometry x="810" y="970" width="210" height="60" as="geometry" />
        </mxCell>
        <mxCell id="WYmIHeGtq4Grt4gA2TI7-63" value="" style="line;strokeWidth=1;fillColor=none;align=left;verticalAlign=middle;spacingTop=-1;spacingLeft=3;spacingRight=3;rotatable=0;labelPosition=right;points=[];portConstraint=eastwest;strokeColor=inherit;" vertex="1" parent="WYmIHeGtq4Grt4gA2TI7-61">
          <mxGeometry y="26" width="210" height="8" as="geometry" />
        </mxCell>
        <mxCell id="WYmIHeGtq4Grt4gA2TI7-64" value="+ getConnection() : Connection" style="text;strokeColor=none;fillColor=none;align=left;verticalAlign=top;spacingLeft=4;spacingRight=4;overflow=hidden;rotatable=0;points=[[0,0.5],[1,0.5]];portConstraint=eastwest;whiteSpace=wrap;html=1;" vertex="1" parent="WYmIHeGtq4Grt4gA2TI7-61">
          <mxGeometry y="34" width="210" height="26" as="geometry" />
        </mxCell>
        <mxCell id="WYmIHeGtq4Grt4gA2TI7-68" value="PreparedStatement" style="swimlane;fontStyle=1;align=center;verticalAlign=top;childLayout=stackLayout;horizontal=1;startSize=26;horizontalStack=0;resizeParent=1;resizeParentMax=0;resizeLast=0;collapsible=1;marginBottom=0;whiteSpace=wrap;html=1;" vertex="1" parent="1">
          <mxGeometry x="810" y="1169" width="250" height="100" as="geometry" />
        </mxCell>
        <mxCell id="WYmIHeGtq4Grt4gA2TI7-70" value="" style="line;strokeWidth=1;fillColor=none;align=left;verticalAlign=middle;spacingTop=-1;spacingLeft=3;spacingRight=3;rotatable=0;labelPosition=right;points=[];portConstraint=eastwest;strokeColor=inherit;" vertex="1" parent="WYmIHeGtq4Grt4gA2TI7-68">
          <mxGeometry y="26" width="250" height="8" as="geometry" />
        </mxCell>
        <mxCell id="WYmIHeGtq4Grt4gA2TI7-71" value="setString(int,String)&lt;div&gt;setTimestamp(int,Timestamp)&lt;/div&gt;&lt;div&gt;executeUpdate() : int(void)&lt;/div&gt;&lt;div&gt;executeQuery() : ResultSet&lt;/div&gt;" style="text;strokeColor=none;fillColor=none;align=left;verticalAlign=top;spacingLeft=4;spacingRight=4;overflow=hidden;rotatable=0;points=[[0,0.5],[1,0.5]];portConstraint=eastwest;whiteSpace=wrap;html=1;" vertex="1" parent="WYmIHeGtq4Grt4gA2TI7-68">
          <mxGeometry y="34" width="250" height="66" as="geometry" />
        </mxCell>
        <mxCell id="WYmIHeGtq4Grt4gA2TI7-72" value="ResultSet" style="swimlane;fontStyle=1;align=center;verticalAlign=top;childLayout=stackLayout;horizontal=1;startSize=26;horizontalStack=0;resizeParent=1;resizeParentMax=0;resizeLast=0;collapsible=1;marginBottom=0;whiteSpace=wrap;html=1;" vertex="1" parent="1">
          <mxGeometry x="810" y="1300" width="220" height="104" as="geometry" />
        </mxCell>
        <mxCell id="WYmIHeGtq4Grt4gA2TI7-74" value="" style="line;strokeWidth=1;fillColor=none;align=left;verticalAlign=middle;spacingTop=-1;spacingLeft=3;spacingRight=3;rotatable=0;labelPosition=right;points=[];portConstraint=eastwest;strokeColor=inherit;" vertex="1" parent="WYmIHeGtq4Grt4gA2TI7-72">
          <mxGeometry y="26" width="220" height="8" as="geometry" />
        </mxCell>
        <mxCell id="WYmIHeGtq4Grt4gA2TI7-75" value="&lt;div&gt;next() : boolean&lt;/div&gt;getString(int) : String&lt;div&gt;getTimeStampe(int) : Timestamp&lt;/div&gt;" style="text;strokeColor=none;fillColor=none;align=left;verticalAlign=top;spacingLeft=4;spacingRight=4;overflow=hidden;rotatable=0;points=[[0,0.5],[1,0.5]];portConstraint=eastwest;whiteSpace=wrap;html=1;" vertex="1" parent="WYmIHeGtq4Grt4gA2TI7-72">
          <mxGeometry y="34" width="220" height="70" as="geometry" />
        </mxCell>
        <mxCell id="WYmIHeGtq4Grt4gA2TI7-76" value="Connection" style="swimlane;fontStyle=1;align=center;verticalAlign=top;childLayout=stackLayout;horizontal=1;startSize=26;horizontalStack=0;resizeParent=1;resizeParentMax=0;resizeLast=0;collapsible=1;marginBottom=0;whiteSpace=wrap;html=1;" vertex="1" parent="1">
          <mxGeometry x="810" y="1070" width="260" height="60" as="geometry" />
        </mxCell>
        <mxCell id="WYmIHeGtq4Grt4gA2TI7-78" value="" style="line;strokeWidth=1;fillColor=none;align=left;verticalAlign=middle;spacingTop=-1;spacingLeft=3;spacingRight=3;rotatable=0;labelPosition=right;points=[];portConstraint=eastwest;strokeColor=inherit;" vertex="1" parent="WYmIHeGtq4Grt4gA2TI7-76">
          <mxGeometry y="26" width="260" height="8" as="geometry" />
        </mxCell>
        <mxCell id="WYmIHeGtq4Grt4gA2TI7-79" value="prepareStatement(String) : PrepareStatement" style="text;strokeColor=none;fillColor=none;align=left;verticalAlign=top;spacingLeft=4;spacingRight=4;overflow=hidden;rotatable=0;points=[[0,0.5],[1,0.5]];portConstraint=eastwest;whiteSpace=wrap;html=1;" vertex="1" parent="WYmIHeGtq4Grt4gA2TI7-76">
          <mxGeometry y="34" width="260" height="26" as="geometry" />
        </mxCell>
        <mxCell id="WYmIHeGtq4Grt4gA2TI7-83" style="edgeStyle=orthogonalEdgeStyle;rounded=0;orthogonalLoop=1;jettySize=auto;html=1;entryX=0.002;entryY=0.109;entryDx=0;entryDy=0;entryPerimeter=0;dashed=1;endArrow=open;endFill=0;" edge="1" parent="1" source="WYmIHeGtq4Grt4gA2TI7-46" target="WYmIHeGtq4Grt4gA2TI7-72">
          <mxGeometry relative="1" as="geometry" />
        </mxCell>
        <mxCell id="WYmIHeGtq4Grt4gA2TI7-138" style="edgeStyle=orthogonalEdgeStyle;rounded=0;orthogonalLoop=1;jettySize=auto;html=1;entryX=-0.004;entryY=0.204;entryDx=0;entryDy=0;entryPerimeter=0;dashed=1;endArrow=open;endFill=0;" edge="1" parent="1" source="WYmIHeGtq4Grt4gA2TI7-128" target="WYmIHeGtq4Grt4gA2TI7-49">
          <mxGeometry relative="1" as="geometry">
            <mxPoint x="210" y="1160" as="targetPoint" />
            <Array as="points">
              <mxPoint x="200" y="453" />
              <mxPoint x="200" y="1159" />
              <mxPoint x="308" y="1159" />
            </Array>
          </mxGeometry>
        </mxCell>
        <mxCell id="WYmIHeGtq4Grt4gA2TI7-128" value="&lt;span style=&quot;font-weight: 400;&quot;&gt;DeleteMember_Controller&lt;/span&gt;" style="swimlane;fontStyle=1;align=center;verticalAlign=top;childLayout=stackLayout;horizontal=1;startSize=26;horizontalStack=0;resizeParent=1;resizeParentMax=0;resizeLast=0;collapsible=1;marginBottom=0;whiteSpace=wrap;html=1;" vertex="1" parent="1">
          <mxGeometry x="310" y="400" width="620" height="106" as="geometry" />
        </mxCell>
        <mxCell id="WYmIHeGtq4Grt4gA2TI7-129" value="" style="line;strokeWidth=1;fillColor=none;align=left;verticalAlign=middle;spacingTop=-1;spacingLeft=3;spacingRight=3;rotatable=0;labelPosition=right;points=[];portConstraint=eastwest;strokeColor=inherit;" vertex="1" parent="WYmIHeGtq4Grt4gA2TI7-128">
          <mxGeometry y="26" width="620" height="8" as="geometry" />
        </mxCell>
        <mxCell id="WYmIHeGtq4Grt4gA2TI7-130" value="# doGet(req : HttpServletRequest , resp : HttpServletResponse) : void&lt;div&gt;&lt;br&gt;&lt;/div&gt;&lt;div&gt;&lt;div&gt;# doPost(request : HttpServletRequest, response : HttpServletResponse) : void&lt;/div&gt;&lt;/div&gt;" style="text;strokeColor=none;fillColor=none;align=left;verticalAlign=top;spacingLeft=4;spacingRight=4;overflow=hidden;rotatable=0;points=[[0,0.5],[1,0.5]];portConstraint=eastwest;whiteSpace=wrap;html=1;" vertex="1" parent="WYmIHeGtq4Grt4gA2TI7-128">
          <mxGeometry y="34" width="620" height="72" as="geometry" />
        </mxCell>
        <mxCell id="WYmIHeGtq4Grt4gA2TI7-132" style="edgeStyle=orthogonalEdgeStyle;rounded=0;orthogonalLoop=1;jettySize=auto;html=1;endArrow=block;endFill=0;exitX=0;exitY=0.5;exitDx=0;exitDy=0;entryX=1;entryY=0.5;entryDx=0;entryDy=0;" edge="1" parent="1" source="WYmIHeGtq4Grt4gA2TI7-130" target="WYmIHeGtq4Grt4gA2TI7-52">
          <mxGeometry relative="1" as="geometry">
            <mxPoint x="320" y="613" as="sourcePoint" />
            <mxPoint x="-55" y="508" as="targetPoint" />
          </mxGeometry>
        </mxCell>
        <mxCell id="WYmIHeGtq4Grt4gA2TI7-134" style="edgeStyle=orthogonalEdgeStyle;rounded=0;orthogonalLoop=1;jettySize=auto;html=1;dashed=1;endArrow=open;endFill=0;" edge="1" parent="1" source="WYmIHeGtq4Grt4gA2TI7-130">
          <mxGeometry relative="1" as="geometry">
            <mxPoint x="1340" y="688" as="targetPoint" />
          </mxGeometry>
        </mxCell>
        <mxCell id="WYmIHeGtq4Grt4gA2TI7-133" style="edgeStyle=orthogonalEdgeStyle;rounded=0;orthogonalLoop=1;jettySize=auto;html=1;endArrow=open;endFill=0;dashed=1;entryX=0.503;entryY=-0.003;entryDx=0;entryDy=0;entryPerimeter=0;" edge="1" parent="1" source="WYmIHeGtq4Grt4gA2TI7-130" target="WYmIHeGtq4Grt4gA2TI7-25">
          <mxGeometry relative="1" as="geometry">
            <mxPoint x="1090" y="670" as="targetPoint" />
          </mxGeometry>
        </mxCell>
        <mxCell id="WYmIHeGtq4Grt4gA2TI7-135" style="edgeStyle=orthogonalEdgeStyle;rounded=0;orthogonalLoop=1;jettySize=auto;html=1;entryX=0.5;entryY=0;entryDx=0;entryDy=0;dashed=1;endArrow=open;endFill=0;" edge="1" parent="1" source="WYmIHeGtq4Grt4gA2TI7-130" target="WYmIHeGtq4Grt4gA2TI7-40">
          <mxGeometry relative="1" as="geometry" />
        </mxCell>
        <mxCell id="WYmIHeGtq4Grt4gA2TI7-140" value="HttpSession" style="swimlane;fontStyle=1;align=center;verticalAlign=top;childLayout=stackLayout;horizontal=1;startSize=26;horizontalStack=0;resizeParent=1;resizeParentMax=0;resizeLast=0;collapsible=1;marginBottom=0;whiteSpace=wrap;html=1;" vertex="1" parent="1">
          <mxGeometry x="1010" y="790" width="200" height="80" as="geometry" />
        </mxCell>
        <mxCell id="WYmIHeGtq4Grt4gA2TI7-141" value="getSession(boolean) : HttpSession&lt;div&gt;invalidate() : void&lt;/div&gt;&lt;div&gt;setAttribute(String, Object) : void&lt;/div&gt;" style="text;strokeColor=none;fillColor=none;align=left;verticalAlign=top;spacingLeft=4;spacingRight=4;overflow=hidden;rotatable=0;points=[[0,0.5],[1,0.5]];portConstraint=eastwest;whiteSpace=wrap;html=1;" vertex="1" parent="WYmIHeGtq4Grt4gA2TI7-140">
          <mxGeometry y="26" width="200" height="54" as="geometry" />
        </mxCell>
        <mxCell id="WYmIHeGtq4Grt4gA2TI7-142" style="edgeStyle=orthogonalEdgeStyle;rounded=0;orthogonalLoop=1;jettySize=auto;html=1;entryX=0.006;entryY=0.036;entryDx=0;entryDy=0;entryPerimeter=0;dashed=1;endArrow=open;endFill=0;" edge="1" parent="1" source="WYmIHeGtq4Grt4gA2TI7-130" target="WYmIHeGtq4Grt4gA2TI7-141">
          <mxGeometry relative="1" as="geometry">
            <mxPoint x="970" y="820" as="targetPoint" />
          </mxGeometry>
        </mxCell>
        <mxCell id="WYmIHeGtq4Grt4gA2TI7-143" value="HttpServletResponse" style="swimlane;fontStyle=1;align=center;verticalAlign=top;childLayout=stackLayout;horizontal=1;startSize=26;horizontalStack=0;resizeParent=1;resizeParentMax=0;resizeLast=0;collapsible=1;marginBottom=0;whiteSpace=wrap;html=1;" vertex="1" parent="1">
          <mxGeometry x="1241" y="688" width="200" height="70" as="geometry" />
        </mxCell>
        <mxCell id="WYmIHeGtq4Grt4gA2TI7-144" value="sendRedirect(String) : void" style="text;strokeColor=none;fillColor=none;align=left;verticalAlign=top;spacingLeft=4;spacingRight=4;overflow=hidden;rotatable=0;points=[[0,0.5],[1,0.5]];portConstraint=eastwest;whiteSpace=wrap;html=1;" vertex="1" parent="WYmIHeGtq4Grt4gA2TI7-143">
          <mxGeometry y="26" width="200" height="44" as="geometry" />
        </mxCell>
        <mxCell id="WYmIHeGtq4Grt4gA2TI7-145" value="&lt;span style=&quot;font-weight: 400;&quot;&gt;UpdateMember_Controller&lt;/span&gt;" style="swimlane;fontStyle=1;align=center;verticalAlign=top;childLayout=stackLayout;horizontal=1;startSize=26;horizontalStack=0;resizeParent=1;resizeParentMax=0;resizeLast=0;collapsible=1;marginBottom=0;whiteSpace=wrap;html=1;" vertex="1" parent="1">
          <mxGeometry x="310" y="250" width="620" height="106" as="geometry" />
        </mxCell>
        <mxCell id="WYmIHeGtq4Grt4gA2TI7-146" value="" style="line;strokeWidth=1;fillColor=none;align=left;verticalAlign=middle;spacingTop=-1;spacingLeft=3;spacingRight=3;rotatable=0;labelPosition=right;points=[];portConstraint=eastwest;strokeColor=inherit;" vertex="1" parent="WYmIHeGtq4Grt4gA2TI7-145">
          <mxGeometry y="26" width="620" height="8" as="geometry" />
        </mxCell>
        <mxCell id="WYmIHeGtq4Grt4gA2TI7-147" value="# doGet(req : HttpServletRequest , resp : HttpServletResponse) : void&lt;div&gt;&lt;br&gt;&lt;/div&gt;&lt;div&gt;&lt;div&gt;# doPost(request : HttpServletRequest, response : HttpServletResponse) : void&lt;/div&gt;&lt;/div&gt;" style="text;strokeColor=none;fillColor=none;align=left;verticalAlign=top;spacingLeft=4;spacingRight=4;overflow=hidden;rotatable=0;points=[[0,0.5],[1,0.5]];portConstraint=eastwest;whiteSpace=wrap;html=1;" vertex="1" parent="WYmIHeGtq4Grt4gA2TI7-145">
          <mxGeometry y="34" width="620" height="72" as="geometry" />
        </mxCell>
        <mxCell id="WYmIHeGtq4Grt4gA2TI7-148" style="edgeStyle=orthogonalEdgeStyle;rounded=0;orthogonalLoop=1;jettySize=auto;html=1;entryX=0.5;entryY=0;entryDx=0;entryDy=0;dashed=1;endArrow=open;endFill=0;" edge="1" parent="1" source="WYmIHeGtq4Grt4gA2TI7-147" target="WYmIHeGtq4Grt4gA2TI7-40">
          <mxGeometry relative="1" as="geometry" />
        </mxCell>
        <mxCell id="WYmIHeGtq4Grt4gA2TI7-149" style="edgeStyle=orthogonalEdgeStyle;rounded=0;orthogonalLoop=1;jettySize=auto;html=1;entryX=0.5;entryY=0;entryDx=0;entryDy=0;dashed=1;endArrow=open;endFill=0;" edge="1" parent="1" source="WYmIHeGtq4Grt4gA2TI7-147" target="WYmIHeGtq4Grt4gA2TI7-143">
          <mxGeometry relative="1" as="geometry" />
        </mxCell>
        <mxCell id="WYmIHeGtq4Grt4gA2TI7-150" style="edgeStyle=orthogonalEdgeStyle;rounded=0;orthogonalLoop=1;jettySize=auto;html=1;entryX=0.5;entryY=0;entryDx=0;entryDy=0;dashed=1;endArrow=open;endFill=0;" edge="1" parent="1" source="WYmIHeGtq4Grt4gA2TI7-147" target="WYmIHeGtq4Grt4gA2TI7-25">
          <mxGeometry relative="1" as="geometry" />
        </mxCell>
        <mxCell id="WYmIHeGtq4Grt4gA2TI7-151" style="edgeStyle=orthogonalEdgeStyle;rounded=0;orthogonalLoop=1;jettySize=auto;html=1;endArrow=block;endFill=0;exitX=0;exitY=0.5;exitDx=0;exitDy=0;entryX=1;entryY=0.5;entryDx=0;entryDy=0;" edge="1" parent="1" source="WYmIHeGtq4Grt4gA2TI7-147" target="WYmIHeGtq4Grt4gA2TI7-52">
          <mxGeometry relative="1" as="geometry">
            <mxPoint x="310" y="300" as="sourcePoint" />
            <mxPoint x="30" y="433" as="targetPoint" />
          </mxGeometry>
        </mxCell>
        <mxCell id="WYmIHeGtq4Grt4gA2TI7-152" style="edgeStyle=orthogonalEdgeStyle;rounded=0;orthogonalLoop=1;jettySize=auto;html=1;entryX=-0.001;entryY=0.451;entryDx=0;entryDy=0;dashed=1;endArrow=open;endFill=0;entryPerimeter=0;" edge="1" parent="1" target="WYmIHeGtq4Grt4gA2TI7-2">
          <mxGeometry relative="1" as="geometry">
            <mxPoint x="319" y="1150" as="targetPoint" />
            <mxPoint x="310" y="310" as="sourcePoint" />
            <Array as="points">
              <mxPoint x="260" y="310" />
              <mxPoint x="260" y="830" />
              <mxPoint x="310" y="830" />
            </Array>
          </mxGeometry>
        </mxCell>
        <mxCell id="WYmIHeGtq4Grt4gA2TI7-153" style="edgeStyle=orthogonalEdgeStyle;rounded=0;orthogonalLoop=1;jettySize=auto;html=1;entryX=-0.003;entryY=0.016;entryDx=0;entryDy=0;entryPerimeter=0;dashed=1;endArrow=open;endFill=0;" edge="1" parent="1">
          <mxGeometry relative="1" as="geometry">
            <mxPoint x="308.8900000000001" y="1139.632" as="targetPoint" />
            <mxPoint x="309" y="300" as="sourcePoint" />
            <Array as="points">
              <mxPoint x="310" y="300" />
              <mxPoint x="270" y="300" />
              <mxPoint x="270" y="1140" />
            </Array>
          </mxGeometry>
        </mxCell>
        <mxCell id="WYmIHeGtq4Grt4gA2TI7-154" value="&lt;span style=&quot;font-weight: 400;&quot;&gt;LoginMember_Controller&lt;/span&gt;" style="swimlane;fontStyle=1;align=center;verticalAlign=top;childLayout=stackLayout;horizontal=1;startSize=26;horizontalStack=0;resizeParent=1;resizeParentMax=0;resizeLast=0;collapsible=1;marginBottom=0;whiteSpace=wrap;html=1;" vertex="1" parent="1">
          <mxGeometry x="310" y="90" width="620" height="106" as="geometry" />
        </mxCell>
        <mxCell id="WYmIHeGtq4Grt4gA2TI7-155" value="" style="line;strokeWidth=1;fillColor=none;align=left;verticalAlign=middle;spacingTop=-1;spacingLeft=3;spacingRight=3;rotatable=0;labelPosition=right;points=[];portConstraint=eastwest;strokeColor=inherit;" vertex="1" parent="WYmIHeGtq4Grt4gA2TI7-154">
          <mxGeometry y="26" width="620" height="8" as="geometry" />
        </mxCell>
        <mxCell id="WYmIHeGtq4Grt4gA2TI7-157" style="edgeStyle=orthogonalEdgeStyle;rounded=0;orthogonalLoop=1;jettySize=auto;html=1;dashed=1;endArrow=open;endFill=0;" edge="1" parent="WYmIHeGtq4Grt4gA2TI7-154" source="WYmIHeGtq4Grt4gA2TI7-156">
          <mxGeometry relative="1" as="geometry">
            <mxPoint x="800" y="600" as="targetPoint" />
          </mxGeometry>
        </mxCell>
        <mxCell id="WYmIHeGtq4Grt4gA2TI7-158" style="edgeStyle=orthogonalEdgeStyle;rounded=0;orthogonalLoop=1;jettySize=auto;html=1;dashed=1;endArrow=open;endFill=0;" edge="1" parent="WYmIHeGtq4Grt4gA2TI7-154" source="WYmIHeGtq4Grt4gA2TI7-156">
          <mxGeometry relative="1" as="geometry">
            <mxPoint x="1030" y="600" as="targetPoint" />
          </mxGeometry>
        </mxCell>
        <mxCell id="WYmIHeGtq4Grt4gA2TI7-156" value="# doGet(req : HttpServletRequest , resp : HttpServletResponse) : void&lt;div&gt;&lt;br&gt;&lt;/div&gt;&lt;div&gt;&lt;div&gt;# doPost(request : HttpServletRequest, response : HttpServletResponse) : void&lt;/div&gt;&lt;/div&gt;" style="text;strokeColor=none;fillColor=none;align=left;verticalAlign=top;spacingLeft=4;spacingRight=4;overflow=hidden;rotatable=0;points=[[0,0.5],[1,0.5]];portConstraint=eastwest;whiteSpace=wrap;html=1;" vertex="1" parent="WYmIHeGtq4Grt4gA2TI7-154">
          <mxGeometry y="34" width="620" height="72" as="geometry" />
        </mxCell>
        <mxCell id="WYmIHeGtq4Grt4gA2TI7-159" style="edgeStyle=orthogonalEdgeStyle;rounded=0;orthogonalLoop=1;jettySize=auto;html=1;entryX=0.5;entryY=0;entryDx=0;entryDy=0;dashed=1;endArrow=open;endFill=0;" edge="1" parent="1" source="WYmIHeGtq4Grt4gA2TI7-156" target="WYmIHeGtq4Grt4gA2TI7-40">
          <mxGeometry relative="1" as="geometry" />
        </mxCell>
        <mxCell id="WYmIHeGtq4Grt4gA2TI7-160" style="edgeStyle=orthogonalEdgeStyle;rounded=0;orthogonalLoop=1;jettySize=auto;html=1;entryX=1;entryY=0.5;entryDx=0;entryDy=0;endArrow=block;endFill=0;" edge="1" parent="1" source="WYmIHeGtq4Grt4gA2TI7-156" target="WYmIHeGtq4Grt4gA2TI7-52">
          <mxGeometry relative="1" as="geometry" />
        </mxCell>
        <mxCell id="WYmIHeGtq4Grt4gA2TI7-161" style="edgeStyle=orthogonalEdgeStyle;rounded=0;orthogonalLoop=1;jettySize=auto;html=1;entryX=0;entryY=0.5;entryDx=0;entryDy=0;dashed=1;endArrow=open;endFill=0;exitX=-0.001;exitY=0.774;exitDx=0;exitDy=0;exitPerimeter=0;" edge="1" parent="1" source="WYmIHeGtq4Grt4gA2TI7-156" target="WYmIHeGtq4Grt4gA2TI7-2">
          <mxGeometry relative="1" as="geometry">
            <Array as="points">
              <mxPoint x="308" y="180" />
              <mxPoint x="250" y="180" />
              <mxPoint x="250" y="838" />
            </Array>
          </mxGeometry>
        </mxCell>
        <mxCell id="WYmIHeGtq4Grt4gA2TI7-162" style="edgeStyle=orthogonalEdgeStyle;rounded=0;orthogonalLoop=1;jettySize=auto;html=1;entryX=0;entryY=0.5;entryDx=0;entryDy=0;dashed=1;endArrow=open;endFill=0;exitX=0;exitY=0.921;exitDx=0;exitDy=0;exitPerimeter=0;" edge="1" parent="1" source="WYmIHeGtq4Grt4gA2TI7-156" target="WYmIHeGtq4Grt4gA2TI7-47">
          <mxGeometry relative="1" as="geometry">
            <mxPoint x="277.99" y="196" as="sourcePoint" />
            <mxPoint x="279.99" y="856" as="targetPoint" />
            <Array as="points">
              <mxPoint x="240" y="190" />
              <mxPoint x="240" y="1093" />
            </Array>
          </mxGeometry>
        </mxCell>
        <mxCell id="WYmIHeGtq4Grt4gA2TI7-163" value="ArrayList&amp;lt;Book&amp;gt;" style="swimlane;fontStyle=1;align=center;verticalAlign=top;childLayout=stackLayout;horizontal=1;startSize=26;horizontalStack=0;resizeParent=1;resizeParentMax=0;resizeLast=0;collapsible=1;marginBottom=0;whiteSpace=wrap;html=1;" vertex="1" parent="1">
          <mxGeometry x="1241" y="790" width="200" height="70" as="geometry" />
        </mxCell>
        <mxCell id="WYmIHeGtq4Grt4gA2TI7-165" style="edgeStyle=orthogonalEdgeStyle;rounded=0;orthogonalLoop=1;jettySize=auto;html=1;entryX=0;entryY=0.5;entryDx=0;entryDy=0;dashed=1;endArrow=open;endFill=0;" edge="1" parent="1" source="WYmIHeGtq4Grt4gA2TI7-156" target="WYmIHeGtq4Grt4gA2TI7-163">
          <mxGeometry relative="1" as="geometry">
            <Array as="points">
              <mxPoint x="1220" y="160" />
              <mxPoint x="1220" y="825" />
            </Array>
          </mxGeometry>
        </mxCell>
        <mxCell id="WYmIHeGtq4Grt4gA2TI7-166" style="edgeStyle=orthogonalEdgeStyle;rounded=0;orthogonalLoop=1;jettySize=auto;html=1;dashed=1;endArrow=open;endFill=0;" edge="1" parent="1" source="WYmIHeGtq4Grt4gA2TI7-156">
          <mxGeometry relative="1" as="geometry">
            <mxPoint x="1010" y="838" as="targetPoint" />
            <Array as="points">
              <mxPoint x="990" y="160" />
              <mxPoint x="990" y="838" />
            </Array>
          </mxGeometry>
        </mxCell>
        <mxCell id="WYmIHeGtq4Grt4gA2TI7-167" value="&lt;span style=&quot;font-weight: 400;&quot;&gt;LogoutMember_Controller&lt;/span&gt;" style="swimlane;fontStyle=1;align=center;verticalAlign=top;childLayout=stackLayout;horizontal=1;startSize=26;horizontalStack=0;resizeParent=1;resizeParentMax=0;resizeLast=0;collapsible=1;marginBottom=0;whiteSpace=wrap;html=1;" vertex="1" parent="1">
          <mxGeometry x="310" y="-50" width="620" height="106" as="geometry" />
        </mxCell>
        <mxCell id="WYmIHeGtq4Grt4gA2TI7-168" value="" style="line;strokeWidth=1;fillColor=none;align=left;verticalAlign=middle;spacingTop=-1;spacingLeft=3;spacingRight=3;rotatable=0;labelPosition=right;points=[];portConstraint=eastwest;strokeColor=inherit;" vertex="1" parent="WYmIHeGtq4Grt4gA2TI7-167">
          <mxGeometry y="26" width="620" height="8" as="geometry" />
        </mxCell>
        <mxCell id="WYmIHeGtq4Grt4gA2TI7-171" value="# doGet(req : HttpServletRequest , resp : HttpServletResponse) : void&lt;div&gt;&lt;br&gt;&lt;/div&gt;&lt;div&gt;&lt;div&gt;# doPost(request : HttpServletRequest, response : HttpServletResponse) : void&lt;/div&gt;&lt;/div&gt;" style="text;strokeColor=none;fillColor=none;align=left;verticalAlign=top;spacingLeft=4;spacingRight=4;overflow=hidden;rotatable=0;points=[[0,0.5],[1,0.5]];portConstraint=eastwest;whiteSpace=wrap;html=1;" vertex="1" parent="WYmIHeGtq4Grt4gA2TI7-167">
          <mxGeometry y="34" width="620" height="72" as="geometry" />
        </mxCell>
        <mxCell id="WYmIHeGtq4Grt4gA2TI7-172" style="edgeStyle=orthogonalEdgeStyle;rounded=0;orthogonalLoop=1;jettySize=auto;html=1;entryX=0.009;entryY=0.749;entryDx=0;entryDy=0;entryPerimeter=0;dashed=1;endArrow=open;endFill=0;" edge="1" parent="1" source="WYmIHeGtq4Grt4gA2TI7-171" target="WYmIHeGtq4Grt4gA2TI7-141">
          <mxGeometry relative="1" as="geometry">
            <Array as="points">
              <mxPoint x="980" y="20" />
              <mxPoint x="980" y="856" />
            </Array>
          </mxGeometry>
        </mxCell>
        <mxCell id="WYmIHeGtq4Grt4gA2TI7-173" style="edgeStyle=orthogonalEdgeStyle;rounded=0;orthogonalLoop=1;jettySize=auto;html=1;entryX=1;entryY=0.5;entryDx=0;entryDy=0;endArrow=block;endFill=0;" edge="1" parent="1" source="WYmIHeGtq4Grt4gA2TI7-171" target="WYmIHeGtq4Grt4gA2TI7-52">
          <mxGeometry relative="1" as="geometry" />
        </mxCell>
        <mxCell id="WYmIHeGtq4Grt4gA2TI7-169" style="edgeStyle=orthogonalEdgeStyle;rounded=0;orthogonalLoop=1;jettySize=auto;html=1;dashed=1;endArrow=open;endFill=0;entryX=0.5;entryY=0;entryDx=0;entryDy=0;" edge="1" parent="1" source="WYmIHeGtq4Grt4gA2TI7-171" target="WYmIHeGtq4Grt4gA2TI7-25">
          <mxGeometry relative="1" as="geometry">
            <mxPoint x="1110" y="550" as="targetPoint" />
          </mxGeometry>
        </mxCell>
        <mxCell id="WYmIHeGtq4Grt4gA2TI7-170" style="edgeStyle=orthogonalEdgeStyle;rounded=0;orthogonalLoop=1;jettySize=auto;html=1;dashed=1;endArrow=open;endFill=0;" edge="1" parent="1" source="WYmIHeGtq4Grt4gA2TI7-171" target="WYmIHeGtq4Grt4gA2TI7-143">
          <mxGeometry relative="1" as="geometry">
            <mxPoint x="1340" y="550" as="targetPoint" />
          </mxGeometry>
        </mxCell>
        <mxCell id="WYmIHeGtq4Grt4gA2TI7-213" value="DriverManager" style="swimlane;fontStyle=1;align=center;verticalAlign=top;childLayout=stackLayout;horizontal=1;startSize=26;horizontalStack=0;resizeParent=1;resizeParentMax=0;resizeLast=0;collapsible=1;marginBottom=0;whiteSpace=wrap;html=1;" vertex="1" parent="1">
          <mxGeometry x="1080" y="970" width="210" height="60" as="geometry" />
        </mxCell>
        <mxCell id="WYmIHeGtq4Grt4gA2TI7-214" value="" style="line;strokeWidth=1;fillColor=none;align=left;verticalAlign=middle;spacingTop=-1;spacingLeft=3;spacingRight=3;rotatable=0;labelPosition=right;points=[];portConstraint=eastwest;strokeColor=inherit;" vertex="1" parent="WYmIHeGtq4Grt4gA2TI7-213">
          <mxGeometry y="26" width="210" height="8" as="geometry" />
        </mxCell>
        <mxCell id="WYmIHeGtq4Grt4gA2TI7-215" value="+ getConnection() : Connection" style="text;strokeColor=none;fillColor=none;align=left;verticalAlign=top;spacingLeft=4;spacingRight=4;overflow=hidden;rotatable=0;points=[[0,0.5],[1,0.5]];portConstraint=eastwest;whiteSpace=wrap;html=1;" vertex="1" parent="WYmIHeGtq4Grt4gA2TI7-213">
          <mxGeometry y="34" width="210" height="26" as="geometry" />
        </mxCell>
        <mxCell id="WYmIHeGtq4Grt4gA2TI7-218" value="&lt;span style=&quot;font-weight: 400;&quot;&gt;Book_Controller&lt;/span&gt;" style="swimlane;fontStyle=1;align=center;verticalAlign=top;childLayout=stackLayout;horizontal=1;startSize=26;horizontalStack=0;resizeParent=1;resizeParentMax=0;resizeLast=0;collapsible=1;marginBottom=0;whiteSpace=wrap;html=1;" vertex="1" parent="1">
          <mxGeometry x="310" y="1850" width="620" height="106" as="geometry" />
        </mxCell>
        <mxCell id="WYmIHeGtq4Grt4gA2TI7-219" value="" style="line;strokeWidth=1;fillColor=none;align=left;verticalAlign=middle;spacingTop=-1;spacingLeft=3;spacingRight=3;rotatable=0;labelPosition=right;points=[];portConstraint=eastwest;strokeColor=inherit;" vertex="1" parent="WYmIHeGtq4Grt4gA2TI7-218">
          <mxGeometry y="26" width="620" height="8" as="geometry" />
        </mxCell>
        <mxCell id="WYmIHeGtq4Grt4gA2TI7-220" value="# doGet(req : HttpServletRequest , resp : HttpServletResponse) : void&lt;div&gt;&lt;br&gt;&lt;/div&gt;" style="text;strokeColor=none;fillColor=none;align=left;verticalAlign=top;spacingLeft=4;spacingRight=4;overflow=hidden;rotatable=0;points=[[0,0.5],[1,0.5]];portConstraint=eastwest;whiteSpace=wrap;html=1;" vertex="1" parent="WYmIHeGtq4Grt4gA2TI7-218">
          <mxGeometry y="34" width="620" height="72" as="geometry" />
        </mxCell>
        <mxCell id="WYmIHeGtq4Grt4gA2TI7-221" value="&lt;span style=&quot;font-weight: 400;&quot;&gt;AddBook_Controller&lt;/span&gt;" style="swimlane;fontStyle=1;align=center;verticalAlign=top;childLayout=stackLayout;horizontal=1;startSize=26;horizontalStack=0;resizeParent=1;resizeParentMax=0;resizeLast=0;collapsible=1;marginBottom=0;whiteSpace=wrap;html=1;" vertex="1" parent="1">
          <mxGeometry x="310" y="1700" width="620" height="106" as="geometry" />
        </mxCell>
        <mxCell id="WYmIHeGtq4Grt4gA2TI7-222" value="" style="line;strokeWidth=1;fillColor=none;align=left;verticalAlign=middle;spacingTop=-1;spacingLeft=3;spacingRight=3;rotatable=0;labelPosition=right;points=[];portConstraint=eastwest;strokeColor=inherit;" vertex="1" parent="WYmIHeGtq4Grt4gA2TI7-221">
          <mxGeometry y="26" width="620" height="8" as="geometry" />
        </mxCell>
        <mxCell id="WYmIHeGtq4Grt4gA2TI7-223" value="# doGet(req : HttpServletRequest , resp : HttpServletResponse) : void&lt;div&gt;&lt;br&gt;&lt;/div&gt;&lt;div&gt;&lt;div&gt;# doPost(request : HttpServletRequest, response : HttpServletResponse) : void&lt;/div&gt;&lt;/div&gt;" style="text;strokeColor=none;fillColor=none;align=left;verticalAlign=top;spacingLeft=4;spacingRight=4;overflow=hidden;rotatable=0;points=[[0,0.5],[1,0.5]];portConstraint=eastwest;whiteSpace=wrap;html=1;" vertex="1" parent="WYmIHeGtq4Grt4gA2TI7-221">
          <mxGeometry y="34" width="620" height="72" as="geometry" />
        </mxCell>
        <mxCell id="WYmIHeGtq4Grt4gA2TI7-224" value="&lt;span style=&quot;font-weight: 400;&quot;&gt;Books_Controller&lt;/span&gt;" style="swimlane;fontStyle=1;align=center;verticalAlign=top;childLayout=stackLayout;horizontal=1;startSize=26;horizontalStack=0;resizeParent=1;resizeParentMax=0;resizeLast=0;collapsible=1;marginBottom=0;whiteSpace=wrap;html=1;" vertex="1" parent="1">
          <mxGeometry x="310" y="2000" width="620" height="106" as="geometry" />
        </mxCell>
        <mxCell id="WYmIHeGtq4Grt4gA2TI7-225" value="" style="line;strokeWidth=1;fillColor=none;align=left;verticalAlign=middle;spacingTop=-1;spacingLeft=3;spacingRight=3;rotatable=0;labelPosition=right;points=[];portConstraint=eastwest;strokeColor=inherit;" vertex="1" parent="WYmIHeGtq4Grt4gA2TI7-224">
          <mxGeometry y="26" width="620" height="8" as="geometry" />
        </mxCell>
        <mxCell id="WYmIHeGtq4Grt4gA2TI7-226" value="# doGet(req : HttpServletRequest , resp : HttpServletResponse) : void&lt;div&gt;&lt;br&gt;&lt;/div&gt;" style="text;strokeColor=none;fillColor=none;align=left;verticalAlign=top;spacingLeft=4;spacingRight=4;overflow=hidden;rotatable=0;points=[[0,0.5],[1,0.5]];portConstraint=eastwest;whiteSpace=wrap;html=1;" vertex="1" parent="WYmIHeGtq4Grt4gA2TI7-224">
          <mxGeometry y="34" width="620" height="72" as="geometry" />
        </mxCell>
        <mxCell id="WYmIHeGtq4Grt4gA2TI7-227" value="&lt;span style=&quot;font-weight: 400;&quot;&gt;deleteBook_Controller&lt;/span&gt;" style="swimlane;fontStyle=1;align=center;verticalAlign=top;childLayout=stackLayout;horizontal=1;startSize=26;horizontalStack=0;resizeParent=1;resizeParentMax=0;resizeLast=0;collapsible=1;marginBottom=0;whiteSpace=wrap;html=1;" vertex="1" parent="1">
          <mxGeometry x="310" y="2150" width="620" height="106" as="geometry" />
        </mxCell>
        <mxCell id="WYmIHeGtq4Grt4gA2TI7-228" value="" style="line;strokeWidth=1;fillColor=none;align=left;verticalAlign=middle;spacingTop=-1;spacingLeft=3;spacingRight=3;rotatable=0;labelPosition=right;points=[];portConstraint=eastwest;strokeColor=inherit;" vertex="1" parent="WYmIHeGtq4Grt4gA2TI7-227">
          <mxGeometry y="26" width="620" height="8" as="geometry" />
        </mxCell>
        <mxCell id="WYmIHeGtq4Grt4gA2TI7-229" value="# doGet(req : HttpServletRequest , resp : HttpServletResponse) : void&lt;div&gt;&lt;br&gt;&lt;/div&gt;" style="text;strokeColor=none;fillColor=none;align=left;verticalAlign=top;spacingLeft=4;spacingRight=4;overflow=hidden;rotatable=0;points=[[0,0.5],[1,0.5]];portConstraint=eastwest;whiteSpace=wrap;html=1;" vertex="1" parent="WYmIHeGtq4Grt4gA2TI7-227">
          <mxGeometry y="34" width="620" height="72" as="geometry" />
        </mxCell>
        <mxCell id="WYmIHeGtq4Grt4gA2TI7-230" value="&lt;span style=&quot;font-weight: 400;&quot;&gt;editBook_Controller&lt;/span&gt;" style="swimlane;fontStyle=1;align=center;verticalAlign=top;childLayout=stackLayout;horizontal=1;startSize=26;horizontalStack=0;resizeParent=1;resizeParentMax=0;resizeLast=0;collapsible=1;marginBottom=0;whiteSpace=wrap;html=1;" vertex="1" parent="1">
          <mxGeometry x="310" y="2300" width="620" height="106" as="geometry" />
        </mxCell>
        <mxCell id="WYmIHeGtq4Grt4gA2TI7-231" value="" style="line;strokeWidth=1;fillColor=none;align=left;verticalAlign=middle;spacingTop=-1;spacingLeft=3;spacingRight=3;rotatable=0;labelPosition=right;points=[];portConstraint=eastwest;strokeColor=inherit;" vertex="1" parent="WYmIHeGtq4Grt4gA2TI7-230">
          <mxGeometry y="26" width="620" height="8" as="geometry" />
        </mxCell>
        <mxCell id="WYmIHeGtq4Grt4gA2TI7-232" value="# doGet(req : HttpServletRequest , resp : HttpServletResponse) : void&lt;div&gt;&lt;br&gt;&lt;/div&gt;" style="text;strokeColor=none;fillColor=none;align=left;verticalAlign=top;spacingLeft=4;spacingRight=4;overflow=hidden;rotatable=0;points=[[0,0.5],[1,0.5]];portConstraint=eastwest;whiteSpace=wrap;html=1;" vertex="1" parent="WYmIHeGtq4Grt4gA2TI7-230">
          <mxGeometry y="34" width="620" height="72" as="geometry" />
        </mxCell>
        <mxCell id="WYmIHeGtq4Grt4gA2TI7-233" value="&lt;span style=&quot;font-weight: 400;&quot;&gt;updateBook_Controller&lt;/span&gt;" style="swimlane;fontStyle=1;align=center;verticalAlign=top;childLayout=stackLayout;horizontal=1;startSize=26;horizontalStack=0;resizeParent=1;resizeParentMax=0;resizeLast=0;collapsible=1;marginBottom=0;whiteSpace=wrap;html=1;" vertex="1" parent="1">
          <mxGeometry x="310" y="2460" width="620" height="106" as="geometry" />
        </mxCell>
        <mxCell id="WYmIHeGtq4Grt4gA2TI7-234" value="" style="line;strokeWidth=1;fillColor=none;align=left;verticalAlign=middle;spacingTop=-1;spacingLeft=3;spacingRight=3;rotatable=0;labelPosition=right;points=[];portConstraint=eastwest;strokeColor=inherit;" vertex="1" parent="WYmIHeGtq4Grt4gA2TI7-233">
          <mxGeometry y="26" width="620" height="8" as="geometry" />
        </mxCell>
        <mxCell id="WYmIHeGtq4Grt4gA2TI7-235" value="# doGet(req : HttpServletRequest , resp : HttpServletResponse) : void&lt;div&gt;&lt;br&gt;&lt;/div&gt;&lt;div&gt;&lt;div&gt;# doPost(request : HttpServletRequest, response : HttpServletResponse) : void&lt;/div&gt;&lt;/div&gt;" style="text;strokeColor=none;fillColor=none;align=left;verticalAlign=top;spacingLeft=4;spacingRight=4;overflow=hidden;rotatable=0;points=[[0,0.5],[1,0.5]];portConstraint=eastwest;whiteSpace=wrap;html=1;" vertex="1" parent="WYmIHeGtq4Grt4gA2TI7-233">
          <mxGeometry y="34" width="620" height="72" as="geometry" />
        </mxCell>
        <mxCell id="WYmIHeGtq4Grt4gA2TI7-236" value="HttpServlet" style="swimlane;fontStyle=0;childLayout=stackLayout;horizontal=1;startSize=26;fillColor=none;horizontalStack=0;resizeParent=1;resizeParentMax=0;resizeLast=0;collapsible=1;marginBottom=0;whiteSpace=wrap;html=1;" vertex="1" parent="1">
          <mxGeometry x="490" y="1570" width="330" height="78" as="geometry" />
        </mxCell>
        <mxCell id="WYmIHeGtq4Grt4gA2TI7-237" value="doGet(HttpServletRequest, HttpServletResponse)" style="text;strokeColor=none;fillColor=none;align=left;verticalAlign=top;spacingLeft=4;spacingRight=4;overflow=hidden;rotatable=0;points=[[0,0.5],[1,0.5]];portConstraint=eastwest;whiteSpace=wrap;html=1;" vertex="1" parent="WYmIHeGtq4Grt4gA2TI7-236">
          <mxGeometry y="26" width="330" height="26" as="geometry" />
        </mxCell>
        <mxCell id="WYmIHeGtq4Grt4gA2TI7-238" value="doPost(HttpServletRequest, HttpServletResponse)" style="text;strokeColor=none;fillColor=none;align=left;verticalAlign=top;spacingLeft=4;spacingRight=4;overflow=hidden;rotatable=0;points=[[0,0.5],[1,0.5]];portConstraint=eastwest;whiteSpace=wrap;html=1;" vertex="1" parent="WYmIHeGtq4Grt4gA2TI7-236">
          <mxGeometry y="52" width="330" height="26" as="geometry" />
        </mxCell>
        <mxCell id="WYmIHeGtq4Grt4gA2TI7-240" style="edgeStyle=orthogonalEdgeStyle;rounded=0;orthogonalLoop=1;jettySize=auto;html=1;entryX=1;entryY=0.5;entryDx=0;entryDy=0;" edge="1" parent="1" source="WYmIHeGtq4Grt4gA2TI7-220" target="WYmIHeGtq4Grt4gA2TI7-237">
          <mxGeometry relative="1" as="geometry" />
        </mxCell>
        <mxCell id="WYmIHeGtq4Grt4gA2TI7-241" style="edgeStyle=orthogonalEdgeStyle;rounded=0;orthogonalLoop=1;jettySize=auto;html=1;entryX=1;entryY=0.5;entryDx=0;entryDy=0;" edge="1" parent="1" source="WYmIHeGtq4Grt4gA2TI7-226" target="WYmIHeGtq4Grt4gA2TI7-237">
          <mxGeometry relative="1" as="geometry" />
        </mxCell>
        <mxCell id="WYmIHeGtq4Grt4gA2TI7-243" style="edgeStyle=orthogonalEdgeStyle;rounded=0;orthogonalLoop=1;jettySize=auto;html=1;entryX=1;entryY=0.5;entryDx=0;entryDy=0;" edge="1" parent="1" source="WYmIHeGtq4Grt4gA2TI7-229" target="WYmIHeGtq4Grt4gA2TI7-237">
          <mxGeometry relative="1" as="geometry" />
        </mxCell>
        <mxCell id="WYmIHeGtq4Grt4gA2TI7-244" style="edgeStyle=orthogonalEdgeStyle;rounded=0;orthogonalLoop=1;jettySize=auto;html=1;entryX=1;entryY=0.5;entryDx=0;entryDy=0;" edge="1" parent="1" source="WYmIHeGtq4Grt4gA2TI7-232" target="WYmIHeGtq4Grt4gA2TI7-237">
          <mxGeometry relative="1" as="geometry" />
        </mxCell>
        <mxCell id="WYmIHeGtq4Grt4gA2TI7-245" style="edgeStyle=orthogonalEdgeStyle;rounded=0;orthogonalLoop=1;jettySize=auto;html=1;entryX=1;entryY=0.5;entryDx=0;entryDy=0;" edge="1" parent="1" source="WYmIHeGtq4Grt4gA2TI7-235" target="WYmIHeGtq4Grt4gA2TI7-237">
          <mxGeometry relative="1" as="geometry" />
        </mxCell>
        <mxCell id="WYmIHeGtq4Grt4gA2TI7-246" style="edgeStyle=orthogonalEdgeStyle;rounded=0;orthogonalLoop=1;jettySize=auto;html=1;entryX=1;entryY=0.5;entryDx=0;entryDy=0;" edge="1" parent="1" source="WYmIHeGtq4Grt4gA2TI7-223" target="WYmIHeGtq4Grt4gA2TI7-237">
          <mxGeometry relative="1" as="geometry" />
        </mxCell>
        <mxCell id="WYmIHeGtq4Grt4gA2TI7-247" value="Book" style="swimlane;fontStyle=1;align=center;verticalAlign=top;childLayout=stackLayout;horizontal=1;startSize=26;horizontalStack=0;resizeParent=1;resizeParentMax=0;resizeLast=0;collapsible=1;marginBottom=0;whiteSpace=wrap;html=1;" vertex="1" parent="1">
          <mxGeometry x="-220" y="1798" width="270" height="250" as="geometry" />
        </mxCell>
        <mxCell id="WYmIHeGtq4Grt4gA2TI7-248" value="- bookId : String&lt;div&gt;- name : String&lt;/div&gt;&lt;div&gt;- unitPrice : int&lt;/div&gt;&lt;div&gt;- author : String&lt;/div&gt;&lt;div&gt;- description : String&lt;/div&gt;&lt;div&gt;- publisher : String&lt;/div&gt;&lt;div&gt;- category : String&lt;/div&gt;&lt;div&gt;- unitsInStock : long&lt;/div&gt;&lt;div&gt;- releaseDate : String&lt;/div&gt;&lt;div&gt;- condition : String&lt;/div&gt;&lt;div&gt;- filename : String&lt;/div&gt;&lt;div&gt;- quantity : int&lt;/div&gt;" style="text;strokeColor=none;fillColor=none;align=left;verticalAlign=top;spacingLeft=4;spacingRight=4;overflow=hidden;rotatable=0;points=[[0,0.5],[1,0.5]];portConstraint=eastwest;whiteSpace=wrap;html=1;" vertex="1" parent="WYmIHeGtq4Grt4gA2TI7-247">
          <mxGeometry y="26" width="270" height="184" as="geometry" />
        </mxCell>
        <mxCell id="WYmIHeGtq4Grt4gA2TI7-249" value="" style="line;strokeWidth=1;fillColor=none;align=left;verticalAlign=middle;spacingTop=-1;spacingLeft=3;spacingRight=3;rotatable=0;labelPosition=right;points=[];portConstraint=eastwest;strokeColor=inherit;" vertex="1" parent="WYmIHeGtq4Grt4gA2TI7-247">
          <mxGeometry y="210" width="270" height="8" as="geometry" />
        </mxCell>
        <mxCell id="WYmIHeGtq4Grt4gA2TI7-250" value="+ getter/setter 생략" style="text;strokeColor=none;fillColor=none;align=left;verticalAlign=top;spacingLeft=4;spacingRight=4;overflow=hidden;rotatable=0;points=[[0,0.5],[1,0.5]];portConstraint=eastwest;whiteSpace=wrap;html=1;" vertex="1" parent="WYmIHeGtq4Grt4gA2TI7-247">
          <mxGeometry y="218" width="270" height="32" as="geometry" />
        </mxCell>
        <mxCell id="WYmIHeGtq4Grt4gA2TI7-251" value="BookRepository" style="swimlane;fontStyle=1;align=center;verticalAlign=top;childLayout=stackLayout;horizontal=1;startSize=26;horizontalStack=0;resizeParent=1;resizeParentMax=0;resizeLast=0;collapsible=1;marginBottom=0;whiteSpace=wrap;html=1;" vertex="1" parent="1">
          <mxGeometry x="-280" y="2128" width="370" height="210" as="geometry" />
        </mxCell>
        <mxCell id="WYmIHeGtq4Grt4gA2TI7-252" value="&lt;u&gt;- instance : BookRepository&lt;/u&gt;&lt;div&gt;conn : Connection&lt;/div&gt;&lt;div&gt;pstmt ; PreparedStatement&lt;/div&gt;&lt;div&gt;rs : ResultSet&lt;/div&gt;" style="text;strokeColor=none;fillColor=none;align=left;verticalAlign=top;spacingLeft=4;spacingRight=4;overflow=hidden;rotatable=0;points=[[0,0.5],[1,0.5]];portConstraint=eastwest;whiteSpace=wrap;html=1;" vertex="1" parent="WYmIHeGtq4Grt4gA2TI7-251">
          <mxGeometry y="26" width="370" height="74" as="geometry" />
        </mxCell>
        <mxCell id="WYmIHeGtq4Grt4gA2TI7-253" value="" style="line;strokeWidth=1;fillColor=none;align=left;verticalAlign=middle;spacingTop=-1;spacingLeft=3;spacingRight=3;rotatable=0;labelPosition=right;points=[];portConstraint=eastwest;strokeColor=inherit;" vertex="1" parent="WYmIHeGtq4Grt4gA2TI7-251">
          <mxGeometry y="100" width="370" height="8" as="geometry" />
        </mxCell>
        <mxCell id="WYmIHeGtq4Grt4gA2TI7-254" value="&lt;div&gt;&lt;div&gt;&lt;u&gt;+ getInstance() : BookRepository&lt;/u&gt;&lt;/div&gt;&lt;/div&gt;&lt;div&gt;+ getAllBooks() : ArrayList&amp;lt;Book&amp;gt;&lt;br&gt;&lt;/div&gt;&lt;div&gt;+ getBookById(bookId : String) : Book&lt;/div&gt;&lt;div&gt;+ addBook(book : Book) : void&lt;/div&gt;&lt;div&gt;+ update(book : Book) : void&lt;/div&gt;&lt;div&gt;+ delBook(bookId : String) : void&lt;/div&gt;" style="text;strokeColor=none;fillColor=none;align=left;verticalAlign=top;spacingLeft=4;spacingRight=4;overflow=hidden;rotatable=0;points=[[0,0.5],[1,0.5]];portConstraint=eastwest;whiteSpace=wrap;html=1;" vertex="1" parent="WYmIHeGtq4Grt4gA2TI7-251">
          <mxGeometry y="108" width="370" height="102" as="geometry" />
        </mxCell>
        <mxCell id="WYmIHeGtq4Grt4gA2TI7-279" style="edgeStyle=orthogonalEdgeStyle;rounded=0;orthogonalLoop=1;jettySize=auto;html=1;entryX=0.5;entryY=0;entryDx=0;entryDy=0;" edge="1" parent="1" source="WYmIHeGtq4Grt4gA2TI7-255" target="WYmIHeGtq4Grt4gA2TI7-265">
          <mxGeometry relative="1" as="geometry" />
        </mxCell>
        <mxCell id="WYmIHeGtq4Grt4gA2TI7-255" value="HttpServletRequest" style="swimlane;fontStyle=1;align=center;verticalAlign=top;childLayout=stackLayout;horizontal=1;startSize=26;horizontalStack=0;resizeParent=1;resizeParentMax=0;resizeLast=0;collapsible=1;marginBottom=0;whiteSpace=wrap;html=1;" vertex="1" parent="1">
          <mxGeometry x="1220" y="2150" width="210" height="100" as="geometry" />
        </mxCell>
        <mxCell id="WYmIHeGtq4Grt4gA2TI7-256" value="getParameter() : String&amp;nbsp;&lt;div&gt;getParameterValues() : String&lt;/div&gt;&lt;div&gt;setAttribute(String, Object) : void&lt;/div&gt;&lt;div&gt;getServletContext() : ServletContext&lt;/div&gt;" style="text;strokeColor=none;fillColor=none;align=left;verticalAlign=top;spacingLeft=4;spacingRight=4;overflow=hidden;rotatable=0;points=[[0,0.5],[1,0.5]];portConstraint=eastwest;whiteSpace=wrap;html=1;" vertex="1" parent="WYmIHeGtq4Grt4gA2TI7-255">
          <mxGeometry y="26" width="210" height="74" as="geometry" />
        </mxCell>
        <mxCell id="WYmIHeGtq4Grt4gA2TI7-257" value="RequestDispatcher" style="swimlane;fontStyle=1;align=center;verticalAlign=top;childLayout=stackLayout;horizontal=1;startSize=26;horizontalStack=0;resizeParent=1;resizeParentMax=0;resizeLast=0;collapsible=1;marginBottom=0;whiteSpace=wrap;html=1;" vertex="1" parent="1">
          <mxGeometry x="1674" y="2150" width="320" height="70" as="geometry" />
        </mxCell>
        <mxCell id="WYmIHeGtq4Grt4gA2TI7-258" value="forward(HttpServletRequest, HttpServletResponse) : void&lt;div&gt;getRequestDispatcher() : RequestDispatcher&lt;/div&gt;" style="text;strokeColor=none;fillColor=none;align=left;verticalAlign=top;spacingLeft=4;spacingRight=4;overflow=hidden;rotatable=0;points=[[0,0.5],[1,0.5]];portConstraint=eastwest;whiteSpace=wrap;html=1;" vertex="1" parent="WYmIHeGtq4Grt4gA2TI7-257">
          <mxGeometry y="26" width="320" height="44" as="geometry" />
        </mxCell>
        <mxCell id="WYmIHeGtq4Grt4gA2TI7-259" value="HttpServletResponse" style="swimlane;fontStyle=1;align=center;verticalAlign=top;childLayout=stackLayout;horizontal=1;startSize=26;horizontalStack=0;resizeParent=1;resizeParentMax=0;resizeLast=0;collapsible=1;marginBottom=0;whiteSpace=wrap;html=1;" vertex="1" parent="1">
          <mxGeometry x="1451" y="2150" width="200" height="70" as="geometry" />
        </mxCell>
        <mxCell id="WYmIHeGtq4Grt4gA2TI7-260" value="sendRedirect(String) : void" style="text;strokeColor=none;fillColor=none;align=left;verticalAlign=top;spacingLeft=4;spacingRight=4;overflow=hidden;rotatable=0;points=[[0,0.5],[1,0.5]];portConstraint=eastwest;whiteSpace=wrap;html=1;" vertex="1" parent="WYmIHeGtq4Grt4gA2TI7-259">
          <mxGeometry y="26" width="200" height="44" as="geometry" />
        </mxCell>
        <mxCell id="WYmIHeGtq4Grt4gA2TI7-262" style="edgeStyle=orthogonalEdgeStyle;rounded=0;orthogonalLoop=1;jettySize=auto;html=1;entryX=0.5;entryY=0;entryDx=0;entryDy=0;dashed=1;endArrow=open;endFill=0;" edge="1" parent="1" source="WYmIHeGtq4Grt4gA2TI7-223" target="WYmIHeGtq4Grt4gA2TI7-255">
          <mxGeometry relative="1" as="geometry" />
        </mxCell>
        <mxCell id="WYmIHeGtq4Grt4gA2TI7-263" style="edgeStyle=orthogonalEdgeStyle;rounded=0;orthogonalLoop=1;jettySize=auto;html=1;entryX=0.5;entryY=0;entryDx=0;entryDy=0;dashed=1;endArrow=open;endFill=0;" edge="1" parent="1" source="WYmIHeGtq4Grt4gA2TI7-223" target="WYmIHeGtq4Grt4gA2TI7-259">
          <mxGeometry relative="1" as="geometry" />
        </mxCell>
        <mxCell id="WYmIHeGtq4Grt4gA2TI7-264" style="edgeStyle=orthogonalEdgeStyle;rounded=0;orthogonalLoop=1;jettySize=auto;html=1;entryX=0.5;entryY=0;entryDx=0;entryDy=0;dashed=1;endArrow=open;endFill=0;" edge="1" parent="1" source="WYmIHeGtq4Grt4gA2TI7-223" target="WYmIHeGtq4Grt4gA2TI7-257">
          <mxGeometry relative="1" as="geometry" />
        </mxCell>
        <mxCell id="WYmIHeGtq4Grt4gA2TI7-265" value="ServletContext" style="swimlane;fontStyle=1;align=center;verticalAlign=top;childLayout=stackLayout;horizontal=1;startSize=26;horizontalStack=0;resizeParent=1;resizeParentMax=0;resizeLast=0;collapsible=1;marginBottom=0;whiteSpace=wrap;html=1;" vertex="1" parent="1">
          <mxGeometry x="1225" y="2286" width="200" height="80" as="geometry" />
        </mxCell>
        <mxCell id="WYmIHeGtq4Grt4gA2TI7-266" value="getRealPath(String) : String" style="text;strokeColor=none;fillColor=none;align=left;verticalAlign=top;spacingLeft=4;spacingRight=4;overflow=hidden;rotatable=0;points=[[0,0.5],[1,0.5]];portConstraint=eastwest;whiteSpace=wrap;html=1;" vertex="1" parent="WYmIHeGtq4Grt4gA2TI7-265">
          <mxGeometry y="26" width="200" height="54" as="geometry" />
        </mxCell>
        <mxCell id="WYmIHeGtq4Grt4gA2TI7-281" style="edgeStyle=orthogonalEdgeStyle;rounded=0;orthogonalLoop=1;jettySize=auto;html=1;entryX=0.5;entryY=0;entryDx=0;entryDy=0;dashed=1;endArrow=open;endFill=0;" edge="1" parent="1" source="WYmIHeGtq4Grt4gA2TI7-268" target="WYmIHeGtq4Grt4gA2TI7-270">
          <mxGeometry relative="1" as="geometry" />
        </mxCell>
        <mxCell id="WYmIHeGtq4Grt4gA2TI7-268" value="MultipartRequest" style="swimlane;fontStyle=1;align=center;verticalAlign=top;childLayout=stackLayout;horizontal=1;startSize=26;horizontalStack=0;resizeParent=1;resizeParentMax=0;resizeLast=0;collapsible=1;marginBottom=0;whiteSpace=wrap;html=1;" vertex="1" parent="1">
          <mxGeometry x="2020" y="2150" width="200" height="80" as="geometry" />
        </mxCell>
        <mxCell id="WYmIHeGtq4Grt4gA2TI7-282" value="getFilesystemName(String) : String" style="text;strokeColor=none;fillColor=none;align=left;verticalAlign=top;spacingLeft=4;spacingRight=4;overflow=hidden;rotatable=0;points=[[0,0.5],[1,0.5]];portConstraint=eastwest;whiteSpace=wrap;html=1;" vertex="1" parent="WYmIHeGtq4Grt4gA2TI7-268">
          <mxGeometry y="26" width="200" height="54" as="geometry" />
        </mxCell>
        <mxCell id="WYmIHeGtq4Grt4gA2TI7-270" value="DefaultFileRenamePolicy" style="swimlane;fontStyle=1;align=center;verticalAlign=top;childLayout=stackLayout;horizontal=1;startSize=26;horizontalStack=0;resizeParent=1;resizeParentMax=0;resizeLast=0;collapsible=1;marginBottom=0;whiteSpace=wrap;html=1;" vertex="1" parent="1">
          <mxGeometry x="2020" y="2300" width="200" height="80" as="geometry" />
        </mxCell>
        <mxCell id="WYmIHeGtq4Grt4gA2TI7-280" style="edgeStyle=orthogonalEdgeStyle;rounded=0;orthogonalLoop=1;jettySize=auto;html=1;entryX=0.5;entryY=0;entryDx=0;entryDy=0;dashed=1;endArrow=open;endFill=0;" edge="1" parent="1" source="WYmIHeGtq4Grt4gA2TI7-223" target="WYmIHeGtq4Grt4gA2TI7-268">
          <mxGeometry relative="1" as="geometry">
            <mxPoint x="1210" y="1760" as="targetPoint" />
          </mxGeometry>
        </mxCell>
        <mxCell id="WYmIHeGtq4Grt4gA2TI7-283" value="String" style="swimlane;fontStyle=1;align=center;verticalAlign=top;childLayout=stackLayout;horizontal=1;startSize=26;horizontalStack=0;resizeParent=1;resizeParentMax=0;resizeLast=0;collapsible=1;marginBottom=0;whiteSpace=wrap;html=1;" vertex="1" parent="1">
          <mxGeometry x="2260" y="2150" width="200" height="70" as="geometry" />
        </mxCell>
        <mxCell id="WYmIHeGtq4Grt4gA2TI7-284" value="isEmpty() : boolean" style="text;strokeColor=none;fillColor=none;align=left;verticalAlign=top;spacingLeft=4;spacingRight=4;overflow=hidden;rotatable=0;points=[[0,0.5],[1,0.5]];portConstraint=eastwest;whiteSpace=wrap;html=1;" vertex="1" parent="WYmIHeGtq4Grt4gA2TI7-283">
          <mxGeometry y="26" width="200" height="44" as="geometry" />
        </mxCell>
        <mxCell id="WYmIHeGtq4Grt4gA2TI7-285" value="Integer" style="swimlane;fontStyle=1;align=center;verticalAlign=top;childLayout=stackLayout;horizontal=1;startSize=26;horizontalStack=0;resizeParent=1;resizeParentMax=0;resizeLast=0;collapsible=1;marginBottom=0;whiteSpace=wrap;html=1;" vertex="1" parent="1">
          <mxGeometry x="2490" y="2150" width="200" height="70" as="geometry" />
        </mxCell>
        <mxCell id="WYmIHeGtq4Grt4gA2TI7-286" value="valueOf(String) : Integer" style="text;strokeColor=none;fillColor=none;align=left;verticalAlign=top;spacingLeft=4;spacingRight=4;overflow=hidden;rotatable=0;points=[[0,0.5],[1,0.5]];portConstraint=eastwest;whiteSpace=wrap;html=1;" vertex="1" parent="WYmIHeGtq4Grt4gA2TI7-285">
          <mxGeometry y="26" width="200" height="44" as="geometry" />
        </mxCell>
        <mxCell id="WYmIHeGtq4Grt4gA2TI7-287" value="Long" style="swimlane;fontStyle=1;align=center;verticalAlign=top;childLayout=stackLayout;horizontal=1;startSize=26;horizontalStack=0;resizeParent=1;resizeParentMax=0;resizeLast=0;collapsible=1;marginBottom=0;whiteSpace=wrap;html=1;" vertex="1" parent="1">
          <mxGeometry x="2720" y="2150" width="200" height="70" as="geometry" />
        </mxCell>
        <mxCell id="WYmIHeGtq4Grt4gA2TI7-288" value="valueOf(String) : Integer" style="text;strokeColor=none;fillColor=none;align=left;verticalAlign=top;spacingLeft=4;spacingRight=4;overflow=hidden;rotatable=0;points=[[0,0.5],[1,0.5]];portConstraint=eastwest;whiteSpace=wrap;html=1;" vertex="1" parent="WYmIHeGtq4Grt4gA2TI7-287">
          <mxGeometry y="26" width="200" height="44" as="geometry" />
        </mxCell>
        <mxCell id="WYmIHeGtq4Grt4gA2TI7-289" style="edgeStyle=orthogonalEdgeStyle;rounded=0;orthogonalLoop=1;jettySize=auto;html=1;entryX=0.5;entryY=0;entryDx=0;entryDy=0;dashed=1;endArrow=open;endFill=0;" edge="1" parent="1" source="WYmIHeGtq4Grt4gA2TI7-223" target="WYmIHeGtq4Grt4gA2TI7-283">
          <mxGeometry relative="1" as="geometry" />
        </mxCell>
        <mxCell id="WYmIHeGtq4Grt4gA2TI7-290" style="edgeStyle=orthogonalEdgeStyle;rounded=0;orthogonalLoop=1;jettySize=auto;html=1;entryX=0.5;entryY=0;entryDx=0;entryDy=0;dashed=1;endArrow=open;endFill=0;" edge="1" parent="1" source="WYmIHeGtq4Grt4gA2TI7-223" target="WYmIHeGtq4Grt4gA2TI7-285">
          <mxGeometry relative="1" as="geometry" />
        </mxCell>
        <mxCell id="WYmIHeGtq4Grt4gA2TI7-291" style="edgeStyle=orthogonalEdgeStyle;rounded=0;orthogonalLoop=1;jettySize=auto;html=1;entryX=0.5;entryY=0;entryDx=0;entryDy=0;dashed=1;endArrow=open;endFill=0;" edge="1" parent="1" source="WYmIHeGtq4Grt4gA2TI7-223" target="WYmIHeGtq4Grt4gA2TI7-287">
          <mxGeometry relative="1" as="geometry" />
        </mxCell>
        <mxCell id="WYmIHeGtq4Grt4gA2TI7-293" style="edgeStyle=orthogonalEdgeStyle;rounded=0;orthogonalLoop=1;jettySize=auto;html=1;entryX=1.008;entryY=0.075;entryDx=0;entryDy=0;dashed=1;endArrow=open;endFill=0;entryPerimeter=0;" edge="1" parent="1" source="WYmIHeGtq4Grt4gA2TI7-223" target="WYmIHeGtq4Grt4gA2TI7-248">
          <mxGeometry relative="1" as="geometry" />
        </mxCell>
        <mxCell id="WYmIHeGtq4Grt4gA2TI7-294" style="edgeStyle=orthogonalEdgeStyle;rounded=0;orthogonalLoop=1;jettySize=auto;html=1;entryX=1;entryY=0.209;entryDx=0;entryDy=0;dashed=1;endArrow=open;endFill=0;entryPerimeter=0;" edge="1" parent="1" source="WYmIHeGtq4Grt4gA2TI7-223" target="WYmIHeGtq4Grt4gA2TI7-252">
          <mxGeometry relative="1" as="geometry" />
        </mxCell>
        <mxCell id="WYmIHeGtq4Grt4gA2TI7-295" style="edgeStyle=orthogonalEdgeStyle;rounded=0;orthogonalLoop=1;jettySize=auto;html=1;entryX=0.5;entryY=0;entryDx=0;entryDy=0;dashed=1;endArrow=open;endFill=0;" edge="1" parent="1" source="WYmIHeGtq4Grt4gA2TI7-220" target="WYmIHeGtq4Grt4gA2TI7-255">
          <mxGeometry relative="1" as="geometry">
            <mxPoint x="1230" y="1920" as="targetPoint" />
          </mxGeometry>
        </mxCell>
        <mxCell id="WYmIHeGtq4Grt4gA2TI7-296" style="edgeStyle=orthogonalEdgeStyle;rounded=0;orthogonalLoop=1;jettySize=auto;html=1;entryX=0.5;entryY=0;entryDx=0;entryDy=0;dashed=1;endArrow=open;endFill=0;" edge="1" parent="1" source="WYmIHeGtq4Grt4gA2TI7-220" target="WYmIHeGtq4Grt4gA2TI7-259">
          <mxGeometry relative="1" as="geometry" />
        </mxCell>
        <mxCell id="WYmIHeGtq4Grt4gA2TI7-297" style="edgeStyle=orthogonalEdgeStyle;rounded=0;orthogonalLoop=1;jettySize=auto;html=1;entryX=0.5;entryY=0;entryDx=0;entryDy=0;dashed=1;endArrow=open;endFill=0;" edge="1" parent="1" source="WYmIHeGtq4Grt4gA2TI7-220" target="WYmIHeGtq4Grt4gA2TI7-257">
          <mxGeometry relative="1" as="geometry" />
        </mxCell>
        <mxCell id="WYmIHeGtq4Grt4gA2TI7-298" style="edgeStyle=orthogonalEdgeStyle;rounded=0;orthogonalLoop=1;jettySize=auto;html=1;entryX=1;entryY=0.25;entryDx=0;entryDy=0;dashed=1;endArrow=open;endFill=0;" edge="1" parent="1" source="WYmIHeGtq4Grt4gA2TI7-220" target="WYmIHeGtq4Grt4gA2TI7-247">
          <mxGeometry relative="1" as="geometry" />
        </mxCell>
        <mxCell id="WYmIHeGtq4Grt4gA2TI7-300" style="edgeStyle=orthogonalEdgeStyle;rounded=0;orthogonalLoop=1;jettySize=auto;html=1;entryX=1;entryY=0.443;entryDx=0;entryDy=0;dashed=1;endArrow=open;endFill=0;entryPerimeter=0;" edge="1" parent="1" source="WYmIHeGtq4Grt4gA2TI7-220" target="WYmIHeGtq4Grt4gA2TI7-252">
          <mxGeometry relative="1" as="geometry">
            <Array as="points">
              <mxPoint x="220" y="1920" />
              <mxPoint x="220" y="2187" />
            </Array>
          </mxGeometry>
        </mxCell>
        <mxCell id="WYmIHeGtq4Grt4gA2TI7-301" value="DBConnection" style="swimlane;fontStyle=1;align=center;verticalAlign=top;childLayout=stackLayout;horizontal=1;startSize=26;horizontalStack=0;resizeParent=1;resizeParentMax=0;resizeLast=0;collapsible=1;marginBottom=0;whiteSpace=wrap;html=1;" vertex="1" parent="1">
          <mxGeometry x="310" y="2620" width="210" height="60" as="geometry" />
        </mxCell>
        <mxCell id="WYmIHeGtq4Grt4gA2TI7-302" value="" style="line;strokeWidth=1;fillColor=none;align=left;verticalAlign=middle;spacingTop=-1;spacingLeft=3;spacingRight=3;rotatable=0;labelPosition=right;points=[];portConstraint=eastwest;strokeColor=inherit;" vertex="1" parent="WYmIHeGtq4Grt4gA2TI7-301">
          <mxGeometry y="26" width="210" height="8" as="geometry" />
        </mxCell>
        <mxCell id="WYmIHeGtq4Grt4gA2TI7-303" value="+ getConnection() : Connection" style="text;strokeColor=none;fillColor=none;align=left;verticalAlign=top;spacingLeft=4;spacingRight=4;overflow=hidden;rotatable=0;points=[[0,0.5],[1,0.5]];portConstraint=eastwest;whiteSpace=wrap;html=1;" vertex="1" parent="WYmIHeGtq4Grt4gA2TI7-301">
          <mxGeometry y="34" width="210" height="26" as="geometry" />
        </mxCell>
        <mxCell id="WYmIHeGtq4Grt4gA2TI7-304" value="PreparedStatement" style="swimlane;fontStyle=1;align=center;verticalAlign=top;childLayout=stackLayout;horizontal=1;startSize=26;horizontalStack=0;resizeParent=1;resizeParentMax=0;resizeLast=0;collapsible=1;marginBottom=0;whiteSpace=wrap;html=1;" vertex="1" parent="1">
          <mxGeometry x="310" y="2819" width="250" height="120" as="geometry" />
        </mxCell>
        <mxCell id="WYmIHeGtq4Grt4gA2TI7-305" value="" style="line;strokeWidth=1;fillColor=none;align=left;verticalAlign=middle;spacingTop=-1;spacingLeft=3;spacingRight=3;rotatable=0;labelPosition=right;points=[];portConstraint=eastwest;strokeColor=inherit;" vertex="1" parent="WYmIHeGtq4Grt4gA2TI7-304">
          <mxGeometry y="26" width="250" height="8" as="geometry" />
        </mxCell>
        <mxCell id="WYmIHeGtq4Grt4gA2TI7-306" value="setString(int,String) : void&lt;div&gt;setInt(int, int) ; void&lt;/div&gt;&lt;div&gt;setLong(int, long) : void&lt;/div&gt;&lt;div&gt;executeUpdate() : int(void)&lt;/div&gt;&lt;div&gt;executeQuery() : ResultSet&lt;/div&gt;" style="text;strokeColor=none;fillColor=none;align=left;verticalAlign=top;spacingLeft=4;spacingRight=4;overflow=hidden;rotatable=0;points=[[0,0.5],[1,0.5]];portConstraint=eastwest;whiteSpace=wrap;html=1;" vertex="1" parent="WYmIHeGtq4Grt4gA2TI7-304">
          <mxGeometry y="34" width="250" height="86" as="geometry" />
        </mxCell>
        <mxCell id="WYmIHeGtq4Grt4gA2TI7-307" value="ResultSet" style="swimlane;fontStyle=1;align=center;verticalAlign=top;childLayout=stackLayout;horizontal=1;startSize=26;horizontalStack=0;resizeParent=1;resizeParentMax=0;resizeLast=0;collapsible=1;marginBottom=0;whiteSpace=wrap;html=1;" vertex="1" parent="1">
          <mxGeometry x="310" y="2950" width="220" height="104" as="geometry" />
        </mxCell>
        <mxCell id="WYmIHeGtq4Grt4gA2TI7-308" value="" style="line;strokeWidth=1;fillColor=none;align=left;verticalAlign=middle;spacingTop=-1;spacingLeft=3;spacingRight=3;rotatable=0;labelPosition=right;points=[];portConstraint=eastwest;strokeColor=inherit;" vertex="1" parent="WYmIHeGtq4Grt4gA2TI7-307">
          <mxGeometry y="26" width="220" height="8" as="geometry" />
        </mxCell>
        <mxCell id="WYmIHeGtq4Grt4gA2TI7-309" value="&lt;div&gt;next() : boolean&lt;/div&gt;getString(int) : String&lt;div&gt;getInt(int) : int&lt;br&gt;&lt;div&gt;getTimeStampe(int) : Timestamp&lt;/div&gt;&lt;/div&gt;" style="text;strokeColor=none;fillColor=none;align=left;verticalAlign=top;spacingLeft=4;spacingRight=4;overflow=hidden;rotatable=0;points=[[0,0.5],[1,0.5]];portConstraint=eastwest;whiteSpace=wrap;html=1;" vertex="1" parent="WYmIHeGtq4Grt4gA2TI7-307">
          <mxGeometry y="34" width="220" height="70" as="geometry" />
        </mxCell>
        <mxCell id="WYmIHeGtq4Grt4gA2TI7-310" value="Connection" style="swimlane;fontStyle=1;align=center;verticalAlign=top;childLayout=stackLayout;horizontal=1;startSize=26;horizontalStack=0;resizeParent=1;resizeParentMax=0;resizeLast=0;collapsible=1;marginBottom=0;whiteSpace=wrap;html=1;" vertex="1" parent="1">
          <mxGeometry x="310" y="2720" width="260" height="60" as="geometry" />
        </mxCell>
        <mxCell id="WYmIHeGtq4Grt4gA2TI7-311" value="" style="line;strokeWidth=1;fillColor=none;align=left;verticalAlign=middle;spacingTop=-1;spacingLeft=3;spacingRight=3;rotatable=0;labelPosition=right;points=[];portConstraint=eastwest;strokeColor=inherit;" vertex="1" parent="WYmIHeGtq4Grt4gA2TI7-310">
          <mxGeometry y="26" width="260" height="8" as="geometry" />
        </mxCell>
        <mxCell id="WYmIHeGtq4Grt4gA2TI7-312" value="prepareStatement(String) : PrepareStatement" style="text;strokeColor=none;fillColor=none;align=left;verticalAlign=top;spacingLeft=4;spacingRight=4;overflow=hidden;rotatable=0;points=[[0,0.5],[1,0.5]];portConstraint=eastwest;whiteSpace=wrap;html=1;" vertex="1" parent="WYmIHeGtq4Grt4gA2TI7-310">
          <mxGeometry y="34" width="260" height="26" as="geometry" />
        </mxCell>
        <mxCell id="WYmIHeGtq4Grt4gA2TI7-313" value="DriverManager" style="swimlane;fontStyle=1;align=center;verticalAlign=top;childLayout=stackLayout;horizontal=1;startSize=26;horizontalStack=0;resizeParent=1;resizeParentMax=0;resizeLast=0;collapsible=1;marginBottom=0;whiteSpace=wrap;html=1;" vertex="1" parent="1">
          <mxGeometry x="580" y="2620" width="210" height="60" as="geometry" />
        </mxCell>
        <mxCell id="WYmIHeGtq4Grt4gA2TI7-314" value="" style="line;strokeWidth=1;fillColor=none;align=left;verticalAlign=middle;spacingTop=-1;spacingLeft=3;spacingRight=3;rotatable=0;labelPosition=right;points=[];portConstraint=eastwest;strokeColor=inherit;" vertex="1" parent="WYmIHeGtq4Grt4gA2TI7-313">
          <mxGeometry y="26" width="210" height="8" as="geometry" />
        </mxCell>
        <mxCell id="WYmIHeGtq4Grt4gA2TI7-315" value="+ getConnection() : Connection" style="text;strokeColor=none;fillColor=none;align=left;verticalAlign=top;spacingLeft=4;spacingRight=4;overflow=hidden;rotatable=0;points=[[0,0.5],[1,0.5]];portConstraint=eastwest;whiteSpace=wrap;html=1;" vertex="1" parent="WYmIHeGtq4Grt4gA2TI7-313">
          <mxGeometry y="34" width="210" height="26" as="geometry" />
        </mxCell>
        <mxCell id="WYmIHeGtq4Grt4gA2TI7-318" style="edgeStyle=orthogonalEdgeStyle;rounded=0;orthogonalLoop=1;jettySize=auto;html=1;dashed=1;endArrow=open;endFill=0;" edge="1" parent="1" source="WYmIHeGtq4Grt4gA2TI7-301">
          <mxGeometry relative="1" as="geometry">
            <mxPoint x="580" y="2650" as="targetPoint" />
          </mxGeometry>
        </mxCell>
        <mxCell id="WYmIHeGtq4Grt4gA2TI7-321" style="edgeStyle=orthogonalEdgeStyle;rounded=0;orthogonalLoop=1;jettySize=auto;html=1;entryX=0;entryY=0.5;entryDx=0;entryDy=0;dashed=1;endArrow=open;endFill=0;" edge="1" parent="1" source="WYmIHeGtq4Grt4gA2TI7-254" target="WYmIHeGtq4Grt4gA2TI7-303">
          <mxGeometry relative="1" as="geometry" />
        </mxCell>
        <mxCell id="WYmIHeGtq4Grt4gA2TI7-322" style="edgeStyle=orthogonalEdgeStyle;rounded=0;orthogonalLoop=1;jettySize=auto;html=1;entryX=0;entryY=0.5;entryDx=0;entryDy=0;dashed=1;endArrow=open;endFill=0;" edge="1" parent="1" source="WYmIHeGtq4Grt4gA2TI7-254" target="WYmIHeGtq4Grt4gA2TI7-312">
          <mxGeometry relative="1" as="geometry" />
        </mxCell>
        <mxCell id="WYmIHeGtq4Grt4gA2TI7-323" style="edgeStyle=orthogonalEdgeStyle;rounded=0;orthogonalLoop=1;jettySize=auto;html=1;entryX=0;entryY=0.5;entryDx=0;entryDy=0;dashed=1;endArrow=open;endFill=0;" edge="1" parent="1" source="WYmIHeGtq4Grt4gA2TI7-254" target="WYmIHeGtq4Grt4gA2TI7-306">
          <mxGeometry relative="1" as="geometry" />
        </mxCell>
        <mxCell id="WYmIHeGtq4Grt4gA2TI7-324" style="edgeStyle=orthogonalEdgeStyle;rounded=0;orthogonalLoop=1;jettySize=auto;html=1;entryX=0;entryY=0.5;entryDx=0;entryDy=0;dashed=1;endArrow=open;endFill=0;" edge="1" parent="1" source="WYmIHeGtq4Grt4gA2TI7-254" target="WYmIHeGtq4Grt4gA2TI7-309">
          <mxGeometry relative="1" as="geometry" />
        </mxCell>
        <mxCell id="WYmIHeGtq4Grt4gA2TI7-325" value="ArrayList&amp;lt;Book&amp;gt;" style="swimlane;fontStyle=1;align=center;verticalAlign=top;childLayout=stackLayout;horizontal=1;startSize=26;horizontalStack=0;resizeParent=1;resizeParentMax=0;resizeLast=0;collapsible=1;marginBottom=0;whiteSpace=wrap;html=1;" vertex="1" parent="1">
          <mxGeometry x="-280" y="2406" width="200" height="80" as="geometry" />
        </mxCell>
        <mxCell id="WYmIHeGtq4Grt4gA2TI7-328" value="add(e Book) : void&lt;div&gt;size() : int&lt;/div&gt;" style="text;strokeColor=none;fillColor=none;align=left;verticalAlign=top;spacingLeft=4;spacingRight=4;overflow=hidden;rotatable=0;points=[[0,0.5],[1,0.5]];portConstraint=eastwest;whiteSpace=wrap;html=1;" vertex="1" parent="WYmIHeGtq4Grt4gA2TI7-325">
          <mxGeometry y="26" width="200" height="54" as="geometry" />
        </mxCell>
        <mxCell id="WYmIHeGtq4Grt4gA2TI7-326" style="edgeStyle=orthogonalEdgeStyle;rounded=0;orthogonalLoop=1;jettySize=auto;html=1;entryX=0;entryY=0.75;entryDx=0;entryDy=0;dashed=1;endArrow=open;endFill=0;" edge="1" parent="1" source="WYmIHeGtq4Grt4gA2TI7-254" target="WYmIHeGtq4Grt4gA2TI7-325">
          <mxGeometry relative="1" as="geometry" />
        </mxCell>
        <mxCell id="WYmIHeGtq4Grt4gA2TI7-329" style="edgeStyle=orthogonalEdgeStyle;rounded=0;orthogonalLoop=1;jettySize=auto;html=1;entryX=1;entryY=0.5;entryDx=0;entryDy=0;dashed=1;endArrow=open;endFill=0;" edge="1" parent="1" source="WYmIHeGtq4Grt4gA2TI7-226" target="WYmIHeGtq4Grt4gA2TI7-328">
          <mxGeometry relative="1" as="geometry" />
        </mxCell>
        <mxCell id="WYmIHeGtq4Grt4gA2TI7-330" style="edgeStyle=orthogonalEdgeStyle;rounded=0;orthogonalLoop=1;jettySize=auto;html=1;entryX=1.008;entryY=0.625;entryDx=0;entryDy=0;entryPerimeter=0;dashed=1;endArrow=open;endFill=0;" edge="1" parent="1" source="WYmIHeGtq4Grt4gA2TI7-226" target="WYmIHeGtq4Grt4gA2TI7-248">
          <mxGeometry relative="1" as="geometry" />
        </mxCell>
        <mxCell id="WYmIHeGtq4Grt4gA2TI7-331" style="edgeStyle=orthogonalEdgeStyle;rounded=0;orthogonalLoop=1;jettySize=auto;html=1;entryX=1;entryY=0.777;entryDx=0;entryDy=0;entryPerimeter=0;dashed=1;endArrow=open;endFill=0;" edge="1" parent="1" source="WYmIHeGtq4Grt4gA2TI7-226" target="WYmIHeGtq4Grt4gA2TI7-252">
          <mxGeometry relative="1" as="geometry" />
        </mxCell>
        <mxCell id="WYmIHeGtq4Grt4gA2TI7-332" style="edgeStyle=orthogonalEdgeStyle;rounded=0;orthogonalLoop=1;jettySize=auto;html=1;entryX=0.5;entryY=0;entryDx=0;entryDy=0;dashed=1;endArrow=open;endFill=0;" edge="1" parent="1" source="WYmIHeGtq4Grt4gA2TI7-226" target="WYmIHeGtq4Grt4gA2TI7-255">
          <mxGeometry relative="1" as="geometry" />
        </mxCell>
        <mxCell id="WYmIHeGtq4Grt4gA2TI7-333" style="edgeStyle=orthogonalEdgeStyle;rounded=0;orthogonalLoop=1;jettySize=auto;html=1;entryX=0.5;entryY=0;entryDx=0;entryDy=0;dashed=1;endArrow=open;endFill=0;" edge="1" parent="1" source="WYmIHeGtq4Grt4gA2TI7-226" target="WYmIHeGtq4Grt4gA2TI7-259">
          <mxGeometry relative="1" as="geometry" />
        </mxCell>
        <mxCell id="WYmIHeGtq4Grt4gA2TI7-334" style="edgeStyle=orthogonalEdgeStyle;rounded=0;orthogonalLoop=1;jettySize=auto;html=1;entryX=0.5;entryY=0;entryDx=0;entryDy=0;dashed=1;endArrow=open;endFill=0;" edge="1" parent="1" source="WYmIHeGtq4Grt4gA2TI7-226" target="WYmIHeGtq4Grt4gA2TI7-257">
          <mxGeometry relative="1" as="geometry" />
        </mxCell>
        <mxCell id="WYmIHeGtq4Grt4gA2TI7-335" style="edgeStyle=orthogonalEdgeStyle;rounded=0;orthogonalLoop=1;jettySize=auto;html=1;entryX=0.5;entryY=0;entryDx=0;entryDy=0;dashed=1;endArrow=open;endFill=0;" edge="1" parent="1" source="WYmIHeGtq4Grt4gA2TI7-229" target="WYmIHeGtq4Grt4gA2TI7-255">
          <mxGeometry relative="1" as="geometry" />
        </mxCell>
        <mxCell id="WYmIHeGtq4Grt4gA2TI7-336" style="edgeStyle=orthogonalEdgeStyle;rounded=0;orthogonalLoop=1;jettySize=auto;html=1;entryX=0.5;entryY=0;entryDx=0;entryDy=0;dashed=1;endArrow=open;endFill=0;" edge="1" parent="1" source="WYmIHeGtq4Grt4gA2TI7-229" target="WYmIHeGtq4Grt4gA2TI7-259">
          <mxGeometry relative="1" as="geometry" />
        </mxCell>
        <mxCell id="WYmIHeGtq4Grt4gA2TI7-337" style="edgeStyle=orthogonalEdgeStyle;rounded=0;orthogonalLoop=1;jettySize=auto;html=1;entryX=0.5;entryY=0;entryDx=0;entryDy=0;dashed=1;endArrow=open;endFill=0;" edge="1" parent="1" source="WYmIHeGtq4Grt4gA2TI7-229" target="WYmIHeGtq4Grt4gA2TI7-257">
          <mxGeometry relative="1" as="geometry" />
        </mxCell>
        <mxCell id="WYmIHeGtq4Grt4gA2TI7-338" style="edgeStyle=orthogonalEdgeStyle;rounded=0;orthogonalLoop=1;jettySize=auto;html=1;entryX=1.01;entryY=0.096;entryDx=0;entryDy=0;entryPerimeter=0;dashed=1;endArrow=open;endFill=0;" edge="1" parent="1" source="WYmIHeGtq4Grt4gA2TI7-229" target="WYmIHeGtq4Grt4gA2TI7-254">
          <mxGeometry relative="1" as="geometry" />
        </mxCell>
        <mxCell id="WYmIHeGtq4Grt4gA2TI7-339" style="edgeStyle=orthogonalEdgeStyle;rounded=0;orthogonalLoop=1;jettySize=auto;html=1;entryX=0.002;entryY=0.826;entryDx=0;entryDy=0;entryPerimeter=0;dashed=1;endArrow=open;endFill=0;" edge="1" parent="1" source="WYmIHeGtq4Grt4gA2TI7-232" target="WYmIHeGtq4Grt4gA2TI7-256">
          <mxGeometry relative="1" as="geometry" />
        </mxCell>
        <mxCell id="WYmIHeGtq4Grt4gA2TI7-341" style="edgeStyle=orthogonalEdgeStyle;rounded=0;orthogonalLoop=1;jettySize=auto;html=1;entryX=0.509;entryY=1.016;entryDx=0;entryDy=0;entryPerimeter=0;dashed=1;endArrow=open;endFill=0;" edge="1" parent="1" source="WYmIHeGtq4Grt4gA2TI7-232" target="WYmIHeGtq4Grt4gA2TI7-260">
          <mxGeometry relative="1" as="geometry" />
        </mxCell>
        <mxCell id="WYmIHeGtq4Grt4gA2TI7-342" style="edgeStyle=orthogonalEdgeStyle;rounded=0;orthogonalLoop=1;jettySize=auto;html=1;dashed=1;endArrow=open;endFill=0;" edge="1" parent="1" source="WYmIHeGtq4Grt4gA2TI7-232" target="WYmIHeGtq4Grt4gA2TI7-257">
          <mxGeometry relative="1" as="geometry" />
        </mxCell>
        <mxCell id="WYmIHeGtq4Grt4gA2TI7-343" style="edgeStyle=orthogonalEdgeStyle;rounded=0;orthogonalLoop=1;jettySize=auto;html=1;dashed=1;endArrow=open;endFill=0;" edge="1" parent="1" source="WYmIHeGtq4Grt4gA2TI7-232" target="WYmIHeGtq4Grt4gA2TI7-328">
          <mxGeometry relative="1" as="geometry" />
        </mxCell>
        <mxCell id="WYmIHeGtq4Grt4gA2TI7-344" style="edgeStyle=orthogonalEdgeStyle;rounded=0;orthogonalLoop=1;jettySize=auto;html=1;entryX=1.01;entryY=0.829;entryDx=0;entryDy=0;entryPerimeter=0;dashed=1;endArrow=open;endFill=0;" edge="1" parent="1" source="WYmIHeGtq4Grt4gA2TI7-232" target="WYmIHeGtq4Grt4gA2TI7-248">
          <mxGeometry relative="1" as="geometry" />
        </mxCell>
        <mxCell id="WYmIHeGtq4Grt4gA2TI7-346" style="edgeStyle=orthogonalEdgeStyle;rounded=0;orthogonalLoop=1;jettySize=auto;html=1;entryX=0.19;entryY=1.001;entryDx=0;entryDy=0;entryPerimeter=0;dashed=1;endArrow=open;endFill=0;" edge="1" parent="1" source="WYmIHeGtq4Grt4gA2TI7-235" target="WYmIHeGtq4Grt4gA2TI7-256">
          <mxGeometry relative="1" as="geometry">
            <mxPoint x="1260" y="2260" as="targetPoint" />
          </mxGeometry>
        </mxCell>
        <mxCell id="WYmIHeGtq4Grt4gA2TI7-347" style="edgeStyle=orthogonalEdgeStyle;rounded=0;orthogonalLoop=1;jettySize=auto;html=1;entryX=0.346;entryY=1.005;entryDx=0;entryDy=0;entryPerimeter=0;dashed=1;endArrow=open;endFill=0;" edge="1" parent="1" source="WYmIHeGtq4Grt4gA2TI7-235" target="WYmIHeGtq4Grt4gA2TI7-260">
          <mxGeometry relative="1" as="geometry" />
        </mxCell>
        <mxCell id="WYmIHeGtq4Grt4gA2TI7-348" style="edgeStyle=orthogonalEdgeStyle;rounded=0;orthogonalLoop=1;jettySize=auto;html=1;entryX=0.386;entryY=0.988;entryDx=0;entryDy=0;entryPerimeter=0;dashed=1;endArrow=open;endFill=0;" edge="1" parent="1" source="WYmIHeGtq4Grt4gA2TI7-235" target="WYmIHeGtq4Grt4gA2TI7-258">
          <mxGeometry relative="1" as="geometry" />
        </mxCell>
        <mxCell id="WYmIHeGtq4Grt4gA2TI7-349" style="edgeStyle=orthogonalEdgeStyle;rounded=0;orthogonalLoop=1;jettySize=auto;html=1;entryX=0.303;entryY=1.017;entryDx=0;entryDy=0;entryPerimeter=0;dashed=1;endArrow=open;endFill=0;" edge="1" parent="1" source="WYmIHeGtq4Grt4gA2TI7-235" target="WYmIHeGtq4Grt4gA2TI7-282">
          <mxGeometry relative="1" as="geometry" />
        </mxCell>
        <mxCell id="WYmIHeGtq4Grt4gA2TI7-350" style="edgeStyle=orthogonalEdgeStyle;rounded=0;orthogonalLoop=1;jettySize=auto;html=1;entryX=0.546;entryY=1.005;entryDx=0;entryDy=0;entryPerimeter=0;dashed=1;endArrow=open;endFill=0;" edge="1" parent="1" source="WYmIHeGtq4Grt4gA2TI7-235" target="WYmIHeGtq4Grt4gA2TI7-284">
          <mxGeometry relative="1" as="geometry">
            <mxPoint x="2389.999999999999" y="2330" as="targetPoint" />
          </mxGeometry>
        </mxCell>
        <mxCell id="WYmIHeGtq4Grt4gA2TI7-351" style="edgeStyle=orthogonalEdgeStyle;rounded=0;orthogonalLoop=1;jettySize=auto;html=1;entryX=0.63;entryY=1.018;entryDx=0;entryDy=0;entryPerimeter=0;dashed=1;endArrow=open;endFill=0;" edge="1" parent="1" source="WYmIHeGtq4Grt4gA2TI7-235" target="WYmIHeGtq4Grt4gA2TI7-286">
          <mxGeometry relative="1" as="geometry" />
        </mxCell>
        <mxCell id="WYmIHeGtq4Grt4gA2TI7-352" style="edgeStyle=orthogonalEdgeStyle;rounded=0;orthogonalLoop=1;jettySize=auto;html=1;entryX=0.65;entryY=1.018;entryDx=0;entryDy=0;entryPerimeter=0;dashed=1;endArrow=open;endFill=0;" edge="1" parent="1" source="WYmIHeGtq4Grt4gA2TI7-235" target="WYmIHeGtq4Grt4gA2TI7-288">
          <mxGeometry relative="1" as="geometry" />
        </mxCell>
        <mxCell id="WYmIHeGtq4Grt4gA2TI7-353" value="Board" style="swimlane;fontStyle=1;align=center;verticalAlign=top;childLayout=stackLayout;horizontal=1;startSize=26;horizontalStack=0;resizeParent=1;resizeParentMax=0;resizeLast=0;collapsible=1;marginBottom=0;whiteSpace=wrap;html=1;" vertex="1" parent="1">
          <mxGeometry x="-250" y="3270" width="270" height="210" as="geometry" />
        </mxCell>
        <mxCell id="WYmIHeGtq4Grt4gA2TI7-354" value="- num : int&lt;div&gt;- id : String&lt;/div&gt;&lt;div&gt;- name : String&lt;/div&gt;&lt;div&gt;- subject : String&lt;/div&gt;&lt;div&gt;- content : String&lt;/div&gt;&lt;div&gt;- regist_day : String&lt;/div&gt;&lt;div&gt;- hit : int&lt;/div&gt;&lt;div&gt;- ip : String&lt;/div&gt;" style="text;strokeColor=none;fillColor=none;align=left;verticalAlign=top;spacingLeft=4;spacingRight=4;overflow=hidden;rotatable=0;points=[[0,0.5],[1,0.5]];portConstraint=eastwest;whiteSpace=wrap;html=1;" vertex="1" parent="WYmIHeGtq4Grt4gA2TI7-353">
          <mxGeometry y="26" width="270" height="144" as="geometry" />
        </mxCell>
        <mxCell id="WYmIHeGtq4Grt4gA2TI7-355" value="" style="line;strokeWidth=1;fillColor=none;align=left;verticalAlign=middle;spacingTop=-1;spacingLeft=3;spacingRight=3;rotatable=0;labelPosition=right;points=[];portConstraint=eastwest;strokeColor=inherit;" vertex="1" parent="WYmIHeGtq4Grt4gA2TI7-353">
          <mxGeometry y="170" width="270" height="8" as="geometry" />
        </mxCell>
        <mxCell id="WYmIHeGtq4Grt4gA2TI7-356" value="+ getter/setter 생략" style="text;strokeColor=none;fillColor=none;align=left;verticalAlign=top;spacingLeft=4;spacingRight=4;overflow=hidden;rotatable=0;points=[[0,0.5],[1,0.5]];portConstraint=eastwest;whiteSpace=wrap;html=1;" vertex="1" parent="WYmIHeGtq4Grt4gA2TI7-353">
          <mxGeometry y="178" width="270" height="32" as="geometry" />
        </mxCell>
        <mxCell id="WYmIHeGtq4Grt4gA2TI7-357" value="&lt;span style=&quot;font-weight: 400;&quot;&gt;AddBoard_Controller&lt;/span&gt;" style="swimlane;fontStyle=1;align=center;verticalAlign=top;childLayout=stackLayout;horizontal=1;startSize=26;horizontalStack=0;resizeParent=1;resizeParentMax=0;resizeLast=0;collapsible=1;marginBottom=0;whiteSpace=wrap;html=1;" vertex="1" parent="1">
          <mxGeometry x="310" y="3250" width="620" height="106" as="geometry" />
        </mxCell>
        <mxCell id="WYmIHeGtq4Grt4gA2TI7-358" value="" style="line;strokeWidth=1;fillColor=none;align=left;verticalAlign=middle;spacingTop=-1;spacingLeft=3;spacingRight=3;rotatable=0;labelPosition=right;points=[];portConstraint=eastwest;strokeColor=inherit;" vertex="1" parent="WYmIHeGtq4Grt4gA2TI7-357">
          <mxGeometry y="26" width="620" height="8" as="geometry" />
        </mxCell>
        <mxCell id="WYmIHeGtq4Grt4gA2TI7-359" value="# doGet(req : HttpServletRequest , resp : HttpServletResponse) : void&lt;div&gt;&lt;br&gt;&lt;/div&gt;&lt;div&gt;&lt;div&gt;# doPost(request : HttpServletRequest, response : HttpServletResponse) : void&lt;/div&gt;&lt;/div&gt;" style="text;strokeColor=none;fillColor=none;align=left;verticalAlign=top;spacingLeft=4;spacingRight=4;overflow=hidden;rotatable=0;points=[[0,0.5],[1,0.5]];portConstraint=eastwest;whiteSpace=wrap;html=1;" vertex="1" parent="WYmIHeGtq4Grt4gA2TI7-357">
          <mxGeometry y="34" width="620" height="72" as="geometry" />
        </mxCell>
        <mxCell id="WYmIHeGtq4Grt4gA2TI7-449" style="edgeStyle=orthogonalEdgeStyle;rounded=0;orthogonalLoop=1;jettySize=auto;html=1;entryX=0.923;entryY=-0.001;entryDx=0;entryDy=0;entryPerimeter=0;dashed=1;endArrow=open;endFill=0;" edge="1" parent="1" source="WYmIHeGtq4Grt4gA2TI7-360" target="WYmIHeGtq4Grt4gA2TI7-393">
          <mxGeometry relative="1" as="geometry">
            <mxPoint x="80" y="3810" as="targetPoint" />
          </mxGeometry>
        </mxCell>
        <mxCell id="WYmIHeGtq4Grt4gA2TI7-360" value="&lt;span style=&quot;font-weight: 400;&quot;&gt;DeleteBoard_Controller&lt;/span&gt;" style="swimlane;fontStyle=1;align=center;verticalAlign=top;childLayout=stackLayout;horizontal=1;startSize=26;horizontalStack=0;resizeParent=1;resizeParentMax=0;resizeLast=0;collapsible=1;marginBottom=0;whiteSpace=wrap;html=1;" vertex="1" parent="1">
          <mxGeometry x="310" y="3384" width="620" height="106" as="geometry" />
        </mxCell>
        <mxCell id="WYmIHeGtq4Grt4gA2TI7-361" value="" style="line;strokeWidth=1;fillColor=none;align=left;verticalAlign=middle;spacingTop=-1;spacingLeft=3;spacingRight=3;rotatable=0;labelPosition=right;points=[];portConstraint=eastwest;strokeColor=inherit;" vertex="1" parent="WYmIHeGtq4Grt4gA2TI7-360">
          <mxGeometry y="26" width="620" height="8" as="geometry" />
        </mxCell>
        <mxCell id="WYmIHeGtq4Grt4gA2TI7-362" value="# doGet(req : HttpServletRequest , resp : HttpServletResponse) : void&lt;div&gt;&lt;br&gt;&lt;/div&gt;&lt;div&gt;&lt;div&gt;# doPost(request : HttpServletRequest, response : HttpServletResponse) : void&lt;/div&gt;&lt;/div&gt;" style="text;strokeColor=none;fillColor=none;align=left;verticalAlign=top;spacingLeft=4;spacingRight=4;overflow=hidden;rotatable=0;points=[[0,0.5],[1,0.5]];portConstraint=eastwest;whiteSpace=wrap;html=1;" vertex="1" parent="WYmIHeGtq4Grt4gA2TI7-360">
          <mxGeometry y="34" width="620" height="72" as="geometry" />
        </mxCell>
        <mxCell id="WYmIHeGtq4Grt4gA2TI7-363" value="&lt;span style=&quot;font-weight: 400;&quot;&gt;ReadAllBoard_Controller&lt;/span&gt;" style="swimlane;fontStyle=1;align=center;verticalAlign=top;childLayout=stackLayout;horizontal=1;startSize=26;horizontalStack=0;resizeParent=1;resizeParentMax=0;resizeLast=0;collapsible=1;marginBottom=0;whiteSpace=wrap;html=1;" vertex="1" parent="1">
          <mxGeometry x="310" y="3520" width="620" height="106" as="geometry" />
        </mxCell>
        <mxCell id="WYmIHeGtq4Grt4gA2TI7-364" value="" style="line;strokeWidth=1;fillColor=none;align=left;verticalAlign=middle;spacingTop=-1;spacingLeft=3;spacingRight=3;rotatable=0;labelPosition=right;points=[];portConstraint=eastwest;strokeColor=inherit;" vertex="1" parent="WYmIHeGtq4Grt4gA2TI7-363">
          <mxGeometry y="26" width="620" height="8" as="geometry" />
        </mxCell>
        <mxCell id="WYmIHeGtq4Grt4gA2TI7-365" value="# doGet(req : HttpServletRequest , resp : HttpServletResponse) : void&lt;div&gt;&lt;br&gt;&lt;/div&gt;&lt;div&gt;&lt;div&gt;# doPost(request : HttpServletRequest, response : HttpServletResponse) : void&lt;/div&gt;&lt;/div&gt;" style="text;strokeColor=none;fillColor=none;align=left;verticalAlign=top;spacingLeft=4;spacingRight=4;overflow=hidden;rotatable=0;points=[[0,0.5],[1,0.5]];portConstraint=eastwest;whiteSpace=wrap;html=1;" vertex="1" parent="WYmIHeGtq4Grt4gA2TI7-363">
          <mxGeometry y="34" width="620" height="72" as="geometry" />
        </mxCell>
        <mxCell id="WYmIHeGtq4Grt4gA2TI7-366" value="&lt;span style=&quot;font-weight: 400;&quot;&gt;ReadOneBoard_Controller&lt;/span&gt;" style="swimlane;fontStyle=1;align=center;verticalAlign=top;childLayout=stackLayout;horizontal=1;startSize=26;horizontalStack=0;resizeParent=1;resizeParentMax=0;resizeLast=0;collapsible=1;marginBottom=0;whiteSpace=wrap;html=1;" vertex="1" parent="1">
          <mxGeometry x="310" y="3660" width="620" height="106" as="geometry" />
        </mxCell>
        <mxCell id="WYmIHeGtq4Grt4gA2TI7-367" value="" style="line;strokeWidth=1;fillColor=none;align=left;verticalAlign=middle;spacingTop=-1;spacingLeft=3;spacingRight=3;rotatable=0;labelPosition=right;points=[];portConstraint=eastwest;strokeColor=inherit;" vertex="1" parent="WYmIHeGtq4Grt4gA2TI7-366">
          <mxGeometry y="26" width="620" height="8" as="geometry" />
        </mxCell>
        <mxCell id="WYmIHeGtq4Grt4gA2TI7-368" value="# doGet(req : HttpServletRequest , resp : HttpServletResponse) : void&lt;div&gt;&lt;br&gt;&lt;/div&gt;&lt;div&gt;&lt;div&gt;# doPost(request : HttpServletRequest, response : HttpServletResponse) : void&lt;/div&gt;&lt;/div&gt;" style="text;strokeColor=none;fillColor=none;align=left;verticalAlign=top;spacingLeft=4;spacingRight=4;overflow=hidden;rotatable=0;points=[[0,0.5],[1,0.5]];portConstraint=eastwest;whiteSpace=wrap;html=1;" vertex="1" parent="WYmIHeGtq4Grt4gA2TI7-366">
          <mxGeometry y="34" width="620" height="72" as="geometry" />
        </mxCell>
        <mxCell id="WYmIHeGtq4Grt4gA2TI7-477" style="edgeStyle=orthogonalEdgeStyle;rounded=0;orthogonalLoop=1;jettySize=auto;html=1;dashed=1;endArrow=open;endFill=0;" edge="1" parent="1" source="WYmIHeGtq4Grt4gA2TI7-369" target="WYmIHeGtq4Grt4gA2TI7-356">
          <mxGeometry relative="1" as="geometry">
            <mxPoint x="130" y="3470" as="targetPoint" />
            <Array as="points">
              <mxPoint x="250" y="3853" />
              <mxPoint x="250" y="3464" />
            </Array>
          </mxGeometry>
        </mxCell>
        <mxCell id="WYmIHeGtq4Grt4gA2TI7-369" value="&lt;span style=&quot;font-weight: 400;&quot;&gt;UpdateBoard_Controller&lt;/span&gt;" style="swimlane;fontStyle=1;align=center;verticalAlign=top;childLayout=stackLayout;horizontal=1;startSize=26;horizontalStack=0;resizeParent=1;resizeParentMax=0;resizeLast=0;collapsible=1;marginBottom=0;whiteSpace=wrap;html=1;" vertex="1" parent="1">
          <mxGeometry x="310" y="3800" width="620" height="106" as="geometry" />
        </mxCell>
        <mxCell id="WYmIHeGtq4Grt4gA2TI7-370" value="" style="line;strokeWidth=1;fillColor=none;align=left;verticalAlign=middle;spacingTop=-1;spacingLeft=3;spacingRight=3;rotatable=0;labelPosition=right;points=[];portConstraint=eastwest;strokeColor=inherit;" vertex="1" parent="WYmIHeGtq4Grt4gA2TI7-369">
          <mxGeometry y="26" width="620" height="8" as="geometry" />
        </mxCell>
        <mxCell id="WYmIHeGtq4Grt4gA2TI7-371" value="# doGet(req : HttpServletRequest , resp : HttpServletResponse) : void&lt;div&gt;&lt;br&gt;&lt;/div&gt;&lt;div&gt;&lt;div&gt;# doPost(request : HttpServletRequest, response : HttpServletResponse) : void&lt;/div&gt;&lt;/div&gt;" style="text;strokeColor=none;fillColor=none;align=left;verticalAlign=top;spacingLeft=4;spacingRight=4;overflow=hidden;rotatable=0;points=[[0,0.5],[1,0.5]];portConstraint=eastwest;whiteSpace=wrap;html=1;" vertex="1" parent="WYmIHeGtq4Grt4gA2TI7-369">
          <mxGeometry y="34" width="620" height="72" as="geometry" />
        </mxCell>
        <mxCell id="WYmIHeGtq4Grt4gA2TI7-372" value="HttpServletRequest" style="swimlane;fontStyle=1;align=center;verticalAlign=top;childLayout=stackLayout;horizontal=1;startSize=26;horizontalStack=0;resizeParent=1;resizeParentMax=0;resizeLast=0;collapsible=1;marginBottom=0;whiteSpace=wrap;html=1;" vertex="1" parent="1">
          <mxGeometry x="1280" y="3256" width="210" height="100" as="geometry" />
        </mxCell>
        <mxCell id="WYmIHeGtq4Grt4gA2TI7-373" value="getParameter() : String&amp;nbsp;&lt;div&gt;getParameterValues() : String&lt;/div&gt;&lt;div&gt;setAttribute(String, Object) : void&lt;/div&gt;" style="text;strokeColor=none;fillColor=none;align=left;verticalAlign=top;spacingLeft=4;spacingRight=4;overflow=hidden;rotatable=0;points=[[0,0.5],[1,0.5]];portConstraint=eastwest;whiteSpace=wrap;html=1;" vertex="1" parent="WYmIHeGtq4Grt4gA2TI7-372">
          <mxGeometry y="26" width="210" height="74" as="geometry" />
        </mxCell>
        <mxCell id="WYmIHeGtq4Grt4gA2TI7-374" value="RequestDispatcher" style="swimlane;fontStyle=1;align=center;verticalAlign=top;childLayout=stackLayout;horizontal=1;startSize=26;horizontalStack=0;resizeParent=1;resizeParentMax=0;resizeLast=0;collapsible=1;marginBottom=0;whiteSpace=wrap;html=1;" vertex="1" parent="1">
          <mxGeometry x="1280" y="3520" width="320" height="70" as="geometry" />
        </mxCell>
        <mxCell id="WYmIHeGtq4Grt4gA2TI7-375" value="forward(HttpServletRequest, HttpServletResponse) : void&lt;div&gt;getRequestDispatcher() : RequestDispatcher&lt;/div&gt;" style="text;strokeColor=none;fillColor=none;align=left;verticalAlign=top;spacingLeft=4;spacingRight=4;overflow=hidden;rotatable=0;points=[[0,0.5],[1,0.5]];portConstraint=eastwest;whiteSpace=wrap;html=1;" vertex="1" parent="WYmIHeGtq4Grt4gA2TI7-374">
          <mxGeometry y="26" width="320" height="44" as="geometry" />
        </mxCell>
        <mxCell id="WYmIHeGtq4Grt4gA2TI7-376" value="HttpServletResponse" style="swimlane;fontStyle=1;align=center;verticalAlign=top;childLayout=stackLayout;horizontal=1;startSize=26;horizontalStack=0;resizeParent=1;resizeParentMax=0;resizeLast=0;collapsible=1;marginBottom=0;whiteSpace=wrap;html=1;" vertex="1" parent="1">
          <mxGeometry x="1280" y="3400" width="200" height="70" as="geometry" />
        </mxCell>
        <mxCell id="WYmIHeGtq4Grt4gA2TI7-377" value="sendRedirect(String) : void" style="text;strokeColor=none;fillColor=none;align=left;verticalAlign=top;spacingLeft=4;spacingRight=4;overflow=hidden;rotatable=0;points=[[0,0.5],[1,0.5]];portConstraint=eastwest;whiteSpace=wrap;html=1;" vertex="1" parent="WYmIHeGtq4Grt4gA2TI7-376">
          <mxGeometry y="26" width="200" height="44" as="geometry" />
        </mxCell>
        <mxCell id="WYmIHeGtq4Grt4gA2TI7-378" style="edgeStyle=orthogonalEdgeStyle;rounded=0;orthogonalLoop=1;jettySize=auto;html=1;entryX=0;entryY=0.5;entryDx=0;entryDy=0;dashed=1;endArrow=open;endFill=0;" edge="1" parent="1" source="WYmIHeGtq4Grt4gA2TI7-359" target="WYmIHeGtq4Grt4gA2TI7-373">
          <mxGeometry relative="1" as="geometry" />
        </mxCell>
        <mxCell id="WYmIHeGtq4Grt4gA2TI7-379" style="edgeStyle=orthogonalEdgeStyle;rounded=0;orthogonalLoop=1;jettySize=auto;html=1;entryX=0;entryY=0.5;entryDx=0;entryDy=0;dashed=1;endArrow=open;endFill=0;" edge="1" parent="1" source="WYmIHeGtq4Grt4gA2TI7-359" target="WYmIHeGtq4Grt4gA2TI7-377">
          <mxGeometry relative="1" as="geometry" />
        </mxCell>
        <mxCell id="WYmIHeGtq4Grt4gA2TI7-380" style="edgeStyle=orthogonalEdgeStyle;rounded=0;orthogonalLoop=1;jettySize=auto;html=1;entryX=0;entryY=0.5;entryDx=0;entryDy=0;dashed=1;endArrow=open;endFill=0;" edge="1" parent="1" source="WYmIHeGtq4Grt4gA2TI7-359" target="WYmIHeGtq4Grt4gA2TI7-375">
          <mxGeometry relative="1" as="geometry" />
        </mxCell>
        <mxCell id="WYmIHeGtq4Grt4gA2TI7-381" style="edgeStyle=orthogonalEdgeStyle;rounded=0;orthogonalLoop=1;jettySize=auto;html=1;entryX=1;entryY=0.5;entryDx=0;entryDy=0;dashed=1;endArrow=open;endFill=0;" edge="1" parent="1" source="WYmIHeGtq4Grt4gA2TI7-359" target="WYmIHeGtq4Grt4gA2TI7-354">
          <mxGeometry relative="1" as="geometry" />
        </mxCell>
        <mxCell id="WYmIHeGtq4Grt4gA2TI7-382" value="HttpServlet" style="swimlane;fontStyle=0;childLayout=stackLayout;horizontal=1;startSize=26;fillColor=none;horizontalStack=0;resizeParent=1;resizeParentMax=0;resizeLast=0;collapsible=1;marginBottom=0;whiteSpace=wrap;html=1;" vertex="1" parent="1">
          <mxGeometry x="440" y="3140" width="330" height="78" as="geometry" />
        </mxCell>
        <mxCell id="WYmIHeGtq4Grt4gA2TI7-383" value="doGet(HttpServletRequest, HttpServletResponse)" style="text;strokeColor=none;fillColor=none;align=left;verticalAlign=top;spacingLeft=4;spacingRight=4;overflow=hidden;rotatable=0;points=[[0,0.5],[1,0.5]];portConstraint=eastwest;whiteSpace=wrap;html=1;" vertex="1" parent="WYmIHeGtq4Grt4gA2TI7-382">
          <mxGeometry y="26" width="330" height="26" as="geometry" />
        </mxCell>
        <mxCell id="WYmIHeGtq4Grt4gA2TI7-384" value="doPost(HttpServletRequest, HttpServletResponse)" style="text;strokeColor=none;fillColor=none;align=left;verticalAlign=top;spacingLeft=4;spacingRight=4;overflow=hidden;rotatable=0;points=[[0,0.5],[1,0.5]];portConstraint=eastwest;whiteSpace=wrap;html=1;" vertex="1" parent="WYmIHeGtq4Grt4gA2TI7-382">
          <mxGeometry y="52" width="330" height="26" as="geometry" />
        </mxCell>
        <mxCell id="WYmIHeGtq4Grt4gA2TI7-387" style="edgeStyle=orthogonalEdgeStyle;rounded=0;orthogonalLoop=1;jettySize=auto;html=1;entryX=0;entryY=0.5;entryDx=0;entryDy=0;endArrow=block;endFill=0;" edge="1" parent="1" source="WYmIHeGtq4Grt4gA2TI7-359" target="WYmIHeGtq4Grt4gA2TI7-383">
          <mxGeometry relative="1" as="geometry" />
        </mxCell>
        <mxCell id="WYmIHeGtq4Grt4gA2TI7-388" style="edgeStyle=orthogonalEdgeStyle;rounded=0;orthogonalLoop=1;jettySize=auto;html=1;entryX=0;entryY=0.5;entryDx=0;entryDy=0;endArrow=block;endFill=0;" edge="1" parent="1" source="WYmIHeGtq4Grt4gA2TI7-362" target="WYmIHeGtq4Grt4gA2TI7-383">
          <mxGeometry relative="1" as="geometry" />
        </mxCell>
        <mxCell id="WYmIHeGtq4Grt4gA2TI7-390" style="edgeStyle=orthogonalEdgeStyle;rounded=0;orthogonalLoop=1;jettySize=auto;html=1;entryX=0;entryY=0.5;entryDx=0;entryDy=0;endArrow=block;endFill=0;" edge="1" parent="1" source="WYmIHeGtq4Grt4gA2TI7-365" target="WYmIHeGtq4Grt4gA2TI7-383">
          <mxGeometry relative="1" as="geometry" />
        </mxCell>
        <mxCell id="WYmIHeGtq4Grt4gA2TI7-391" style="edgeStyle=orthogonalEdgeStyle;rounded=0;orthogonalLoop=1;jettySize=auto;html=1;entryX=0;entryY=0.5;entryDx=0;entryDy=0;endArrow=block;endFill=0;" edge="1" parent="1" source="WYmIHeGtq4Grt4gA2TI7-368" target="WYmIHeGtq4Grt4gA2TI7-383">
          <mxGeometry relative="1" as="geometry" />
        </mxCell>
        <mxCell id="WYmIHeGtq4Grt4gA2TI7-392" style="edgeStyle=orthogonalEdgeStyle;rounded=0;orthogonalLoop=1;jettySize=auto;html=1;entryX=0;entryY=0.5;entryDx=0;entryDy=0;endArrow=block;endFill=0;" edge="1" parent="1" source="WYmIHeGtq4Grt4gA2TI7-371" target="WYmIHeGtq4Grt4gA2TI7-383">
          <mxGeometry relative="1" as="geometry" />
        </mxCell>
        <mxCell id="WYmIHeGtq4Grt4gA2TI7-436" style="edgeStyle=orthogonalEdgeStyle;rounded=0;orthogonalLoop=1;jettySize=auto;html=1;dashed=1;endArrow=open;endFill=0;" edge="1" parent="1" source="WYmIHeGtq4Grt4gA2TI7-393" target="WYmIHeGtq4Grt4gA2TI7-434">
          <mxGeometry relative="1" as="geometry" />
        </mxCell>
        <mxCell id="WYmIHeGtq4Grt4gA2TI7-393" value="BoardRepository" style="swimlane;fontStyle=1;align=center;verticalAlign=top;childLayout=stackLayout;horizontal=1;startSize=26;horizontalStack=0;resizeParent=1;resizeParentMax=0;resizeLast=0;collapsible=1;marginBottom=0;whiteSpace=wrap;html=1;" vertex="1" parent="1">
          <mxGeometry x="-345" y="3820" width="460" height="260" as="geometry" />
        </mxCell>
        <mxCell id="WYmIHeGtq4Grt4gA2TI7-394" value="&lt;u&gt;- instance : BoardRepository&lt;/u&gt;&lt;div&gt;conn : Connection&lt;/div&gt;&lt;div&gt;pstmt ; PreparedStatement&lt;/div&gt;&lt;div&gt;rs : ResultSet&lt;/div&gt;" style="text;strokeColor=none;fillColor=none;align=left;verticalAlign=top;spacingLeft=4;spacingRight=4;overflow=hidden;rotatable=0;points=[[0,0.5],[1,0.5]];portConstraint=eastwest;whiteSpace=wrap;html=1;" vertex="1" parent="WYmIHeGtq4Grt4gA2TI7-393">
          <mxGeometry y="26" width="460" height="74" as="geometry" />
        </mxCell>
        <mxCell id="WYmIHeGtq4Grt4gA2TI7-395" value="" style="line;strokeWidth=1;fillColor=none;align=left;verticalAlign=middle;spacingTop=-1;spacingLeft=3;spacingRight=3;rotatable=0;labelPosition=right;points=[];portConstraint=eastwest;strokeColor=inherit;" vertex="1" parent="WYmIHeGtq4Grt4gA2TI7-393">
          <mxGeometry y="100" width="460" height="8" as="geometry" />
        </mxCell>
        <mxCell id="WYmIHeGtq4Grt4gA2TI7-396" value="&lt;div&gt;&lt;div&gt;&lt;u&gt;+ getInstance() : BoardRepository&lt;/u&gt;&lt;/div&gt;&lt;/div&gt;&lt;div&gt;+ insertBoard((board Board) : void&lt;/div&gt;&lt;div&gt;+ getListCount(items : String, text : String)&lt;/div&gt;&lt;div&gt;+ getBoardList(page : int, limit : int, items : String, text : String) : ArrayList&amp;lt;Board&amp;gt;&lt;/div&gt;&lt;div&gt;+ getLoginNameById(id : String) : String&lt;/div&gt;&lt;div&gt;+ updateHit(num : int) : void&lt;/div&gt;&lt;div&gt;+ getBoardByNum(num : int, page : int) : Board&lt;/div&gt;&lt;div&gt;+ updateBoard(board : Board) : void&lt;/div&gt;&lt;div&gt;+ deleteBoard(num : int) : void&lt;/div&gt;" style="text;strokeColor=none;fillColor=none;align=left;verticalAlign=top;spacingLeft=4;spacingRight=4;overflow=hidden;rotatable=0;points=[[0,0.5],[1,0.5]];portConstraint=eastwest;whiteSpace=wrap;html=1;" vertex="1" parent="WYmIHeGtq4Grt4gA2TI7-393">
          <mxGeometry y="108" width="460" height="152" as="geometry" />
        </mxCell>
        <mxCell id="WYmIHeGtq4Grt4gA2TI7-397" style="edgeStyle=orthogonalEdgeStyle;rounded=0;orthogonalLoop=1;jettySize=auto;html=1;entryX=1;entryY=0.5;entryDx=0;entryDy=0;dashed=1;endArrow=open;endFill=0;" edge="1" parent="1" source="WYmIHeGtq4Grt4gA2TI7-359" target="WYmIHeGtq4Grt4gA2TI7-394">
          <mxGeometry relative="1" as="geometry" />
        </mxCell>
        <mxCell id="WYmIHeGtq4Grt4gA2TI7-415" value="DBConnection" style="swimlane;fontStyle=1;align=center;verticalAlign=top;childLayout=stackLayout;horizontal=1;startSize=26;horizontalStack=0;resizeParent=1;resizeParentMax=0;resizeLast=0;collapsible=1;marginBottom=0;whiteSpace=wrap;html=1;" vertex="1" parent="1">
          <mxGeometry x="300" y="3990" width="210" height="60" as="geometry" />
        </mxCell>
        <mxCell id="WYmIHeGtq4Grt4gA2TI7-416" value="" style="line;strokeWidth=1;fillColor=none;align=left;verticalAlign=middle;spacingTop=-1;spacingLeft=3;spacingRight=3;rotatable=0;labelPosition=right;points=[];portConstraint=eastwest;strokeColor=inherit;" vertex="1" parent="WYmIHeGtq4Grt4gA2TI7-415">
          <mxGeometry y="26" width="210" height="8" as="geometry" />
        </mxCell>
        <mxCell id="WYmIHeGtq4Grt4gA2TI7-417" value="+ getConnection() : Connection" style="text;strokeColor=none;fillColor=none;align=left;verticalAlign=top;spacingLeft=4;spacingRight=4;overflow=hidden;rotatable=0;points=[[0,0.5],[1,0.5]];portConstraint=eastwest;whiteSpace=wrap;html=1;" vertex="1" parent="WYmIHeGtq4Grt4gA2TI7-415">
          <mxGeometry y="34" width="210" height="26" as="geometry" />
        </mxCell>
        <mxCell id="WYmIHeGtq4Grt4gA2TI7-418" value="PreparedStatement" style="swimlane;fontStyle=1;align=center;verticalAlign=top;childLayout=stackLayout;horizontal=1;startSize=26;horizontalStack=0;resizeParent=1;resizeParentMax=0;resizeLast=0;collapsible=1;marginBottom=0;whiteSpace=wrap;html=1;" vertex="1" parent="1">
          <mxGeometry x="300" y="4189" width="250" height="100" as="geometry" />
        </mxCell>
        <mxCell id="WYmIHeGtq4Grt4gA2TI7-419" value="" style="line;strokeWidth=1;fillColor=none;align=left;verticalAlign=middle;spacingTop=-1;spacingLeft=3;spacingRight=3;rotatable=0;labelPosition=right;points=[];portConstraint=eastwest;strokeColor=inherit;" vertex="1" parent="WYmIHeGtq4Grt4gA2TI7-418">
          <mxGeometry y="26" width="250" height="8" as="geometry" />
        </mxCell>
        <mxCell id="WYmIHeGtq4Grt4gA2TI7-420" value="setString(int,String) : void&lt;div&gt;setInt(int, int) : void&lt;/div&gt;&lt;div&gt;executeUpdate() : int(void)&lt;/div&gt;&lt;div&gt;executeQuery() : ResultSet&lt;/div&gt;" style="text;strokeColor=none;fillColor=none;align=left;verticalAlign=top;spacingLeft=4;spacingRight=4;overflow=hidden;rotatable=0;points=[[0,0.5],[1,0.5]];portConstraint=eastwest;whiteSpace=wrap;html=1;" vertex="1" parent="WYmIHeGtq4Grt4gA2TI7-418">
          <mxGeometry y="34" width="250" height="66" as="geometry" />
        </mxCell>
        <mxCell id="WYmIHeGtq4Grt4gA2TI7-421" value="ResultSet" style="swimlane;fontStyle=1;align=center;verticalAlign=top;childLayout=stackLayout;horizontal=1;startSize=26;horizontalStack=0;resizeParent=1;resizeParentMax=0;resizeLast=0;collapsible=1;marginBottom=0;whiteSpace=wrap;html=1;" vertex="1" parent="1">
          <mxGeometry x="300" y="4320" width="220" height="104" as="geometry" />
        </mxCell>
        <mxCell id="WYmIHeGtq4Grt4gA2TI7-422" value="" style="line;strokeWidth=1;fillColor=none;align=left;verticalAlign=middle;spacingTop=-1;spacingLeft=3;spacingRight=3;rotatable=0;labelPosition=right;points=[];portConstraint=eastwest;strokeColor=inherit;" vertex="1" parent="WYmIHeGtq4Grt4gA2TI7-421">
          <mxGeometry y="26" width="220" height="8" as="geometry" />
        </mxCell>
        <mxCell id="WYmIHeGtq4Grt4gA2TI7-423" value="&lt;div&gt;next() : boolean&lt;/div&gt;getString(int) : String&lt;div&gt;getTimeStampe(int) : Timestamp&lt;/div&gt;" style="text;strokeColor=none;fillColor=none;align=left;verticalAlign=top;spacingLeft=4;spacingRight=4;overflow=hidden;rotatable=0;points=[[0,0.5],[1,0.5]];portConstraint=eastwest;whiteSpace=wrap;html=1;" vertex="1" parent="WYmIHeGtq4Grt4gA2TI7-421">
          <mxGeometry y="34" width="220" height="70" as="geometry" />
        </mxCell>
        <mxCell id="WYmIHeGtq4Grt4gA2TI7-424" value="Connection" style="swimlane;fontStyle=1;align=center;verticalAlign=top;childLayout=stackLayout;horizontal=1;startSize=26;horizontalStack=0;resizeParent=1;resizeParentMax=0;resizeLast=0;collapsible=1;marginBottom=0;whiteSpace=wrap;html=1;" vertex="1" parent="1">
          <mxGeometry x="300" y="4090" width="260" height="60" as="geometry" />
        </mxCell>
        <mxCell id="WYmIHeGtq4Grt4gA2TI7-425" value="" style="line;strokeWidth=1;fillColor=none;align=left;verticalAlign=middle;spacingTop=-1;spacingLeft=3;spacingRight=3;rotatable=0;labelPosition=right;points=[];portConstraint=eastwest;strokeColor=inherit;" vertex="1" parent="WYmIHeGtq4Grt4gA2TI7-424">
          <mxGeometry y="26" width="260" height="8" as="geometry" />
        </mxCell>
        <mxCell id="WYmIHeGtq4Grt4gA2TI7-426" value="prepareStatement(String) : PrepareStatement" style="text;strokeColor=none;fillColor=none;align=left;verticalAlign=top;spacingLeft=4;spacingRight=4;overflow=hidden;rotatable=0;points=[[0,0.5],[1,0.5]];portConstraint=eastwest;whiteSpace=wrap;html=1;" vertex="1" parent="WYmIHeGtq4Grt4gA2TI7-424">
          <mxGeometry y="34" width="260" height="26" as="geometry" />
        </mxCell>
        <mxCell id="WYmIHeGtq4Grt4gA2TI7-427" value="DriverManager" style="swimlane;fontStyle=1;align=center;verticalAlign=top;childLayout=stackLayout;horizontal=1;startSize=26;horizontalStack=0;resizeParent=1;resizeParentMax=0;resizeLast=0;collapsible=1;marginBottom=0;whiteSpace=wrap;html=1;" vertex="1" parent="1">
          <mxGeometry x="570" y="3990" width="210" height="60" as="geometry" />
        </mxCell>
        <mxCell id="WYmIHeGtq4Grt4gA2TI7-428" value="" style="line;strokeWidth=1;fillColor=none;align=left;verticalAlign=middle;spacingTop=-1;spacingLeft=3;spacingRight=3;rotatable=0;labelPosition=right;points=[];portConstraint=eastwest;strokeColor=inherit;" vertex="1" parent="WYmIHeGtq4Grt4gA2TI7-427">
          <mxGeometry y="26" width="210" height="8" as="geometry" />
        </mxCell>
        <mxCell id="WYmIHeGtq4Grt4gA2TI7-429" value="+ getConnection() : Connection" style="text;strokeColor=none;fillColor=none;align=left;verticalAlign=top;spacingLeft=4;spacingRight=4;overflow=hidden;rotatable=0;points=[[0,0.5],[1,0.5]];portConstraint=eastwest;whiteSpace=wrap;html=1;" vertex="1" parent="WYmIHeGtq4Grt4gA2TI7-427">
          <mxGeometry y="34" width="210" height="26" as="geometry" />
        </mxCell>
        <mxCell id="WYmIHeGtq4Grt4gA2TI7-430" style="edgeStyle=orthogonalEdgeStyle;rounded=0;orthogonalLoop=1;jettySize=auto;html=1;dashed=1;endArrow=open;endFill=0;" edge="1" source="WYmIHeGtq4Grt4gA2TI7-415" parent="1">
          <mxGeometry relative="1" as="geometry">
            <mxPoint x="570" y="4020" as="targetPoint" />
          </mxGeometry>
        </mxCell>
        <mxCell id="WYmIHeGtq4Grt4gA2TI7-434" value="ArrayList&amp;lt;Board&amp;gt;" style="swimlane;fontStyle=1;align=center;verticalAlign=top;childLayout=stackLayout;horizontal=1;startSize=26;horizontalStack=0;resizeParent=1;resizeParentMax=0;resizeLast=0;collapsible=1;marginBottom=0;whiteSpace=wrap;html=1;" vertex="1" parent="1">
          <mxGeometry x="-345" y="4130" width="200" height="80" as="geometry" />
        </mxCell>
        <mxCell id="WYmIHeGtq4Grt4gA2TI7-435" value="add(e Book) : void&lt;div&gt;size() : int&lt;/div&gt;" style="text;strokeColor=none;fillColor=none;align=left;verticalAlign=top;spacingLeft=4;spacingRight=4;overflow=hidden;rotatable=0;points=[[0,0.5],[1,0.5]];portConstraint=eastwest;whiteSpace=wrap;html=1;" vertex="1" parent="WYmIHeGtq4Grt4gA2TI7-434">
          <mxGeometry y="26" width="200" height="54" as="geometry" />
        </mxCell>
        <mxCell id="WYmIHeGtq4Grt4gA2TI7-438" style="edgeStyle=orthogonalEdgeStyle;rounded=0;orthogonalLoop=1;jettySize=auto;html=1;entryX=0;entryY=0.5;entryDx=0;entryDy=0;dashed=1;endArrow=open;endFill=0;" edge="1" parent="1" source="WYmIHeGtq4Grt4gA2TI7-396" target="WYmIHeGtq4Grt4gA2TI7-415">
          <mxGeometry relative="1" as="geometry" />
        </mxCell>
        <mxCell id="WYmIHeGtq4Grt4gA2TI7-439" style="edgeStyle=orthogonalEdgeStyle;rounded=0;orthogonalLoop=1;jettySize=auto;html=1;entryX=0;entryY=0.5;entryDx=0;entryDy=0;dashed=1;endArrow=open;endFill=0;" edge="1" parent="1" source="WYmIHeGtq4Grt4gA2TI7-396" target="WYmIHeGtq4Grt4gA2TI7-426">
          <mxGeometry relative="1" as="geometry" />
        </mxCell>
        <mxCell id="WYmIHeGtq4Grt4gA2TI7-440" style="edgeStyle=orthogonalEdgeStyle;rounded=0;orthogonalLoop=1;jettySize=auto;html=1;entryX=0;entryY=0.5;entryDx=0;entryDy=0;dashed=1;endArrow=open;endFill=0;" edge="1" parent="1" source="WYmIHeGtq4Grt4gA2TI7-396" target="WYmIHeGtq4Grt4gA2TI7-420">
          <mxGeometry relative="1" as="geometry" />
        </mxCell>
        <mxCell id="WYmIHeGtq4Grt4gA2TI7-441" style="edgeStyle=orthogonalEdgeStyle;rounded=0;orthogonalLoop=1;jettySize=auto;html=1;dashed=1;endArrow=open;endFill=0;" edge="1" parent="1" source="WYmIHeGtq4Grt4gA2TI7-396" target="WYmIHeGtq4Grt4gA2TI7-423">
          <mxGeometry relative="1" as="geometry" />
        </mxCell>
        <mxCell id="WYmIHeGtq4Grt4gA2TI7-443" style="edgeStyle=orthogonalEdgeStyle;rounded=0;orthogonalLoop=1;jettySize=auto;html=1;entryX=-0.01;entryY=0.79;entryDx=0;entryDy=0;entryPerimeter=0;dashed=1;endArrow=open;endFill=0;" edge="1" parent="1" source="WYmIHeGtq4Grt4gA2TI7-362" target="WYmIHeGtq4Grt4gA2TI7-373">
          <mxGeometry relative="1" as="geometry">
            <Array as="points">
              <mxPoint x="1080" y="3454" />
              <mxPoint x="1080" y="3341" />
            </Array>
          </mxGeometry>
        </mxCell>
        <mxCell id="WYmIHeGtq4Grt4gA2TI7-444" style="edgeStyle=orthogonalEdgeStyle;rounded=0;orthogonalLoop=1;jettySize=auto;html=1;entryX=-0.01;entryY=0.262;entryDx=0;entryDy=0;entryPerimeter=0;dashed=1;endArrow=open;endFill=0;" edge="1" parent="1" source="WYmIHeGtq4Grt4gA2TI7-362" target="WYmIHeGtq4Grt4gA2TI7-377">
          <mxGeometry relative="1" as="geometry">
            <Array as="points">
              <mxPoint x="1080" y="3454" />
              <mxPoint x="1080" y="3437" />
            </Array>
          </mxGeometry>
        </mxCell>
        <mxCell id="WYmIHeGtq4Grt4gA2TI7-445" style="edgeStyle=orthogonalEdgeStyle;rounded=0;orthogonalLoop=1;jettySize=auto;html=1;entryX=-0.003;entryY=0.273;entryDx=0;entryDy=0;entryPerimeter=0;dashed=1;endArrow=open;endFill=0;" edge="1" parent="1" source="WYmIHeGtq4Grt4gA2TI7-362" target="WYmIHeGtq4Grt4gA2TI7-375">
          <mxGeometry relative="1" as="geometry">
            <Array as="points">
              <mxPoint x="1080" y="3454" />
              <mxPoint x="1080" y="3558" />
            </Array>
          </mxGeometry>
        </mxCell>
        <mxCell id="WYmIHeGtq4Grt4gA2TI7-446" value="Integer" style="swimlane;fontStyle=1;align=center;verticalAlign=top;childLayout=stackLayout;horizontal=1;startSize=26;horizontalStack=0;resizeParent=1;resizeParentMax=0;resizeLast=0;collapsible=1;marginBottom=0;whiteSpace=wrap;html=1;" vertex="1" parent="1">
          <mxGeometry x="1280" y="3640" width="200" height="70" as="geometry" />
        </mxCell>
        <mxCell id="WYmIHeGtq4Grt4gA2TI7-447" value="parseInt(String) : int" style="text;strokeColor=none;fillColor=none;align=left;verticalAlign=top;spacingLeft=4;spacingRight=4;overflow=hidden;rotatable=0;points=[[0,0.5],[1,0.5]];portConstraint=eastwest;whiteSpace=wrap;html=1;" vertex="1" parent="WYmIHeGtq4Grt4gA2TI7-446">
          <mxGeometry y="26" width="200" height="44" as="geometry" />
        </mxCell>
        <mxCell id="WYmIHeGtq4Grt4gA2TI7-448" style="edgeStyle=orthogonalEdgeStyle;rounded=0;orthogonalLoop=1;jettySize=auto;html=1;entryX=0;entryY=0.5;entryDx=0;entryDy=0;dashed=1;endArrow=open;endFill=0;" edge="1" parent="1" source="WYmIHeGtq4Grt4gA2TI7-362" target="WYmIHeGtq4Grt4gA2TI7-447">
          <mxGeometry relative="1" as="geometry">
            <Array as="points">
              <mxPoint x="1080" y="3454" />
              <mxPoint x="1080" y="3688" />
            </Array>
          </mxGeometry>
        </mxCell>
        <mxCell id="WYmIHeGtq4Grt4gA2TI7-450" style="edgeStyle=orthogonalEdgeStyle;rounded=0;orthogonalLoop=1;jettySize=auto;html=1;entryX=1.002;entryY=0.783;entryDx=0;entryDy=0;entryPerimeter=0;dashed=1;endArrow=open;endFill=0;" edge="1" parent="1" source="WYmIHeGtq4Grt4gA2TI7-360" target="WYmIHeGtq4Grt4gA2TI7-354">
          <mxGeometry relative="1" as="geometry" />
        </mxCell>
        <mxCell id="WYmIHeGtq4Grt4gA2TI7-451" value="SimpleDateFormat" style="swimlane;fontStyle=1;align=center;verticalAlign=top;childLayout=stackLayout;horizontal=1;startSize=26;horizontalStack=0;resizeParent=1;resizeParentMax=0;resizeLast=0;collapsible=1;marginBottom=0;whiteSpace=wrap;html=1;" vertex="1" parent="1">
          <mxGeometry x="300" y="4460" width="220" height="104" as="geometry" />
        </mxCell>
        <mxCell id="WYmIHeGtq4Grt4gA2TI7-452" value="" style="line;strokeWidth=1;fillColor=none;align=left;verticalAlign=middle;spacingTop=-1;spacingLeft=3;spacingRight=3;rotatable=0;labelPosition=right;points=[];portConstraint=eastwest;strokeColor=inherit;" vertex="1" parent="WYmIHeGtq4Grt4gA2TI7-451">
          <mxGeometry y="26" width="220" height="8" as="geometry" />
        </mxCell>
        <mxCell id="WYmIHeGtq4Grt4gA2TI7-453" value="format(date : Date)" style="text;strokeColor=none;fillColor=none;align=left;verticalAlign=top;spacingLeft=4;spacingRight=4;overflow=hidden;rotatable=0;points=[[0,0.5],[1,0.5]];portConstraint=eastwest;whiteSpace=wrap;html=1;" vertex="1" parent="WYmIHeGtq4Grt4gA2TI7-451">
          <mxGeometry y="34" width="220" height="70" as="geometry" />
        </mxCell>
        <mxCell id="WYmIHeGtq4Grt4gA2TI7-454" style="edgeStyle=orthogonalEdgeStyle;rounded=0;orthogonalLoop=1;jettySize=auto;html=1;entryX=0;entryY=0.5;entryDx=0;entryDy=0;dashed=1;endArrow=open;endFill=0;" edge="1" parent="1" source="WYmIHeGtq4Grt4gA2TI7-396" target="WYmIHeGtq4Grt4gA2TI7-451">
          <mxGeometry relative="1" as="geometry" />
        </mxCell>
        <mxCell id="WYmIHeGtq4Grt4gA2TI7-456" value="Date" style="swimlane;fontStyle=1;align=center;verticalAlign=top;childLayout=stackLayout;horizontal=1;startSize=26;horizontalStack=0;resizeParent=1;resizeParentMax=0;resizeLast=0;collapsible=1;marginBottom=0;whiteSpace=wrap;html=1;" vertex="1" parent="1">
          <mxGeometry x="560" y="4460" width="210" height="34" as="geometry" />
        </mxCell>
        <mxCell id="WYmIHeGtq4Grt4gA2TI7-457" value="" style="line;strokeWidth=1;fillColor=none;align=left;verticalAlign=middle;spacingTop=-1;spacingLeft=3;spacingRight=3;rotatable=0;labelPosition=right;points=[];portConstraint=eastwest;strokeColor=inherit;" vertex="1" parent="WYmIHeGtq4Grt4gA2TI7-456">
          <mxGeometry y="26" width="210" height="8" as="geometry" />
        </mxCell>
        <mxCell id="WYmIHeGtq4Grt4gA2TI7-459" style="edgeStyle=orthogonalEdgeStyle;rounded=0;orthogonalLoop=1;jettySize=auto;html=1;entryX=0;entryY=0.5;entryDx=0;entryDy=0;dashed=1;endArrow=open;endFill=0;" edge="1" parent="1" source="WYmIHeGtq4Grt4gA2TI7-453" target="WYmIHeGtq4Grt4gA2TI7-456">
          <mxGeometry relative="1" as="geometry" />
        </mxCell>
        <mxCell id="WYmIHeGtq4Grt4gA2TI7-460" style="edgeStyle=orthogonalEdgeStyle;rounded=0;orthogonalLoop=1;jettySize=auto;html=1;entryX=-0.019;entryY=0.27;entryDx=0;entryDy=0;entryPerimeter=0;dashed=1;endArrow=open;endFill=0;" edge="1" parent="1" source="WYmIHeGtq4Grt4gA2TI7-365" target="WYmIHeGtq4Grt4gA2TI7-373">
          <mxGeometry relative="1" as="geometry">
            <Array as="points">
              <mxPoint x="1090" y="3590" />
              <mxPoint x="1090" y="3302" />
            </Array>
          </mxGeometry>
        </mxCell>
        <mxCell id="WYmIHeGtq4Grt4gA2TI7-461" style="edgeStyle=orthogonalEdgeStyle;rounded=0;orthogonalLoop=1;jettySize=auto;html=1;entryX=0;entryY=0.25;entryDx=0;entryDy=0;dashed=1;endArrow=open;endFill=0;" edge="1" parent="1" source="WYmIHeGtq4Grt4gA2TI7-365" target="WYmIHeGtq4Grt4gA2TI7-376">
          <mxGeometry relative="1" as="geometry">
            <Array as="points">
              <mxPoint x="1090" y="3590" />
              <mxPoint x="1090" y="3418" />
            </Array>
          </mxGeometry>
        </mxCell>
        <mxCell id="WYmIHeGtq4Grt4gA2TI7-462" style="edgeStyle=orthogonalEdgeStyle;rounded=0;orthogonalLoop=1;jettySize=auto;html=1;entryX=0;entryY=0.783;entryDx=0;entryDy=0;entryPerimeter=0;dashed=1;endArrow=open;endFill=0;" edge="1" parent="1" source="WYmIHeGtq4Grt4gA2TI7-365" target="WYmIHeGtq4Grt4gA2TI7-375">
          <mxGeometry relative="1" as="geometry">
            <Array as="points">
              <mxPoint x="1090" y="3590" />
              <mxPoint x="1090" y="3580" />
            </Array>
          </mxGeometry>
        </mxCell>
        <mxCell id="WYmIHeGtq4Grt4gA2TI7-464" value="Math" style="swimlane;fontStyle=1;align=center;verticalAlign=top;childLayout=stackLayout;horizontal=1;startSize=26;horizontalStack=0;resizeParent=1;resizeParentMax=0;resizeLast=0;collapsible=1;marginBottom=0;whiteSpace=wrap;html=1;" vertex="1" parent="1">
          <mxGeometry x="1280" y="3740" width="200" height="70" as="geometry" />
        </mxCell>
        <mxCell id="WYmIHeGtq4Grt4gA2TI7-465" value="floor(double) : double" style="text;strokeColor=none;fillColor=none;align=left;verticalAlign=top;spacingLeft=4;spacingRight=4;overflow=hidden;rotatable=0;points=[[0,0.5],[1,0.5]];portConstraint=eastwest;whiteSpace=wrap;html=1;" vertex="1" parent="WYmIHeGtq4Grt4gA2TI7-464">
          <mxGeometry y="26" width="200" height="44" as="geometry" />
        </mxCell>
        <mxCell id="WYmIHeGtq4Grt4gA2TI7-467" style="edgeStyle=orthogonalEdgeStyle;rounded=0;orthogonalLoop=1;jettySize=auto;html=1;entryX=0.407;entryY=1;entryDx=0;entryDy=0;entryPerimeter=0;dashed=1;endArrow=open;endFill=0;" edge="1" parent="1" source="WYmIHeGtq4Grt4gA2TI7-365" target="WYmIHeGtq4Grt4gA2TI7-356">
          <mxGeometry relative="1" as="geometry" />
        </mxCell>
        <mxCell id="WYmIHeGtq4Grt4gA2TI7-468" style="edgeStyle=orthogonalEdgeStyle;rounded=0;orthogonalLoop=1;jettySize=auto;html=1;entryX=0.446;entryY=0;entryDx=0;entryDy=0;entryPerimeter=0;dashed=1;endArrow=open;endFill=0;" edge="1" parent="1" source="WYmIHeGtq4Grt4gA2TI7-365" target="WYmIHeGtq4Grt4gA2TI7-393">
          <mxGeometry relative="1" as="geometry" />
        </mxCell>
        <mxCell id="WYmIHeGtq4Grt4gA2TI7-469" style="edgeStyle=orthogonalEdgeStyle;rounded=0;orthogonalLoop=1;jettySize=auto;html=1;entryX=0.003;entryY=0.894;entryDx=0;entryDy=0;entryPerimeter=0;dashed=1;endArrow=open;endFill=0;" edge="1" parent="1" source="WYmIHeGtq4Grt4gA2TI7-368" target="WYmIHeGtq4Grt4gA2TI7-447">
          <mxGeometry relative="1" as="geometry" />
        </mxCell>
        <mxCell id="WYmIHeGtq4Grt4gA2TI7-470" style="edgeStyle=orthogonalEdgeStyle;rounded=0;orthogonalLoop=1;jettySize=auto;html=1;entryX=-0.003;entryY=0.149;entryDx=0;entryDy=0;entryPerimeter=0;dashed=1;endArrow=open;endFill=0;" edge="1" parent="1" source="WYmIHeGtq4Grt4gA2TI7-368" target="WYmIHeGtq4Grt4gA2TI7-372">
          <mxGeometry relative="1" as="geometry" />
        </mxCell>
        <mxCell id="WYmIHeGtq4Grt4gA2TI7-471" style="edgeStyle=orthogonalEdgeStyle;rounded=0;orthogonalLoop=1;jettySize=auto;html=1;entryX=-0.003;entryY=0.793;entryDx=0;entryDy=0;entryPerimeter=0;dashed=1;endArrow=open;endFill=0;" edge="1" parent="1" source="WYmIHeGtq4Grt4gA2TI7-368" target="WYmIHeGtq4Grt4gA2TI7-377">
          <mxGeometry relative="1" as="geometry" />
        </mxCell>
        <mxCell id="WYmIHeGtq4Grt4gA2TI7-472" style="edgeStyle=orthogonalEdgeStyle;rounded=0;orthogonalLoop=1;jettySize=auto;html=1;entryX=0;entryY=0.25;entryDx=0;entryDy=0;dashed=1;endArrow=open;endFill=0;" edge="1" parent="1" source="WYmIHeGtq4Grt4gA2TI7-368" target="WYmIHeGtq4Grt4gA2TI7-374">
          <mxGeometry relative="1" as="geometry" />
        </mxCell>
        <mxCell id="WYmIHeGtq4Grt4gA2TI7-473" style="edgeStyle=orthogonalEdgeStyle;rounded=0;orthogonalLoop=1;jettySize=auto;html=1;entryX=0;entryY=0.5;entryDx=0;entryDy=0;dashed=1;endArrow=open;endFill=0;" edge="1" parent="1" source="WYmIHeGtq4Grt4gA2TI7-365" target="WYmIHeGtq4Grt4gA2TI7-465">
          <mxGeometry relative="1" as="geometry">
            <Array as="points">
              <mxPoint x="1090" y="3590" />
              <mxPoint x="1090" y="3788" />
            </Array>
          </mxGeometry>
        </mxCell>
        <mxCell id="WYmIHeGtq4Grt4gA2TI7-474" style="edgeStyle=orthogonalEdgeStyle;rounded=0;orthogonalLoop=1;jettySize=auto;html=1;entryX=0.623;entryY=-0.005;entryDx=0;entryDy=0;entryPerimeter=0;dashed=1;endArrow=open;endFill=0;" edge="1" parent="1" source="WYmIHeGtq4Grt4gA2TI7-368" target="WYmIHeGtq4Grt4gA2TI7-393">
          <mxGeometry relative="1" as="geometry" />
        </mxCell>
        <mxCell id="WYmIHeGtq4Grt4gA2TI7-475" style="edgeStyle=orthogonalEdgeStyle;rounded=0;orthogonalLoop=1;jettySize=auto;html=1;entryX=0.704;entryY=1;entryDx=0;entryDy=0;entryPerimeter=0;dashed=1;endArrow=open;endFill=0;" edge="1" parent="1" source="WYmIHeGtq4Grt4gA2TI7-368" target="WYmIHeGtq4Grt4gA2TI7-356">
          <mxGeometry relative="1" as="geometry" />
        </mxCell>
        <mxCell id="WYmIHeGtq4Grt4gA2TI7-476" style="edgeStyle=orthogonalEdgeStyle;rounded=0;orthogonalLoop=1;jettySize=auto;html=1;entryX=1;entryY=0.081;entryDx=0;entryDy=0;entryPerimeter=0;dashed=1;endArrow=open;endFill=0;" edge="1" parent="1" source="WYmIHeGtq4Grt4gA2TI7-369" target="WYmIHeGtq4Grt4gA2TI7-394">
          <mxGeometry relative="1" as="geometry" />
        </mxCell>
        <mxCell id="WYmIHeGtq4Grt4gA2TI7-478" style="edgeStyle=orthogonalEdgeStyle;rounded=0;orthogonalLoop=1;jettySize=auto;html=1;entryX=-0.003;entryY=-0.091;entryDx=0;entryDy=0;entryPerimeter=0;dashed=1;endArrow=open;endFill=0;" edge="1" parent="1" source="WYmIHeGtq4Grt4gA2TI7-371" target="WYmIHeGtq4Grt4gA2TI7-447">
          <mxGeometry relative="1" as="geometry">
            <Array as="points">
              <mxPoint x="1150" y="3870" />
              <mxPoint x="1150" y="3662" />
            </Array>
          </mxGeometry>
        </mxCell>
        <mxCell id="WYmIHeGtq4Grt4gA2TI7-479" style="edgeStyle=orthogonalEdgeStyle;rounded=0;orthogonalLoop=1;jettySize=auto;html=1;dashed=1;endArrow=open;endFill=0;" edge="1" parent="1" source="WYmIHeGtq4Grt4gA2TI7-371">
          <mxGeometry relative="1" as="geometry">
            <mxPoint x="1279" y="3526" as="targetPoint" />
            <Array as="points">
              <mxPoint x="1150" y="3870" />
              <mxPoint x="1150" y="3526" />
              <mxPoint x="1279" y="3526" />
            </Array>
          </mxGeometry>
        </mxCell>
        <mxCell id="WYmIHeGtq4Grt4gA2TI7-480" style="edgeStyle=orthogonalEdgeStyle;rounded=0;orthogonalLoop=1;jettySize=auto;html=1;entryX=0.001;entryY=0.125;entryDx=0;entryDy=0;entryPerimeter=0;dashed=1;endArrow=open;endFill=0;" edge="1" parent="1" source="WYmIHeGtq4Grt4gA2TI7-371" target="WYmIHeGtq4Grt4gA2TI7-376">
          <mxGeometry relative="1" as="geometry">
            <Array as="points">
              <mxPoint x="1150" y="3870" />
              <mxPoint x="1150" y="3409" />
            </Array>
          </mxGeometry>
        </mxCell>
        <mxCell id="WYmIHeGtq4Grt4gA2TI7-481" style="edgeStyle=orthogonalEdgeStyle;rounded=0;orthogonalLoop=1;jettySize=auto;html=1;entryX=0.001;entryY=0.097;entryDx=0;entryDy=0;entryPerimeter=0;dashed=1;endArrow=open;endFill=0;" edge="1" parent="1" source="WYmIHeGtq4Grt4gA2TI7-371" target="WYmIHeGtq4Grt4gA2TI7-373">
          <mxGeometry relative="1" as="geometry">
            <Array as="points">
              <mxPoint x="1150" y="3870" />
              <mxPoint x="1150" y="3289" />
            </Array>
          </mxGeometry>
        </mxCell>
        <mxCell id="WYmIHeGtq4Grt4gA2TI7-482" value="&lt;span style=&quot;font-weight: 400;&quot;&gt;AddCart_Controller&lt;/span&gt;" style="swimlane;fontStyle=1;align=center;verticalAlign=top;childLayout=stackLayout;horizontal=1;startSize=26;horizontalStack=0;resizeParent=1;resizeParentMax=0;resizeLast=0;collapsible=1;marginBottom=0;whiteSpace=wrap;html=1;" vertex="1" parent="1">
          <mxGeometry x="295" y="4760" width="620" height="106" as="geometry" />
        </mxCell>
        <mxCell id="WYmIHeGtq4Grt4gA2TI7-483" value="" style="line;strokeWidth=1;fillColor=none;align=left;verticalAlign=middle;spacingTop=-1;spacingLeft=3;spacingRight=3;rotatable=0;labelPosition=right;points=[];portConstraint=eastwest;strokeColor=inherit;" vertex="1" parent="WYmIHeGtq4Grt4gA2TI7-482">
          <mxGeometry y="26" width="620" height="8" as="geometry" />
        </mxCell>
        <mxCell id="WYmIHeGtq4Grt4gA2TI7-484" value="# doGet(req : HttpServletRequest , resp : HttpServletResponse) : void&lt;div&gt;&lt;br&gt;&lt;/div&gt;&lt;div&gt;&lt;div&gt;# doPost(request : HttpServletRequest, response : HttpServletResponse) : void&lt;/div&gt;&lt;/div&gt;" style="text;strokeColor=none;fillColor=none;align=left;verticalAlign=top;spacingLeft=4;spacingRight=4;overflow=hidden;rotatable=0;points=[[0,0.5],[1,0.5]];portConstraint=eastwest;whiteSpace=wrap;html=1;" vertex="1" parent="WYmIHeGtq4Grt4gA2TI7-482">
          <mxGeometry y="34" width="620" height="72" as="geometry" />
        </mxCell>
        <mxCell id="WYmIHeGtq4Grt4gA2TI7-485" value="HttpServletRequest" style="swimlane;fontStyle=1;align=center;verticalAlign=top;childLayout=stackLayout;horizontal=1;startSize=26;horizontalStack=0;resizeParent=1;resizeParentMax=0;resizeLast=0;collapsible=1;marginBottom=0;whiteSpace=wrap;html=1;" vertex="1" parent="1">
          <mxGeometry x="1110" y="4930" width="210" height="100" as="geometry" />
        </mxCell>
        <mxCell id="WYmIHeGtq4Grt4gA2TI7-486" value="getParameter() : String&amp;nbsp;&lt;div&gt;getParameterValues() : String&lt;/div&gt;&lt;div&gt;setAttribute(String, Object) : void&lt;/div&gt;&lt;div&gt;getCookies() : Cookie[]&lt;/div&gt;" style="text;strokeColor=none;fillColor=none;align=left;verticalAlign=top;spacingLeft=4;spacingRight=4;overflow=hidden;rotatable=0;points=[[0,0.5],[1,0.5]];portConstraint=eastwest;whiteSpace=wrap;html=1;" vertex="1" parent="WYmIHeGtq4Grt4gA2TI7-485">
          <mxGeometry y="26" width="210" height="74" as="geometry" />
        </mxCell>
        <mxCell id="WYmIHeGtq4Grt4gA2TI7-487" value="HttpServletResponse" style="swimlane;fontStyle=1;align=center;verticalAlign=top;childLayout=stackLayout;horizontal=1;startSize=26;horizontalStack=0;resizeParent=1;resizeParentMax=0;resizeLast=0;collapsible=1;marginBottom=0;whiteSpace=wrap;html=1;" vertex="1" parent="1">
          <mxGeometry x="1110" y="5074" width="200" height="70" as="geometry" />
        </mxCell>
        <mxCell id="WYmIHeGtq4Grt4gA2TI7-488" value="sendRedirect(String) : void&lt;div&gt;addCookie(Cookie) : void&lt;/div&gt;" style="text;strokeColor=none;fillColor=none;align=left;verticalAlign=top;spacingLeft=4;spacingRight=4;overflow=hidden;rotatable=0;points=[[0,0.5],[1,0.5]];portConstraint=eastwest;whiteSpace=wrap;html=1;" vertex="1" parent="WYmIHeGtq4Grt4gA2TI7-487">
          <mxGeometry y="26" width="200" height="44" as="geometry" />
        </mxCell>
        <mxCell id="WYmIHeGtq4Grt4gA2TI7-489" value="RequestDispatcher" style="swimlane;fontStyle=1;align=center;verticalAlign=top;childLayout=stackLayout;horizontal=1;startSize=26;horizontalStack=0;resizeParent=1;resizeParentMax=0;resizeLast=0;collapsible=1;marginBottom=0;whiteSpace=wrap;html=1;" vertex="1" parent="1">
          <mxGeometry x="1110" y="5194" width="320" height="70" as="geometry" />
        </mxCell>
        <mxCell id="WYmIHeGtq4Grt4gA2TI7-490" value="forward(HttpServletRequest, HttpServletResponse) : void&lt;div&gt;getRequestDispatcher() : RequestDispatcher&lt;/div&gt;" style="text;strokeColor=none;fillColor=none;align=left;verticalAlign=top;spacingLeft=4;spacingRight=4;overflow=hidden;rotatable=0;points=[[0,0.5],[1,0.5]];portConstraint=eastwest;whiteSpace=wrap;html=1;" vertex="1" parent="WYmIHeGtq4Grt4gA2TI7-489">
          <mxGeometry y="26" width="320" height="44" as="geometry" />
        </mxCell>
        <mxCell id="WYmIHeGtq4Grt4gA2TI7-491" style="edgeStyle=orthogonalEdgeStyle;rounded=0;orthogonalLoop=1;jettySize=auto;html=1;entryX=0.009;entryY=0.583;entryDx=0;entryDy=0;entryPerimeter=0;dashed=1;endArrow=open;endFill=0;" edge="1" parent="1" source="WYmIHeGtq4Grt4gA2TI7-484" target="WYmIHeGtq4Grt4gA2TI7-486">
          <mxGeometry relative="1" as="geometry" />
        </mxCell>
        <mxCell id="WYmIHeGtq4Grt4gA2TI7-492" style="edgeStyle=orthogonalEdgeStyle;rounded=0;orthogonalLoop=1;jettySize=auto;html=1;dashed=1;endArrow=open;endFill=0;" edge="1" parent="1" source="WYmIHeGtq4Grt4gA2TI7-484" target="WYmIHeGtq4Grt4gA2TI7-488">
          <mxGeometry relative="1" as="geometry" />
        </mxCell>
        <mxCell id="WYmIHeGtq4Grt4gA2TI7-493" style="edgeStyle=orthogonalEdgeStyle;rounded=0;orthogonalLoop=1;jettySize=auto;html=1;entryX=0;entryY=0.5;entryDx=0;entryDy=0;dashed=1;endArrow=open;endFill=0;" edge="1" parent="1" source="WYmIHeGtq4Grt4gA2TI7-484" target="WYmIHeGtq4Grt4gA2TI7-490">
          <mxGeometry relative="1" as="geometry" />
        </mxCell>
        <mxCell id="WYmIHeGtq4Grt4gA2TI7-494" value="String" style="swimlane;fontStyle=1;align=center;verticalAlign=top;childLayout=stackLayout;horizontal=1;startSize=26;horizontalStack=0;resizeParent=1;resizeParentMax=0;resizeLast=0;collapsible=1;marginBottom=0;whiteSpace=wrap;html=1;" vertex="1" parent="1">
          <mxGeometry x="1110" y="4820" width="200" height="70" as="geometry" />
        </mxCell>
        <mxCell id="WYmIHeGtq4Grt4gA2TI7-495" value="trim() : String&lt;div&gt;equals(object) : boolean&lt;/div&gt;" style="text;strokeColor=none;fillColor=none;align=left;verticalAlign=top;spacingLeft=4;spacingRight=4;overflow=hidden;rotatable=0;points=[[0,0.5],[1,0.5]];portConstraint=eastwest;whiteSpace=wrap;html=1;" vertex="1" parent="WYmIHeGtq4Grt4gA2TI7-494">
          <mxGeometry y="26" width="200" height="44" as="geometry" />
        </mxCell>
        <mxCell id="WYmIHeGtq4Grt4gA2TI7-496" style="edgeStyle=orthogonalEdgeStyle;rounded=0;orthogonalLoop=1;jettySize=auto;html=1;dashed=1;endArrow=open;endFill=0;" edge="1" parent="1" source="WYmIHeGtq4Grt4gA2TI7-484" target="WYmIHeGtq4Grt4gA2TI7-495">
          <mxGeometry relative="1" as="geometry" />
        </mxCell>
        <mxCell id="WYmIHeGtq4Grt4gA2TI7-497" value="Book" style="swimlane;fontStyle=1;align=center;verticalAlign=top;childLayout=stackLayout;horizontal=1;startSize=26;horizontalStack=0;resizeParent=1;resizeParentMax=0;resizeLast=0;collapsible=1;marginBottom=0;whiteSpace=wrap;html=1;" vertex="1" parent="1">
          <mxGeometry x="-230" y="4880" width="270" height="250" as="geometry" />
        </mxCell>
        <mxCell id="WYmIHeGtq4Grt4gA2TI7-498" value="- bookId : String&lt;div&gt;- name : String&lt;/div&gt;&lt;div&gt;- unitPrice : int&lt;/div&gt;&lt;div&gt;- author : String&lt;/div&gt;&lt;div&gt;- description : String&lt;/div&gt;&lt;div&gt;- publisher : String&lt;/div&gt;&lt;div&gt;- category : String&lt;/div&gt;&lt;div&gt;- unitsInStock : long&lt;/div&gt;&lt;div&gt;- releaseDate : String&lt;/div&gt;&lt;div&gt;- condition : String&lt;/div&gt;&lt;div&gt;- filename : String&lt;/div&gt;&lt;div&gt;- quantity : int&lt;/div&gt;" style="text;strokeColor=none;fillColor=none;align=left;verticalAlign=top;spacingLeft=4;spacingRight=4;overflow=hidden;rotatable=0;points=[[0,0.5],[1,0.5]];portConstraint=eastwest;whiteSpace=wrap;html=1;" vertex="1" parent="WYmIHeGtq4Grt4gA2TI7-497">
          <mxGeometry y="26" width="270" height="184" as="geometry" />
        </mxCell>
        <mxCell id="WYmIHeGtq4Grt4gA2TI7-499" value="" style="line;strokeWidth=1;fillColor=none;align=left;verticalAlign=middle;spacingTop=-1;spacingLeft=3;spacingRight=3;rotatable=0;labelPosition=right;points=[];portConstraint=eastwest;strokeColor=inherit;" vertex="1" parent="WYmIHeGtq4Grt4gA2TI7-497">
          <mxGeometry y="210" width="270" height="8" as="geometry" />
        </mxCell>
        <mxCell id="WYmIHeGtq4Grt4gA2TI7-500" value="+ getter/setter 생략" style="text;strokeColor=none;fillColor=none;align=left;verticalAlign=top;spacingLeft=4;spacingRight=4;overflow=hidden;rotatable=0;points=[[0,0.5],[1,0.5]];portConstraint=eastwest;whiteSpace=wrap;html=1;" vertex="1" parent="WYmIHeGtq4Grt4gA2TI7-497">
          <mxGeometry y="218" width="270" height="32" as="geometry" />
        </mxCell>
        <mxCell id="WYmIHeGtq4Grt4gA2TI7-511" style="edgeStyle=orthogonalEdgeStyle;rounded=0;orthogonalLoop=1;jettySize=auto;html=1;entryX=0.5;entryY=0;entryDx=0;entryDy=0;dashed=1;endArrow=open;endFill=0;" edge="1" parent="1" source="WYmIHeGtq4Grt4gA2TI7-501" target="WYmIHeGtq4Grt4gA2TI7-505">
          <mxGeometry relative="1" as="geometry" />
        </mxCell>
        <mxCell id="WYmIHeGtq4Grt4gA2TI7-501" value="BookRepository" style="swimlane;fontStyle=1;align=center;verticalAlign=top;childLayout=stackLayout;horizontal=1;startSize=26;horizontalStack=0;resizeParent=1;resizeParentMax=0;resizeLast=0;collapsible=1;marginBottom=0;whiteSpace=wrap;html=1;" vertex="1" parent="1">
          <mxGeometry x="-290" y="5210" width="370" height="210" as="geometry" />
        </mxCell>
        <mxCell id="WYmIHeGtq4Grt4gA2TI7-502" value="&lt;u&gt;- instance : BookRepository&lt;/u&gt;&lt;div&gt;conn : Connection&lt;/div&gt;&lt;div&gt;pstmt ; PreparedStatement&lt;/div&gt;&lt;div&gt;rs : ResultSet&lt;/div&gt;" style="text;strokeColor=none;fillColor=none;align=left;verticalAlign=top;spacingLeft=4;spacingRight=4;overflow=hidden;rotatable=0;points=[[0,0.5],[1,0.5]];portConstraint=eastwest;whiteSpace=wrap;html=1;" vertex="1" parent="WYmIHeGtq4Grt4gA2TI7-501">
          <mxGeometry y="26" width="370" height="74" as="geometry" />
        </mxCell>
        <mxCell id="WYmIHeGtq4Grt4gA2TI7-503" value="" style="line;strokeWidth=1;fillColor=none;align=left;verticalAlign=middle;spacingTop=-1;spacingLeft=3;spacingRight=3;rotatable=0;labelPosition=right;points=[];portConstraint=eastwest;strokeColor=inherit;" vertex="1" parent="WYmIHeGtq4Grt4gA2TI7-501">
          <mxGeometry y="100" width="370" height="8" as="geometry" />
        </mxCell>
        <mxCell id="WYmIHeGtq4Grt4gA2TI7-504" value="&lt;div&gt;&lt;div&gt;&lt;u&gt;+ getInstance() : BookRepository&lt;/u&gt;&lt;/div&gt;&lt;/div&gt;&lt;div&gt;+ getAllBooks() : ArrayList&amp;lt;Book&amp;gt;&lt;br&gt;&lt;/div&gt;&lt;div&gt;+ getBookById(bookId : String) : Book&lt;/div&gt;&lt;div&gt;+ addBook(book : Book) : void&lt;/div&gt;&lt;div&gt;+ update(book : Book) : void&lt;/div&gt;&lt;div&gt;+ delBook(bookId : String) : void&lt;/div&gt;" style="text;strokeColor=none;fillColor=none;align=left;verticalAlign=top;spacingLeft=4;spacingRight=4;overflow=hidden;rotatable=0;points=[[0,0.5],[1,0.5]];portConstraint=eastwest;whiteSpace=wrap;html=1;" vertex="1" parent="WYmIHeGtq4Grt4gA2TI7-501">
          <mxGeometry y="108" width="370" height="102" as="geometry" />
        </mxCell>
        <mxCell id="WYmIHeGtq4Grt4gA2TI7-505" value="ArrayList&amp;lt;Book&amp;gt;" style="swimlane;fontStyle=1;align=center;verticalAlign=top;childLayout=stackLayout;horizontal=1;startSize=26;horizontalStack=0;resizeParent=1;resizeParentMax=0;resizeLast=0;collapsible=1;marginBottom=0;whiteSpace=wrap;html=1;" vertex="1" parent="1">
          <mxGeometry x="-205" y="5460" width="200" height="100" as="geometry" />
        </mxCell>
        <mxCell id="WYmIHeGtq4Grt4gA2TI7-506" value="add(e Book) : void&lt;div&gt;size() : int&lt;/div&gt;&lt;div&gt;clear() : void&lt;/div&gt;&lt;div&gt;remove() : void&lt;/div&gt;" style="text;strokeColor=none;fillColor=none;align=left;verticalAlign=top;spacingLeft=4;spacingRight=4;overflow=hidden;rotatable=0;points=[[0,0.5],[1,0.5]];portConstraint=eastwest;whiteSpace=wrap;html=1;" vertex="1" parent="WYmIHeGtq4Grt4gA2TI7-505">
          <mxGeometry y="26" width="200" height="74" as="geometry" />
        </mxCell>
        <mxCell id="WYmIHeGtq4Grt4gA2TI7-507" style="edgeStyle=orthogonalEdgeStyle;rounded=0;orthogonalLoop=1;jettySize=auto;html=1;entryX=0.989;entryY=0.251;entryDx=0;entryDy=0;entryPerimeter=0;dashed=1;endArrow=open;endFill=0;exitX=0;exitY=0.5;exitDx=0;exitDy=0;" edge="1" parent="1" source="WYmIHeGtq4Grt4gA2TI7-484" target="WYmIHeGtq4Grt4gA2TI7-498">
          <mxGeometry relative="1" as="geometry" />
        </mxCell>
        <mxCell id="WYmIHeGtq4Grt4gA2TI7-509" style="edgeStyle=orthogonalEdgeStyle;rounded=0;orthogonalLoop=1;jettySize=auto;html=1;entryX=1.01;entryY=0.174;entryDx=0;entryDy=0;entryPerimeter=0;dashed=1;endArrow=open;endFill=0;" edge="1" parent="1" source="WYmIHeGtq4Grt4gA2TI7-484" target="WYmIHeGtq4Grt4gA2TI7-504">
          <mxGeometry relative="1" as="geometry" />
        </mxCell>
        <mxCell id="WYmIHeGtq4Grt4gA2TI7-510" style="edgeStyle=orthogonalEdgeStyle;rounded=0;orthogonalLoop=1;jettySize=auto;html=1;entryX=1;entryY=0.5;entryDx=0;entryDy=0;dashed=1;endArrow=open;endFill=0;" edge="1" parent="1" source="WYmIHeGtq4Grt4gA2TI7-484" target="WYmIHeGtq4Grt4gA2TI7-506">
          <mxGeometry relative="1" as="geometry" />
        </mxCell>
        <mxCell id="WYmIHeGtq4Grt4gA2TI7-512" value="HttpSession" style="swimlane;fontStyle=1;align=center;verticalAlign=top;childLayout=stackLayout;horizontal=1;startSize=26;horizontalStack=0;resizeParent=1;resizeParentMax=0;resizeLast=0;collapsible=1;marginBottom=0;whiteSpace=wrap;html=1;" vertex="1" parent="1">
          <mxGeometry x="1110" y="5290" width="200" height="100" as="geometry" />
        </mxCell>
        <mxCell id="WYmIHeGtq4Grt4gA2TI7-513" value="getSession(boolean) : HttpSession&lt;div&gt;invalidate() : void&lt;/div&gt;&lt;div&gt;setAttribute(String, Object) : void&lt;/div&gt;&lt;div&gt;getId() : String&lt;/div&gt;" style="text;strokeColor=none;fillColor=none;align=left;verticalAlign=top;spacingLeft=4;spacingRight=4;overflow=hidden;rotatable=0;points=[[0,0.5],[1,0.5]];portConstraint=eastwest;whiteSpace=wrap;html=1;" vertex="1" parent="WYmIHeGtq4Grt4gA2TI7-512">
          <mxGeometry y="26" width="200" height="74" as="geometry" />
        </mxCell>
        <mxCell id="WYmIHeGtq4Grt4gA2TI7-514" style="edgeStyle=orthogonalEdgeStyle;rounded=0;orthogonalLoop=1;jettySize=auto;html=1;entryX=0;entryY=0.5;entryDx=0;entryDy=0;dashed=1;endArrow=open;endFill=0;" edge="1" parent="1" source="WYmIHeGtq4Grt4gA2TI7-484" target="WYmIHeGtq4Grt4gA2TI7-513">
          <mxGeometry relative="1" as="geometry" />
        </mxCell>
        <mxCell id="WYmIHeGtq4Grt4gA2TI7-515" value="DBConnection" style="swimlane;fontStyle=1;align=center;verticalAlign=top;childLayout=stackLayout;horizontal=1;startSize=26;horizontalStack=0;resizeParent=1;resizeParentMax=0;resizeLast=0;collapsible=1;marginBottom=0;whiteSpace=wrap;html=1;" vertex="1" parent="1">
          <mxGeometry x="280" y="5520" width="210" height="60" as="geometry" />
        </mxCell>
        <mxCell id="WYmIHeGtq4Grt4gA2TI7-516" value="" style="line;strokeWidth=1;fillColor=none;align=left;verticalAlign=middle;spacingTop=-1;spacingLeft=3;spacingRight=3;rotatable=0;labelPosition=right;points=[];portConstraint=eastwest;strokeColor=inherit;" vertex="1" parent="WYmIHeGtq4Grt4gA2TI7-515">
          <mxGeometry y="26" width="210" height="8" as="geometry" />
        </mxCell>
        <mxCell id="WYmIHeGtq4Grt4gA2TI7-517" value="+ getConnection() : Connection" style="text;strokeColor=none;fillColor=none;align=left;verticalAlign=top;spacingLeft=4;spacingRight=4;overflow=hidden;rotatable=0;points=[[0,0.5],[1,0.5]];portConstraint=eastwest;whiteSpace=wrap;html=1;" vertex="1" parent="WYmIHeGtq4Grt4gA2TI7-515">
          <mxGeometry y="34" width="210" height="26" as="geometry" />
        </mxCell>
        <mxCell id="WYmIHeGtq4Grt4gA2TI7-518" value="DriverManager" style="swimlane;fontStyle=1;align=center;verticalAlign=top;childLayout=stackLayout;horizontal=1;startSize=26;horizontalStack=0;resizeParent=1;resizeParentMax=0;resizeLast=0;collapsible=1;marginBottom=0;whiteSpace=wrap;html=1;" vertex="1" parent="1">
          <mxGeometry x="550" y="5520" width="210" height="60" as="geometry" />
        </mxCell>
        <mxCell id="WYmIHeGtq4Grt4gA2TI7-519" value="" style="line;strokeWidth=1;fillColor=none;align=left;verticalAlign=middle;spacingTop=-1;spacingLeft=3;spacingRight=3;rotatable=0;labelPosition=right;points=[];portConstraint=eastwest;strokeColor=inherit;" vertex="1" parent="WYmIHeGtq4Grt4gA2TI7-518">
          <mxGeometry y="26" width="210" height="8" as="geometry" />
        </mxCell>
        <mxCell id="WYmIHeGtq4Grt4gA2TI7-520" value="+ getConnection() : Connection" style="text;strokeColor=none;fillColor=none;align=left;verticalAlign=top;spacingLeft=4;spacingRight=4;overflow=hidden;rotatable=0;points=[[0,0.5],[1,0.5]];portConstraint=eastwest;whiteSpace=wrap;html=1;" vertex="1" parent="WYmIHeGtq4Grt4gA2TI7-518">
          <mxGeometry y="34" width="210" height="26" as="geometry" />
        </mxCell>
        <mxCell id="WYmIHeGtq4Grt4gA2TI7-521" value="Connection" style="swimlane;fontStyle=1;align=center;verticalAlign=top;childLayout=stackLayout;horizontal=1;startSize=26;horizontalStack=0;resizeParent=1;resizeParentMax=0;resizeLast=0;collapsible=1;marginBottom=0;whiteSpace=wrap;html=1;" vertex="1" parent="1">
          <mxGeometry x="280" y="5620" width="260" height="60" as="geometry" />
        </mxCell>
        <mxCell id="WYmIHeGtq4Grt4gA2TI7-522" value="" style="line;strokeWidth=1;fillColor=none;align=left;verticalAlign=middle;spacingTop=-1;spacingLeft=3;spacingRight=3;rotatable=0;labelPosition=right;points=[];portConstraint=eastwest;strokeColor=inherit;" vertex="1" parent="WYmIHeGtq4Grt4gA2TI7-521">
          <mxGeometry y="26" width="260" height="8" as="geometry" />
        </mxCell>
        <mxCell id="WYmIHeGtq4Grt4gA2TI7-523" value="prepareStatement(String) : PrepareStatement" style="text;strokeColor=none;fillColor=none;align=left;verticalAlign=top;spacingLeft=4;spacingRight=4;overflow=hidden;rotatable=0;points=[[0,0.5],[1,0.5]];portConstraint=eastwest;whiteSpace=wrap;html=1;" vertex="1" parent="WYmIHeGtq4Grt4gA2TI7-521">
          <mxGeometry y="34" width="260" height="26" as="geometry" />
        </mxCell>
        <mxCell id="WYmIHeGtq4Grt4gA2TI7-524" value="PreparedStatement" style="swimlane;fontStyle=1;align=center;verticalAlign=top;childLayout=stackLayout;horizontal=1;startSize=26;horizontalStack=0;resizeParent=1;resizeParentMax=0;resizeLast=0;collapsible=1;marginBottom=0;whiteSpace=wrap;html=1;" vertex="1" parent="1">
          <mxGeometry x="280" y="5719" width="250" height="100" as="geometry" />
        </mxCell>
        <mxCell id="WYmIHeGtq4Grt4gA2TI7-525" value="" style="line;strokeWidth=1;fillColor=none;align=left;verticalAlign=middle;spacingTop=-1;spacingLeft=3;spacingRight=3;rotatable=0;labelPosition=right;points=[];portConstraint=eastwest;strokeColor=inherit;" vertex="1" parent="WYmIHeGtq4Grt4gA2TI7-524">
          <mxGeometry y="26" width="250" height="8" as="geometry" />
        </mxCell>
        <mxCell id="WYmIHeGtq4Grt4gA2TI7-526" value="setString(int,String) : void&lt;div&gt;&lt;span style=&quot;background-color: initial;&quot;&gt;executeQuery() : ResultSet&lt;/span&gt;&lt;/div&gt;" style="text;strokeColor=none;fillColor=none;align=left;verticalAlign=top;spacingLeft=4;spacingRight=4;overflow=hidden;rotatable=0;points=[[0,0.5],[1,0.5]];portConstraint=eastwest;whiteSpace=wrap;html=1;" vertex="1" parent="WYmIHeGtq4Grt4gA2TI7-524">
          <mxGeometry y="34" width="250" height="66" as="geometry" />
        </mxCell>
        <mxCell id="WYmIHeGtq4Grt4gA2TI7-527" style="edgeStyle=orthogonalEdgeStyle;rounded=0;orthogonalLoop=1;jettySize=auto;html=1;entryX=-0.003;entryY=-0.076;entryDx=0;entryDy=0;entryPerimeter=0;dashed=1;endArrow=open;endFill=0;" edge="1" parent="1" source="WYmIHeGtq4Grt4gA2TI7-504" target="WYmIHeGtq4Grt4gA2TI7-517">
          <mxGeometry relative="1" as="geometry" />
        </mxCell>
        <mxCell id="WYmIHeGtq4Grt4gA2TI7-528" style="edgeStyle=orthogonalEdgeStyle;rounded=0;orthogonalLoop=1;jettySize=auto;html=1;entryX=0.002;entryY=0.223;entryDx=0;entryDy=0;entryPerimeter=0;dashed=1;endArrow=open;endFill=0;" edge="1" parent="1" source="WYmIHeGtq4Grt4gA2TI7-504" target="WYmIHeGtq4Grt4gA2TI7-523">
          <mxGeometry relative="1" as="geometry" />
        </mxCell>
        <mxCell id="WYmIHeGtq4Grt4gA2TI7-529" style="edgeStyle=orthogonalEdgeStyle;rounded=0;orthogonalLoop=1;jettySize=auto;html=1;entryX=0;entryY=0.5;entryDx=0;entryDy=0;dashed=1;endArrow=open;endFill=0;" edge="1" parent="1" source="WYmIHeGtq4Grt4gA2TI7-504" target="WYmIHeGtq4Grt4gA2TI7-526">
          <mxGeometry relative="1" as="geometry" />
        </mxCell>
        <mxCell id="WYmIHeGtq4Grt4gA2TI7-530" style="edgeStyle=orthogonalEdgeStyle;rounded=0;orthogonalLoop=1;jettySize=auto;html=1;dashed=1;endArrow=open;endFill=0;" edge="1" parent="1" source="WYmIHeGtq4Grt4gA2TI7-517" target="WYmIHeGtq4Grt4gA2TI7-520">
          <mxGeometry relative="1" as="geometry" />
        </mxCell>
        <mxCell id="WYmIHeGtq4Grt4gA2TI7-531" value="ResultSet" style="swimlane;fontStyle=1;align=center;verticalAlign=top;childLayout=stackLayout;horizontal=1;startSize=26;horizontalStack=0;resizeParent=1;resizeParentMax=0;resizeLast=0;collapsible=1;marginBottom=0;whiteSpace=wrap;html=1;" vertex="1" parent="1">
          <mxGeometry x="280" y="5845" width="220" height="104" as="geometry" />
        </mxCell>
        <mxCell id="WYmIHeGtq4Grt4gA2TI7-532" value="" style="line;strokeWidth=1;fillColor=none;align=left;verticalAlign=middle;spacingTop=-1;spacingLeft=3;spacingRight=3;rotatable=0;labelPosition=right;points=[];portConstraint=eastwest;strokeColor=inherit;" vertex="1" parent="WYmIHeGtq4Grt4gA2TI7-531">
          <mxGeometry y="26" width="220" height="8" as="geometry" />
        </mxCell>
        <mxCell id="WYmIHeGtq4Grt4gA2TI7-533" value="&lt;div&gt;next() : boolean&lt;/div&gt;getString(int) : String&lt;div&gt;getLong(int) : long&lt;/div&gt;" style="text;strokeColor=none;fillColor=none;align=left;verticalAlign=top;spacingLeft=4;spacingRight=4;overflow=hidden;rotatable=0;points=[[0,0.5],[1,0.5]];portConstraint=eastwest;whiteSpace=wrap;html=1;" vertex="1" parent="WYmIHeGtq4Grt4gA2TI7-531">
          <mxGeometry y="34" width="220" height="70" as="geometry" />
        </mxCell>
        <mxCell id="WYmIHeGtq4Grt4gA2TI7-534" style="edgeStyle=orthogonalEdgeStyle;rounded=0;orthogonalLoop=1;jettySize=auto;html=1;entryX=0;entryY=0.5;entryDx=0;entryDy=0;dashed=1;endArrow=open;endFill=0;" edge="1" parent="1" source="WYmIHeGtq4Grt4gA2TI7-504" target="WYmIHeGtq4Grt4gA2TI7-533">
          <mxGeometry relative="1" as="geometry" />
        </mxCell>
        <mxCell id="WYmIHeGtq4Grt4gA2TI7-535" value="&lt;span style=&quot;font-weight: 400;&quot;&gt;OrderConfirm_Controller&lt;/span&gt;" style="swimlane;fontStyle=1;align=center;verticalAlign=top;childLayout=stackLayout;horizontal=1;startSize=26;horizontalStack=0;resizeParent=1;resizeParentMax=0;resizeLast=0;collapsible=1;marginBottom=0;whiteSpace=wrap;html=1;" vertex="1" parent="1">
          <mxGeometry x="280" y="4890" width="620" height="106" as="geometry" />
        </mxCell>
        <mxCell id="WYmIHeGtq4Grt4gA2TI7-536" value="" style="line;strokeWidth=1;fillColor=none;align=left;verticalAlign=middle;spacingTop=-1;spacingLeft=3;spacingRight=3;rotatable=0;labelPosition=right;points=[];portConstraint=eastwest;strokeColor=inherit;" vertex="1" parent="WYmIHeGtq4Grt4gA2TI7-535">
          <mxGeometry y="26" width="620" height="8" as="geometry" />
        </mxCell>
        <mxCell id="WYmIHeGtq4Grt4gA2TI7-537" value="# doGet(req : HttpServletRequest , resp : HttpServletResponse) : void&lt;div&gt;&lt;br&gt;&lt;/div&gt;&lt;div&gt;&lt;div&gt;# doPost(request : HttpServletRequest, response : HttpServletResponse) : void&lt;/div&gt;&lt;/div&gt;" style="text;strokeColor=none;fillColor=none;align=left;verticalAlign=top;spacingLeft=4;spacingRight=4;overflow=hidden;rotatable=0;points=[[0,0.5],[1,0.5]];portConstraint=eastwest;whiteSpace=wrap;html=1;" vertex="1" parent="WYmIHeGtq4Grt4gA2TI7-535">
          <mxGeometry y="34" width="620" height="72" as="geometry" />
        </mxCell>
        <mxCell id="WYmIHeGtq4Grt4gA2TI7-538" style="edgeStyle=orthogonalEdgeStyle;rounded=0;orthogonalLoop=1;jettySize=auto;html=1;entryX=0.002;entryY=0.33;entryDx=0;entryDy=0;entryPerimeter=0;dashed=1;endArrow=open;endFill=0;" edge="1" parent="1" source="WYmIHeGtq4Grt4gA2TI7-537" target="WYmIHeGtq4Grt4gA2TI7-486">
          <mxGeometry relative="1" as="geometry">
            <mxPoint x="1090" y="4980" as="targetPoint" />
          </mxGeometry>
        </mxCell>
        <mxCell id="WYmIHeGtq4Grt4gA2TI7-539" style="edgeStyle=orthogonalEdgeStyle;rounded=0;orthogonalLoop=1;jettySize=auto;html=1;entryX=-0.001;entryY=0.266;entryDx=0;entryDy=0;entryPerimeter=0;dashed=1;endArrow=open;endFill=0;" edge="1" parent="1" source="WYmIHeGtq4Grt4gA2TI7-537" target="WYmIHeGtq4Grt4gA2TI7-488">
          <mxGeometry relative="1" as="geometry" />
        </mxCell>
        <mxCell id="WYmIHeGtq4Grt4gA2TI7-540" style="edgeStyle=orthogonalEdgeStyle;rounded=0;orthogonalLoop=1;jettySize=auto;html=1;entryX=-0.005;entryY=0.294;entryDx=0;entryDy=0;entryPerimeter=0;dashed=1;endArrow=open;endFill=0;" edge="1" parent="1" source="WYmIHeGtq4Grt4gA2TI7-537" target="WYmIHeGtq4Grt4gA2TI7-490">
          <mxGeometry relative="1" as="geometry" />
        </mxCell>
        <mxCell id="WYmIHeGtq4Grt4gA2TI7-541" value="Cookie" style="swimlane;fontStyle=1;align=center;verticalAlign=top;childLayout=stackLayout;horizontal=1;startSize=26;horizontalStack=0;resizeParent=1;resizeParentMax=0;resizeLast=0;collapsible=1;marginBottom=0;whiteSpace=wrap;html=1;" vertex="1" parent="1">
          <mxGeometry x="1110" y="5410" width="200" height="70" as="geometry" />
        </mxCell>
        <mxCell id="WYmIHeGtq4Grt4gA2TI7-542" value="getName() : String&lt;div&gt;getValue() : String&lt;/div&gt;&lt;div&gt;setMaxAge(int) : void&lt;/div&gt;" style="text;strokeColor=none;fillColor=none;align=left;verticalAlign=top;spacingLeft=4;spacingRight=4;overflow=hidden;rotatable=0;points=[[0,0.5],[1,0.5]];portConstraint=eastwest;whiteSpace=wrap;html=1;" vertex="1" parent="WYmIHeGtq4Grt4gA2TI7-541">
          <mxGeometry y="26" width="200" height="44" as="geometry" />
        </mxCell>
        <mxCell id="WYmIHeGtq4Grt4gA2TI7-543" style="edgeStyle=orthogonalEdgeStyle;rounded=0;orthogonalLoop=1;jettySize=auto;html=1;entryX=0.009;entryY=0.207;entryDx=0;entryDy=0;entryPerimeter=0;dashed=1;endArrow=open;endFill=0;" edge="1" parent="1" source="WYmIHeGtq4Grt4gA2TI7-537" target="WYmIHeGtq4Grt4gA2TI7-495">
          <mxGeometry relative="1" as="geometry" />
        </mxCell>
        <mxCell id="WYmIHeGtq4Grt4gA2TI7-544" style="edgeStyle=orthogonalEdgeStyle;rounded=0;orthogonalLoop=1;jettySize=auto;html=1;dashed=1;endArrow=open;endFill=0;" edge="1" parent="1" source="WYmIHeGtq4Grt4gA2TI7-537" target="WYmIHeGtq4Grt4gA2TI7-542">
          <mxGeometry relative="1" as="geometry" />
        </mxCell>
        <mxCell id="WYmIHeGtq4Grt4gA2TI7-545" value="URLDecoder" style="swimlane;fontStyle=1;align=center;verticalAlign=top;childLayout=stackLayout;horizontal=1;startSize=26;horizontalStack=0;resizeParent=1;resizeParentMax=0;resizeLast=0;collapsible=1;marginBottom=0;whiteSpace=wrap;html=1;" vertex="1" parent="1">
          <mxGeometry x="1110" y="5500" width="200" height="70" as="geometry" />
        </mxCell>
        <mxCell id="WYmIHeGtq4Grt4gA2TI7-546" value="decode(String, String) : String&lt;div&gt;&lt;br&gt;&lt;/div&gt;" style="text;strokeColor=none;fillColor=none;align=left;verticalAlign=top;spacingLeft=4;spacingRight=4;overflow=hidden;rotatable=0;points=[[0,0.5],[1,0.5]];portConstraint=eastwest;whiteSpace=wrap;html=1;" vertex="1" parent="WYmIHeGtq4Grt4gA2TI7-545">
          <mxGeometry y="26" width="200" height="44" as="geometry" />
        </mxCell>
        <mxCell id="WYmIHeGtq4Grt4gA2TI7-547" value="&lt;span style=&quot;font-weight: 400;&quot;&gt;Remove_AllCart_Controller&lt;/span&gt;" style="swimlane;fontStyle=1;align=center;verticalAlign=top;childLayout=stackLayout;horizontal=1;startSize=26;horizontalStack=0;resizeParent=1;resizeParentMax=0;resizeLast=0;collapsible=1;marginBottom=0;whiteSpace=wrap;html=1;" vertex="1" parent="1">
          <mxGeometry x="280" y="5020" width="620" height="106" as="geometry" />
        </mxCell>
        <mxCell id="WYmIHeGtq4Grt4gA2TI7-548" value="" style="line;strokeWidth=1;fillColor=none;align=left;verticalAlign=middle;spacingTop=-1;spacingLeft=3;spacingRight=3;rotatable=0;labelPosition=right;points=[];portConstraint=eastwest;strokeColor=inherit;" vertex="1" parent="WYmIHeGtq4Grt4gA2TI7-547">
          <mxGeometry y="26" width="620" height="8" as="geometry" />
        </mxCell>
        <mxCell id="WYmIHeGtq4Grt4gA2TI7-549" value="# doGet(req : HttpServletRequest , resp : HttpServletResponse) : void&lt;div&gt;&lt;br&gt;&lt;/div&gt;&lt;div&gt;&lt;div&gt;# doPost(request : HttpServletRequest, response : HttpServletResponse) : void&lt;/div&gt;&lt;/div&gt;" style="text;strokeColor=none;fillColor=none;align=left;verticalAlign=top;spacingLeft=4;spacingRight=4;overflow=hidden;rotatable=0;points=[[0,0.5],[1,0.5]];portConstraint=eastwest;whiteSpace=wrap;html=1;" vertex="1" parent="WYmIHeGtq4Grt4gA2TI7-547">
          <mxGeometry y="34" width="620" height="72" as="geometry" />
        </mxCell>
        <mxCell id="WYmIHeGtq4Grt4gA2TI7-550" style="edgeStyle=orthogonalEdgeStyle;rounded=0;orthogonalLoop=1;jettySize=auto;html=1;entryX=-0.003;entryY=0.822;entryDx=0;entryDy=0;entryPerimeter=0;dashed=1;endArrow=open;endFill=0;" edge="1" parent="1" source="WYmIHeGtq4Grt4gA2TI7-549" target="WYmIHeGtq4Grt4gA2TI7-486">
          <mxGeometry relative="1" as="geometry">
            <Array as="points">
              <mxPoint x="990" y="5090" />
              <mxPoint x="990" y="5017" />
            </Array>
          </mxGeometry>
        </mxCell>
        <mxCell id="WYmIHeGtq4Grt4gA2TI7-551" style="edgeStyle=orthogonalEdgeStyle;rounded=0;orthogonalLoop=1;jettySize=auto;html=1;entryX=-0.003;entryY=0.833;entryDx=0;entryDy=0;entryPerimeter=0;dashed=1;endArrow=open;endFill=0;" edge="1" parent="1" source="WYmIHeGtq4Grt4gA2TI7-549" target="WYmIHeGtq4Grt4gA2TI7-488">
          <mxGeometry relative="1" as="geometry">
            <Array as="points">
              <mxPoint x="990" y="5090" />
              <mxPoint x="990" y="5137" />
            </Array>
          </mxGeometry>
        </mxCell>
        <mxCell id="WYmIHeGtq4Grt4gA2TI7-552" style="edgeStyle=orthogonalEdgeStyle;rounded=0;orthogonalLoop=1;jettySize=auto;html=1;entryX=0;entryY=0.033;entryDx=0;entryDy=0;entryPerimeter=0;dashed=1;endArrow=open;endFill=0;" edge="1" parent="1" source="WYmIHeGtq4Grt4gA2TI7-549" target="WYmIHeGtq4Grt4gA2TI7-490">
          <mxGeometry relative="1" as="geometry">
            <Array as="points">
              <mxPoint x="990" y="5090" />
              <mxPoint x="990" y="5220" />
              <mxPoint x="1108" y="5220" />
              <mxPoint x="1108" y="5222" />
            </Array>
          </mxGeometry>
        </mxCell>
        <mxCell id="WYmIHeGtq4Grt4gA2TI7-553" style="edgeStyle=orthogonalEdgeStyle;rounded=0;orthogonalLoop=1;jettySize=auto;html=1;entryX=0;entryY=0.324;entryDx=0;entryDy=0;entryPerimeter=0;dashed=1;endArrow=open;endFill=0;" edge="1" parent="1" source="WYmIHeGtq4Grt4gA2TI7-549" target="WYmIHeGtq4Grt4gA2TI7-513">
          <mxGeometry relative="1" as="geometry">
            <Array as="points">
              <mxPoint x="990" y="5090" />
              <mxPoint x="990" y="5340" />
            </Array>
          </mxGeometry>
        </mxCell>
        <mxCell id="WYmIHeGtq4Grt4gA2TI7-554" style="edgeStyle=orthogonalEdgeStyle;rounded=0;orthogonalLoop=1;jettySize=auto;html=1;entryX=0.997;entryY=0.294;entryDx=0;entryDy=0;entryPerimeter=0;dashed=1;endArrow=open;endFill=0;" edge="1" parent="1" source="WYmIHeGtq4Grt4gA2TI7-549" target="WYmIHeGtq4Grt4gA2TI7-506">
          <mxGeometry relative="1" as="geometry" />
        </mxCell>
        <mxCell id="WYmIHeGtq4Grt4gA2TI7-555" value="&lt;span style=&quot;font-weight: 400;&quot;&gt;RemoveCart_Controller&lt;/span&gt;" style="swimlane;fontStyle=1;align=center;verticalAlign=top;childLayout=stackLayout;horizontal=1;startSize=26;horizontalStack=0;resizeParent=1;resizeParentMax=0;resizeLast=0;collapsible=1;marginBottom=0;whiteSpace=wrap;html=1;" vertex="1" parent="1">
          <mxGeometry x="280" y="5144" width="620" height="106" as="geometry" />
        </mxCell>
        <mxCell id="WYmIHeGtq4Grt4gA2TI7-556" value="" style="line;strokeWidth=1;fillColor=none;align=left;verticalAlign=middle;spacingTop=-1;spacingLeft=3;spacingRight=3;rotatable=0;labelPosition=right;points=[];portConstraint=eastwest;strokeColor=inherit;" vertex="1" parent="WYmIHeGtq4Grt4gA2TI7-555">
          <mxGeometry y="26" width="620" height="8" as="geometry" />
        </mxCell>
        <mxCell id="WYmIHeGtq4Grt4gA2TI7-557" value="# doGet(req : HttpServletRequest , resp : HttpServletResponse) : void&lt;div&gt;&lt;br&gt;&lt;/div&gt;&lt;div&gt;&lt;div&gt;# doPost(request : HttpServletRequest, response : HttpServletResponse) : void&lt;/div&gt;&lt;/div&gt;" style="text;strokeColor=none;fillColor=none;align=left;verticalAlign=top;spacingLeft=4;spacingRight=4;overflow=hidden;rotatable=0;points=[[0,0.5],[1,0.5]];portConstraint=eastwest;whiteSpace=wrap;html=1;" vertex="1" parent="WYmIHeGtq4Grt4gA2TI7-555">
          <mxGeometry y="34" width="620" height="72" as="geometry" />
        </mxCell>
        <mxCell id="WYmIHeGtq4Grt4gA2TI7-558" style="edgeStyle=orthogonalEdgeStyle;rounded=0;orthogonalLoop=1;jettySize=auto;html=1;entryX=0.015;entryY=0.157;entryDx=0;entryDy=0;entryPerimeter=0;dashed=1;endArrow=open;endFill=0;" edge="1" parent="1" source="WYmIHeGtq4Grt4gA2TI7-557" target="WYmIHeGtq4Grt4gA2TI7-486">
          <mxGeometry relative="1" as="geometry">
            <Array as="points">
              <mxPoint x="970" y="5214" />
              <mxPoint x="970" y="4968" />
            </Array>
          </mxGeometry>
        </mxCell>
        <mxCell id="WYmIHeGtq4Grt4gA2TI7-559" style="edgeStyle=orthogonalEdgeStyle;rounded=0;orthogonalLoop=1;jettySize=auto;html=1;entryX=0;entryY=0.25;entryDx=0;entryDy=0;dashed=1;endArrow=open;endFill=0;" edge="1" parent="1" source="WYmIHeGtq4Grt4gA2TI7-557" target="WYmIHeGtq4Grt4gA2TI7-487">
          <mxGeometry relative="1" as="geometry">
            <Array as="points">
              <mxPoint x="970" y="5214" />
              <mxPoint x="970" y="5092" />
            </Array>
          </mxGeometry>
        </mxCell>
        <mxCell id="WYmIHeGtq4Grt4gA2TI7-560" style="edgeStyle=orthogonalEdgeStyle;rounded=0;orthogonalLoop=1;jettySize=auto;html=1;entryX=0.007;entryY=0.763;entryDx=0;entryDy=0;entryPerimeter=0;dashed=1;endArrow=open;endFill=0;" edge="1" parent="1" source="WYmIHeGtq4Grt4gA2TI7-557" target="WYmIHeGtq4Grt4gA2TI7-490">
          <mxGeometry relative="1" as="geometry">
            <Array as="points">
              <mxPoint x="970" y="5214" />
              <mxPoint x="970" y="5254" />
            </Array>
          </mxGeometry>
        </mxCell>
        <mxCell id="WYmIHeGtq4Grt4gA2TI7-561" style="edgeStyle=orthogonalEdgeStyle;rounded=0;orthogonalLoop=1;jettySize=auto;html=1;entryX=0.005;entryY=0.103;entryDx=0;entryDy=0;entryPerimeter=0;dashed=1;endArrow=open;endFill=0;" edge="1" parent="1" source="WYmIHeGtq4Grt4gA2TI7-557" target="WYmIHeGtq4Grt4gA2TI7-513">
          <mxGeometry relative="1" as="geometry">
            <Array as="points">
              <mxPoint x="970" y="5214" />
              <mxPoint x="970" y="5324" />
            </Array>
          </mxGeometry>
        </mxCell>
        <mxCell id="WYmIHeGtq4Grt4gA2TI7-562" style="edgeStyle=orthogonalEdgeStyle;rounded=0;orthogonalLoop=1;jettySize=auto;html=1;entryX=1;entryY=0.25;entryDx=0;entryDy=0;dashed=1;endArrow=open;endFill=0;" edge="1" parent="1" source="WYmIHeGtq4Grt4gA2TI7-557" target="WYmIHeGtq4Grt4gA2TI7-505">
          <mxGeometry relative="1" as="geometry" />
        </mxCell>
        <mxCell id="WYmIHeGtq4Grt4gA2TI7-563" style="edgeStyle=orthogonalEdgeStyle;rounded=0;orthogonalLoop=1;jettySize=auto;html=1;entryX=0;entryY=0.5;entryDx=0;entryDy=0;dashed=1;endArrow=open;endFill=0;" edge="1" parent="1" source="WYmIHeGtq4Grt4gA2TI7-537" target="WYmIHeGtq4Grt4gA2TI7-546">
          <mxGeometry relative="1" as="geometry" />
        </mxCell>
        <mxCell id="WYmIHeGtq4Grt4gA2TI7-564" style="edgeStyle=orthogonalEdgeStyle;rounded=0;orthogonalLoop=1;jettySize=auto;html=1;entryX=1;entryY=0.5;entryDx=0;entryDy=0;dashed=1;endArrow=open;endFill=0;" edge="1" parent="1" source="WYmIHeGtq4Grt4gA2TI7-557" target="WYmIHeGtq4Grt4gA2TI7-498">
          <mxGeometry relative="1" as="geometry">
            <Array as="points">
              <mxPoint x="220" y="5214" />
              <mxPoint x="220" y="4998" />
            </Array>
          </mxGeometry>
        </mxCell>
        <mxCell id="WYmIHeGtq4Grt4gA2TI7-565" style="edgeStyle=orthogonalEdgeStyle;rounded=0;orthogonalLoop=1;jettySize=auto;html=1;entryX=0;entryY=0.25;entryDx=0;entryDy=0;dashed=1;endArrow=open;endFill=0;" edge="1" parent="1" source="WYmIHeGtq4Grt4gA2TI7-557" target="WYmIHeGtq4Grt4gA2TI7-494">
          <mxGeometry relative="1" as="geometry">
            <Array as="points">
              <mxPoint x="970" y="5214" />
              <mxPoint x="970" y="4838" />
            </Array>
          </mxGeometry>
        </mxCell>
        <mxCell id="WYmIHeGtq4Grt4gA2TI7-566" value="&lt;span style=&quot;font-weight: 400;&quot;&gt;Shippinginfo_Controller&lt;/span&gt;" style="swimlane;fontStyle=1;align=center;verticalAlign=top;childLayout=stackLayout;horizontal=1;startSize=26;horizontalStack=0;resizeParent=1;resizeParentMax=0;resizeLast=0;collapsible=1;marginBottom=0;whiteSpace=wrap;html=1;" vertex="1" parent="1">
          <mxGeometry x="280" y="5287" width="620" height="106" as="geometry" />
        </mxCell>
        <mxCell id="WYmIHeGtq4Grt4gA2TI7-567" value="" style="line;strokeWidth=1;fillColor=none;align=left;verticalAlign=middle;spacingTop=-1;spacingLeft=3;spacingRight=3;rotatable=0;labelPosition=right;points=[];portConstraint=eastwest;strokeColor=inherit;" vertex="1" parent="WYmIHeGtq4Grt4gA2TI7-566">
          <mxGeometry y="26" width="620" height="8" as="geometry" />
        </mxCell>
        <mxCell id="WYmIHeGtq4Grt4gA2TI7-568" value="# doGet(req : HttpServletRequest , resp : HttpServletResponse) : void&lt;div&gt;&lt;br&gt;&lt;/div&gt;&lt;div&gt;&lt;div&gt;# doPost(request : HttpServletRequest, response : HttpServletResponse) : void&lt;/div&gt;&lt;/div&gt;" style="text;strokeColor=none;fillColor=none;align=left;verticalAlign=top;spacingLeft=4;spacingRight=4;overflow=hidden;rotatable=0;points=[[0,0.5],[1,0.5]];portConstraint=eastwest;whiteSpace=wrap;html=1;" vertex="1" parent="WYmIHeGtq4Grt4gA2TI7-566">
          <mxGeometry y="34" width="620" height="72" as="geometry" />
        </mxCell>
        <mxCell id="WYmIHeGtq4Grt4gA2TI7-569" style="edgeStyle=orthogonalEdgeStyle;rounded=0;orthogonalLoop=1;jettySize=auto;html=1;entryX=-0.003;entryY=0.174;entryDx=0;entryDy=0;entryPerimeter=0;dashed=1;endArrow=open;endFill=0;" edge="1" parent="1" source="WYmIHeGtq4Grt4gA2TI7-568" target="WYmIHeGtq4Grt4gA2TI7-485">
          <mxGeometry relative="1" as="geometry">
            <Array as="points">
              <mxPoint x="950" y="5357" />
              <mxPoint x="950" y="4947" />
            </Array>
          </mxGeometry>
        </mxCell>
        <mxCell id="WYmIHeGtq4Grt4gA2TI7-570" style="edgeStyle=orthogonalEdgeStyle;rounded=0;orthogonalLoop=1;jettySize=auto;html=1;entryX=0.001;entryY=0.051;entryDx=0;entryDy=0;entryPerimeter=0;dashed=1;endArrow=open;endFill=0;" edge="1" parent="1" source="WYmIHeGtq4Grt4gA2TI7-568" target="WYmIHeGtq4Grt4gA2TI7-488">
          <mxGeometry relative="1" as="geometry">
            <Array as="points">
              <mxPoint x="950" y="5357" />
              <mxPoint x="950" y="5102" />
            </Array>
          </mxGeometry>
        </mxCell>
        <mxCell id="WYmIHeGtq4Grt4gA2TI7-571" style="edgeStyle=orthogonalEdgeStyle;rounded=0;orthogonalLoop=1;jettySize=auto;html=1;entryX=0;entryY=0.25;entryDx=0;entryDy=0;dashed=1;endArrow=open;endFill=0;" edge="1" parent="1" source="WYmIHeGtq4Grt4gA2TI7-568" target="WYmIHeGtq4Grt4gA2TI7-489">
          <mxGeometry relative="1" as="geometry">
            <Array as="points">
              <mxPoint x="950" y="5357" />
              <mxPoint x="950" y="5212" />
            </Array>
          </mxGeometry>
        </mxCell>
        <mxCell id="WYmIHeGtq4Grt4gA2TI7-572" style="edgeStyle=orthogonalEdgeStyle;rounded=0;orthogonalLoop=1;jettySize=auto;html=1;entryX=0.005;entryY=-0.08;entryDx=0;entryDy=0;entryPerimeter=0;dashed=1;endArrow=open;endFill=0;" edge="1" parent="1" source="WYmIHeGtq4Grt4gA2TI7-568" target="WYmIHeGtq4Grt4gA2TI7-542">
          <mxGeometry relative="1" as="geometry">
            <Array as="points">
              <mxPoint x="950" y="5357" />
              <mxPoint x="950" y="5432" />
            </Array>
          </mxGeometry>
        </mxCell>
        <mxCell id="WYmIHeGtq4Grt4gA2TI7-573" style="edgeStyle=orthogonalEdgeStyle;rounded=0;orthogonalLoop=1;jettySize=auto;html=1;entryX=-0.001;entryY=0.198;entryDx=0;entryDy=0;entryPerimeter=0;dashed=1;endArrow=open;endFill=0;" edge="1" parent="1" source="WYmIHeGtq4Grt4gA2TI7-568" target="WYmIHeGtq4Grt4gA2TI7-546">
          <mxGeometry relative="1" as="geometry">
            <Array as="points">
              <mxPoint x="950" y="5357" />
              <mxPoint x="950" y="5535" />
            </Array>
          </mxGeometry>
        </mxCell>
      </root>
    </mxGraphModel>
  </diagram>
</mxfile>
